<?xml version="1.0" encoding="UTF-8" standalone="no"?>
<!-- Created with Inkscape (http://www.inkscape.org/) -->

<svg
   width="210mm"
   height="240.12711mm"
   viewBox="0 0 210 240.12711"
   version="1.1"
   id="svg1"
   xmlns:xlink="http://www.w3.org/1999/xlink"
   xmlns="http://www.w3.org/2000/svg"
   xmlns:svg="http://www.w3.org/2000/svg">
  <defs
     id="defs1" />
  <g
     id="layer1"
     transform="translate(0.23845478,0.14526429)">
    <g
       id="text1"
       style="font-size:47.2927px;-inkscape-font-specification:sans-serif;stroke:#000000;stroke-width:1.05772;stroke-linecap:round;stroke-linejoin:round"
       transform="scale(0.94181054,1.0617847)"
       aria-label="φIrUμ (firum)" />
    <g
       id="g7">
      <g
         id="g6"
         style="font-size:47.2927px;-inkscape-font-specification:sans-serif;stroke:#000000;stroke-width:1.05772;stroke-linecap:round;stroke-linejoin:round"
         transform="scale(0.94181054,1.0617847)">
        <path
           style="font-family:'Times New Roman';-inkscape-font-specification:'Times New Roman, '"
           d="m 9.6606636,3.1302804 v 0.831317 q -5.1033629,1.316252 -5.1033629,9.6525146 0,9.029026 6.3503383,10.622384 V 10.819963 q 0,-2.9327018 0.369474,-4.2720459 0.369475,-1.3624363 1.61645,-2.3784904 1.270068,-1.0391463 3.048162,-1.0391463 3.117439,0 5.773035,2.9327017 2.678689,2.9327018 2.678689,7.6434979 0,4.410599 -2.747965,7.87442 -2.724873,3.463821 -8.243894,3.948756 v 9.490869 H 10.907639 V 25.529656 Q 6.1044741,25.113997 3.1948645,21.950374 0.30834705,18.763659 0.30834705,13.683388 q 0,-4.5722434 2.63250395,-7.4587609 Q 5.5733549,3.3150175 9.6606636,3.1302804 Z M 13.40159,24.236496 q 7.274024,-1.085331 7.274024,-9.398501 0,-3.833295 -1.570265,-6.4196146 -1.547174,-2.6094118 -3.648558,-2.6094118 -0.762041,0 -1.29316,0.5542114 -0.508027,0.5311192 -0.64658,1.2700676 -0.115461,0.7389485 -0.115461,2.9096094 z"
           id="path1" />
        <path
           style="font-family:try1;-inkscape-font-specification:try1"
           d="m 34.2307,16.685366 v -2.0552 h -6.165602 v 2.0552 z m 0,-4.110401 v -2.0552 h -4.110401 v 2.0552 z m 0,12.331203 v -6.165601 h -8.220802 v -6.165602 h 2.0552 V 8.4645647 h 2.055201 V 4.3541638 h 2.0552 V 8.4645647 H 34.2307 V 4.3541638 H 32.175499 V 2.2989634 H 36.2859 V 24.906168 Z"
           id="path2" />
        <path
           style="font-family:'ilkokuma ZeD 1';-inkscape-font-specification:'ilkokuma ZeD 1, '"
           d="M 36.260221,18.28519 48.650908,8.5901859 q -2.317342,-0.6148051 -2.45922,-3.8307088 1.466074,-4.39822131 5.675124,-1.74983 1.276903,1.1350248 1.276903,3.5942453 3.263197,0.3310489 8.181638,-1.6552445 Q 64.2575,4.6648916 62.933304,8.2118443 48.31986,17.339336 51.157422,21.879435 q 5.864295,3.215904 14.329688,-5.533246 1.797123,0.945854 1.418781,1.655245 0.756684,1.418781 -7.18849,5.769709 -3.878002,1.655245 -8.03976,0.898561 Q 48.367152,23.913021 48.31986,20.03502 47.941518,16.204311 57.400058,8.8739421 56.643375,9.1104056 53.75852,9.5360399 52.434325,9.8197961 51.2993,9.7252107 L 37.726294,20.74441 Q 36.118343,19.562093 36.260221,18.28519 Z M 48.745494,4.1919646 Q 48.177981,7.1714048 50.589909,6.509307 50.968251,5.6580384 50.542617,5.090526 50.022397,3.6244522 48.745494,4.1919646 Z"
           id="path3" />
        <path
           style="font-size:33.105px;font-family:'Times New Roman';-inkscape-font-specification:'Times New Roman, '"
           d="M 80.475864,3.5851258 V 2.9870374 h 7.758985 v 0.5980884 h -0.824392 q -1.293164,0 -1.98824,1.0830249 -0.339456,0.5011011 -0.339456,2.3276953 v 8.890503 q 0,3.297568 -0.662746,5.124162 -0.646582,1.81043 -2.570164,3.119759 -1.907417,1.293164 -5.204985,1.293164 -3.58853,0 -5.447454,-1.244671 -1.858923,-1.24467 -2.634821,-3.346062 -0.517266,-1.438645 -0.517266,-5.39896 V 6.8665296 q 0,-2.0205689 -0.565759,-2.6509863 Q 66.929971,3.5851258 65.685301,3.5851258 H 64.860909 V 2.9870374 h 9.472426 v 0.5980884 h -0.840556 q -1.357823,0 -1.939746,0.8567212 -0.404114,0.5819238 -0.404114,2.4246826 v 9.5532494 q 0,1.276999 0.226303,2.925784 0.242469,1.648784 0.856722,2.570163 0.614253,0.92138 1.761936,1.519468 1.163847,0.598088 2.844961,0.598088 2.149885,0 3.847163,-0.937544 1.697277,-0.937544 2.31153,-2.392353 0.630418,-1.470974 0.630418,-4.962517 V 6.8665296 q 0,-2.052898 -0.452608,-2.5701636 -0.630417,-0.7112402 -1.875087,-0.7112402 z"
           id="path4" />
        <path
           style="font-size:52.0221px;font-family:'High Tower Text';-inkscape-font-specification:'High Tower Text'"
           d="m 112.31539,19.394061 q -1.14306,2.387733 -2.64175,3.988022 -1.60028,1.676493 -2.87036,1.676493 -2.71795,0 -2.71795,-2.743352 0,-1.270071 0.38102,-2.717952 0.0508,-0.254014 -0.1524,-0.279415 -0.22862,-0.0254 -0.38103,0.228612 -1.34627,2.235325 -3.17517,3.835614 -2.260728,1.930508 -4.369045,1.930508 -2.108318,0 -3.276783,-1.397078 -0.558831,2.387733 -0.558831,3.861015 0,1.778099 1.041458,3.175177 0.609634,0.812845 0.609634,1.244669 0,0.457226 -1.06686,0.88905 -1.066859,0.457225 -2.15912,0.457225 -0.812845,0 -1.498683,-0.762042 -0.685839,-0.736641 -0.685839,-1.371677 0,-1.397078 0.990656,-4.623057 3.581599,-11.710053 3.581599,-17.8063924 0,-1.4478807 -0.152408,-2.9465642 -0.152409,-1.7272962 2.286127,-1.7272962 1.778099,0 1.778099,1.4732821 0,0.1778099 -0.0508,0.4064226 -0.228612,1.1684651 -1.8035,6.9853891 -1.371677,5.080283 -1.371677,5.816924 0,2.590945 2.082916,2.590945 2.565543,0 5.28349,-3.657804 3.30219,-4.419846 4.39445,-11.7354541 0.17781,-1.1938665 0.55883,-1.6256906 0.38102,-0.4572254 1.42248,-0.4572254 1.93051,0 1.93051,1.1176622 0,0.4826269 -0.33022,1.2700708 -3.12437,7.7982341 -3.12437,11.9132641 0,2.438536 1.77809,2.438536 1.7019,0 3.4292,-2.438536 0.1016,-0.127007 0.27941,-0.127007 0.63504,0 0.63504,0.736641 0,0.203211 -0.0762,0.381021 z"
           id="path5" />
        <path
           style="font-size:33.8933px;font-family:'Times New Roman';-inkscape-font-specification:'Times New Roman, '"
           d="m 136.202,31.542502 v 0.612331 q -2.49897,-1.25776 -4.17047,-2.945805 -2.38312,-2.399672 -3.67398,-5.659916 -1.29086,-3.260244 -1.29086,-6.76873 0,-5.130333 2.53207,-9.3504464 2.53207,-4.2366624 6.60324,-6.0571032 v 0.6950774 q -2.03559,1.1253634 -3.343,3.0782 -1.3074,1.9528366 -1.95283,4.9482892 -0.64543,2.995453 -0.64543,6.255697 0,3.541585 0.54613,6.437741 0.43029,2.283826 1.04262,3.657431 0.61233,1.390155 1.63839,2.664463 1.04262,1.274309 2.71412,2.432771 z m 7.74514,-20.60408 v 9.962776 q 0,2.118331 0.46338,2.681013 0.61233,0.728176 1.6384,0.728176 h 1.37361 v 0.595781 h -9.05256 v -0.595781 h 0.67853 q 0.66198,0 1.20811,-0.330989 0.54613,-0.330989 0.74472,-0.893671 0.21515,-0.562682 0.21515,-2.184529 v -9.962776 h -2.94581 V 9.7468604 h 2.94581 V 8.7538926 q 0,-2.2672763 0.72817,-3.8394753 0.72818,-1.5721989 2.21763,-2.5320677 1.506,-0.9764183 3.37609,-0.9764183 1.7377,0 3.19405,1.1253634 0.95987,0.7447259 0.95987,1.6714958 0,0.4964838 -0.43029,0.9433193 -0.43029,0.430286 -0.92677,0.430286 -0.38064,0 -0.81092,-0.2647914 -0.41374,-0.2813408 -1.02607,-1.1750118 -0.61233,-0.9102204 -1.12536,-1.2246602 -0.51304,-0.3144398 -1.14192,-0.3144398 -0.76127,0 -1.29085,0.4137366 -0.52959,0.3971871 -0.76128,1.2577591 -0.23169,0.8440226 -0.23169,4.3856076 v 1.0922645 h 3.90567 v 1.1915616 z m 9.21806,-9.5655896 q 0.69508,0 1.17501,0.4964839 0.49648,0.4799344 0.49648,1.1750118 0,0.6950774 -0.49648,1.1915613 -0.47993,0.4964839 -1.17501,0.4964839 -0.69508,0 -1.19156,-0.4964839 -0.49649,-0.4964839 -0.49649,-1.1915613 0,-0.6950774 0.47994,-1.1750118 0.49648,-0.4964839 1.20811,-0.4964839 z m 1.3736,7.9271925 V 21.480429 q 0,1.423254 0.1986,1.903188 0.21514,0.463385 0.61233,0.695078 0.41373,0.231692 1.48945,0.231692 v 0.595781 h -7.36451 v -0.595781 q 1.10881,0 1.48945,-0.215143 0.38064,-0.215143 0.59578,-0.711627 0.23169,-0.496483 0.23169,-1.903188 v -5.84196 q 0,-2.46587 -0.14894,-3.194046 -0.11585,-0.529583 -0.36409,-0.728177 -0.24824,-0.215143 -0.67853,-0.215143 -0.46338,0 -1.12536,0.248242 l -0.23169,-0.59578 4.56765,-1.8535401 z m 8.62227,0 v 3.4091891 q 1.90319,-3.4091891 3.90567,-3.4091891 0.91022,0 1.50601,0.5626817 0.59578,0.5461324 0.59578,1.2743084 0,0.645429 -0.43029,1.092265 -0.43029,0.446835 -1.02607,0.446835 -0.57923,0 -1.3074,-0.562681 -0.71163,-0.579232 -1.05917,-0.579232 -0.29789,0 -0.64543,0.33099 -0.74472,0.678528 -1.5391,2.234177 v 7.265214 q 0,1.257759 0.31444,1.903188 0.21514,0.446836 0.76128,0.744726 0.54613,0.29789 1.5722,0.29789 v 0.595781 h -7.7617 v -0.595781 q 1.15846,0 1.72114,-0.364088 0.41374,-0.264791 0.57923,-0.844022 0.0828,-0.281341 0.0828,-1.605298 V 15.62192 q 0,-2.647914 -0.11585,-3.144398 -0.0993,-0.513034 -0.39718,-0.744726 -0.28134,-0.231693 -0.71163,-0.231693 -0.51303,0 -1.15846,0.248242 l -0.1655,-0.59578 4.5842,-1.8535401 z m 20.14069,0.4468355 v 9.1849516 q 0,2.631365 0.11585,3.227145 0.13239,0.579231 0.39718,0.810924 0.28135,0.231692 0.64543,0.231692 0.51304,0 1.15847,-0.281341 l 0.23169,0.579232 -4.53455,1.870089 h -0.74473 v -3.210596 q -1.95284,2.118331 -2.9789,2.664464 -1.02607,0.546132 -2.16798,0.546132 -1.27431,0 -2.21763,-0.728176 -0.92677,-0.744726 -1.29086,-1.903189 -0.36409,-1.158462 -0.36409,-3.276793 v -6.76873 q 0,-1.075715 -0.23169,-1.489452 -0.23169,-0.413736 -0.69508,-0.628879 -0.44683,-0.231693 -1.63839,-0.215144 V 9.7468604 h 5.31237 V 19.891681 q 0,2.118331 0.72818,2.78031 0.74473,0.661978 1.78734,0.661978 0.71163,0 1.6053,-0.446835 0.91022,-0.446836 2.15143,-1.704595 v -8.589171 q 0,-1.290858 -0.47993,-1.737694 -0.46339,-0.463385 -1.95284,-0.496484 V 9.7468604 Z m 8.15889,2.7803096 q 1.65495,-1.654946 1.95284,-1.903188 0.74472,-0.6288797 1.6053,-0.9764184 0.86057,-0.3475387 1.70459,-0.3475387 1.42325,0 2.44932,0.8274731 1.02607,0.827473 1.37361,2.399672 1.70459,-1.985935 2.8796,-2.5982655 1.17502,-0.6288796 2.41623,-0.6288796 1.20811,0 2.13488,0.6288796 0.94332,0.6123305 1.48945,2.0190345 0.36409,0.959869 0.36409,3.012002 v 6.520488 q 0,1.423254 0.21514,1.952837 0.16549,0.364088 0.61233,0.628879 0.44683,0.248242 1.45635,0.248242 v 0.595781 h -7.48036 v -0.595781 h 0.31444 q 0.97642,0 1.52255,-0.380637 0.38064,-0.264792 0.54614,-0.844023 0.0662,-0.281341 0.0662,-1.605298 v -6.520488 q 0,-1.85354 -0.44683,-2.614815 -0.64543,-1.059166 -2.06868,-1.059166 -0.87713,0 -1.7708,0.446836 -0.87712,0.430286 -2.13488,1.621847 l -0.0331,0.182044 0.0331,0.711627 v 7.232115 q 0,1.55565 0.1655,1.936287 0.18204,0.380638 0.66198,0.645429 0.47993,0.248242 1.63839,0.248242 v 0.595781 h -7.6624 v -0.595781 q 1.25776,0 1.72115,-0.29789 0.47993,-0.29789 0.66197,-0.893671 0.0828,-0.281341 0.0828,-1.638397 v -6.520488 q 0,-1.85354 -0.54613,-2.664463 -0.72818,-1.059166 -2.03558,-1.059166 -0.89368,0 -1.7708,0.479934 -1.3736,0.728177 -2.11833,1.638397 v 8.125786 q 0,1.489452 0.1986,1.936287 0.21514,0.446836 0.61233,0.678528 0.41373,0.215143 1.65494,0.215143 v 0.595781 h -7.4969 v -0.595781 q 1.04261,0 1.45635,-0.215143 0.41373,-0.231692 0.62888,-0.711627 0.21514,-0.496483 0.21514,-1.903188 v -5.792312 q 0,-2.498968 -0.14894,-3.227145 -0.11585,-0.546132 -0.36409,-0.744726 -0.24824,-0.215143 -0.67853,-0.215143 -0.46339,0 -1.10881,0.248242 l -0.24825,-0.59578 4.56766,-1.8535401 h 0.71162 z M 213.0246,2.0679098 V 1.3728324 q 2.51552,1.2412097 4.18702,2.9292548 2.36657,2.4162215 3.65743,5.6764657 1.29086,3.2436941 1.29086,6.7687301 0,5.130333 -2.53207,9.350446 -2.51552,4.236663 -6.60324,6.057104 v -0.612331 q 2.03559,-1.141912 3.343,-3.094749 1.32395,-1.936287 1.95283,-4.93174 0.64543,-3.012002 0.64543,-6.272246 0,-3.525036 -0.54613,-6.437741 -0.41374,-2.2838258 -1.04262,-3.6574312 -0.61233,-1.3736054 -1.63839,-2.647914 -1.02607,-1.2743086 -2.71412,-2.432771 z"
           id="path6" />
      </g>
      <g
         id="g14"
         transform="matrix(1.1070909,0,0,1.0483282,-14.868408,-47.08433)">
        <ellipse
           style="fill:none;stroke:#000000;stroke-width:4.43385;stroke-linecap:round;stroke-linejoin:round;stroke-dasharray:none"
           id="path7"
           cx="107.40221"
           cy="183.20479"
           rx="91.5158"
           ry="88.410637" />
        <path
           style="fill:none;stroke:#000000;stroke-width:4.078;stroke-linecap:round;stroke-linejoin:round;stroke-dasharray:none"
           d="m 105.57564,95.346863 c 0,0 -31.620063,30.159737 -35.070105,87.675277 -0.162219,57.15023 36.531365,88.04059 36.531365,88.04059"
           id="path8" />
        <use
           x="0"
           y="0"
           xlink:href="#path8"
           id="use8"
           transform="rotate(180,107.76729,183.02214)" />
        <ellipse
           style="fill:none;stroke:#000000;stroke-width:4.22302;stroke-linecap:round;stroke-linejoin:round;stroke-dasharray:none"
           id="path9"
           cx="108.3155"
           cy="186.30995"
           rx="35.54557"
           ry="33.171032" />
        <path
           style="fill:none;stroke:#000000;stroke-width:4.078;stroke-linecap:round;stroke-linejoin:round;stroke-dasharray:none"
           d="m 139.91513,143.56826 c 0,0 5.69354,-4.02811 8.0369,-6.57564 3.20135,-3.48028 8.0369,-11.69004 8.0369,-11.69004"
           id="path10" />
        <use
           x="0"
           y="0"
           xlink:href="#path10"
           id="use10"
           transform="translate(4.7625002,43.391688)" />
        <use
           x="0"
           y="0"
           xlink:href="#use10"
           id="use11"
           transform="translate(-6.879167,39.687519)" />
        <use
           x="0"
           y="0"
           xlink:href="#use11"
           id="use12"
           transform="rotate(90,106.67705,178.88547)" />
        <use
           x="0"
           y="0"
           xlink:href="#use12"
           id="use13"
           transform="translate(-6.3500006,-40.216686)" />
        <use
           x="0"
           y="0"
           xlink:href="#use13"
           id="use14"
           transform="translate(7.9375002,-43.920855)" />
      </g>
    </g>
  </g>
</svg>
