<?xml version='1.0' encoding='utf-8'?>
<svg xmlns="http://www.w3.org/2000/svg" width="91.44mm" height="91.44mm" clip-rule="evenodd" fill-rule="evenodd" image-rendering="optimizeQuality" shape-rendering="geometricPrecision" text-rendering="geometricPrecision" version="1.1" viewBox="0 0 9144 9144"> <defs> <style type="text/css">.fil0 {fill:#F0F0F0} .fil1 {fill:#011627;fill-rule:nonzero}</style> </defs> <polygon class="fil0" points="0 0 9144 0 9144 9144 0 9144"/> <path class="fil1" d="m6468 5441c-166 336-424 618-741 815-307 190-669 300-1055 300-554 0-1055-224-1418-587s-587-864-587-1418c0-477 167-916 447-1261 284-351 685-604 1144-700 45-10 89 19 98 64 4 19 1 38-7 54-62 125-110 257-142 396-32 135-48 275-48 420 0 508 205 967 538 1300 333 332 792 538 1300 538 66 0 129-3 191-10 64-6 127-16 189-29 45-10 89 19 98 64 4 19 1 38-7 54z"/></svg>