<?xml version="1.0" encoding="UTF-8" standalone="no"?>
<!-- Created with Inkscape (http://www.inkscape.org/) -->

<svg
   width="209.94302mm"
   height="240.24942mm"
   viewBox="0 0 209.94302 240.24942"
   version="1.1"
   id="svg1"
   xmlns="http://www.w3.org/2000/svg"
   xmlns:svg="http://www.w3.org/2000/svg">
  <defs
     id="defs1" />
  <g
     id="layer1"
     transform="translate(-41.654871,-75.192143)">
    <g
       id="g43">
      <g
         id="g17"
         transform="matrix(1.7279261,0,0,1.5896505,-30.272439,-44.33712)">
        <g
           id="g16">
          <rect
             style="fill:none;stroke:#fbff00;stroke-width:1.5;stroke-dasharray:none;stroke-opacity:1"
             id="rect1"
             width="120"
             height="120"
             x="42.376381"
             y="105.57565" />
          <path
             style="fill:none;stroke:#d0de00;stroke-width:1.5;stroke-dasharray:none;stroke-opacity:1"
             d="m 98.515171,166.74282 c -4.599682,-1.62921 -7.234578,-13.14048 3.777869,-14.85315 11.56137,1.48399 8.28505,13.69881 3.77787,14.82086 -0.0512,4.73847 -0.67152,10.92667 -3.51955,12.65748 -2.84803,-0.62632 -3.892454,-7.8639 -4.036189,-12.62519 z"
             id="path3" />
        </g>
        <path
           style="fill:none;stroke:#a6b100;stroke-width:1.5;stroke-dasharray:none;stroke-opacity:1"
           d="M 97.7214,153.43173 42.741696,133.33948"
           id="path4" />
        <path
           style="fill:none;stroke:#a6b100;stroke-width:1.5;stroke-dasharray:none;stroke-opacity:1"
           d="M 98.817341,173.8893 42.741696,202.01845"
           id="path5" />
        <path
           style="fill:none;stroke:#a6b100;stroke-width:1.5;stroke-dasharray:none;stroke-opacity:1"
           d="m 70.688191,187.95387 28.494466,37.07934"
           id="path6" />
        <path
           style="fill:none;stroke:#a6b100;stroke-width:1.5;stroke-dasharray:none;stroke-opacity:1"
           d="M 87.857932,210.42066 162.0166,169.14022"
           id="path7" />
        <path
           style="fill:none;stroke:#a6b100;stroke-width:1.5;stroke-dasharray:none;stroke-opacity:1"
           d="m 135.16605,184.66605 27.03321,9.3155"
           id="path8" />
        <path
           style="fill:none;stroke:#a6b100;stroke-width:1.5;stroke-dasharray:none;stroke-opacity:1"
           d="m 110.32472,160.00738 43.47233,12.96863"
           id="path9" />
        <path
           style="fill:none;stroke:#a6b100;stroke-width:1.5;stroke-dasharray:none;stroke-opacity:1"
           d="m 130.59963,166.21771 31.59963,-29.04243"
           id="path10" />
        <path
           style="fill:none;stroke:#a6b100;stroke-width:1.5;stroke-dasharray:none;stroke-opacity:1"
           d="m 103.74908,151.97048 25.93726,-46.39484"
           id="path11" />
        <path
           style="fill:none;stroke:#a6b100;stroke-width:1.5;stroke-dasharray:none;stroke-opacity:1"
           d="m 119.82288,123.65867 27.21586,27.21587"
           id="path12" />
        <path
           style="fill:none;stroke:#a6b100;stroke-width:1.5;stroke-dasharray:none;stroke-opacity:1"
           d="M 94.798892,161.83395 81.464943,182.29151"
           id="path13" />
        <path
           style="fill:none;stroke:#a6b100;stroke-width:1.5;stroke-dasharray:none;stroke-opacity:1"
           d="m 110.32472,138.81919 -48.404056,1.82656"
           id="path14" />
        <path
           style="fill:none;stroke:#a6b100;stroke-width:1.5;stroke-dasharray:none;stroke-opacity:1"
           d="M 77.994464,140.4631 92.789668,105.7583"
           id="path15" />
        <path
           style="fill:none;stroke:#a6b100;stroke-width:1.5;stroke-dasharray:none;stroke-opacity:1"
           d="M 42.376383,175.71586 75.619927,146.49077"
           id="path16" />
      </g>
      <g
         id="g34"
         transform="matrix(1.6588155,0,0,1.4646207,-19.868966,-31.454289)">
        <g
           id="g33"
           transform="matrix(0.66491783,0,0,0.5727343,34.104541,49.086502)">
          <g
             id="text17"
             style="font-size:25.4px;font-family:Arial;-inkscape-font-specification:Arial;fill:none;stroke:#a6b100;stroke-width:0.5"
             aria-label="αΩπναλ ">
            <path
               style="font-family:'Times New Roman';-inkscape-font-specification:'Times New Roman, ';fill:#e5e519;stroke:#e5e51a"
               d="m 19.396915,49.767169 h 2.108398 l -1.277441,5.742285 q -0.372071,1.63711 -0.508496,2.00918 0.496093,2.282031 1.438672,2.282031 1.11621,0 1.153417,-1.53789 h 0.446485 q -0.03721,1.438672 -0.533301,2.33164 -0.483691,0.880567 -1.277441,0.880567 -0.657325,0 -0.979785,-0.533301 -0.322461,-0.533301 -0.694532,-2.182813 -1.289843,2.716114 -4.216797,2.716114 -1.996777,0 -3.174999,-1.550293 -1.178223,-1.562696 -1.178223,-4.464844 0,-2.852539 1.289844,-4.440039 1.289843,-1.5875 3.100586,-1.5875 1.277441,0 2.095996,0.905371 0.818554,0.905371 1.451074,2.951758 z m -1.091407,4.861719 q -0.58291,-1.996777 -1.302246,-3.112988 -0.719336,-1.128613 -1.723925,-1.128613 -2.269629,0 -2.269629,5.308203 0,5.035351 2.17041,5.035351 1.885156,0 2.790527,-4.440039 z"
               id="path35" />
            <path
               style="font-size:19.4028px;font-family:'Times New Roman';-inkscape-font-specification:'Times New Roman, ';fill:#e5e519;stroke:#e5e51a"
               d="m 23.500024,58.162347 h 0.350539 q 0.0379,0.672655 0.397909,0.937928 0.360013,0.265273 1.146356,0.265273 h 2.586409 l -0.01895,-0.63476 q -1.50637,-0.303169 -2.747467,-1.676902 -1.241097,-1.373733 -1.241097,-3.467492 0,-2.321136 1.724272,-3.960142 1.733746,-1.639006 4.519109,-1.639006 2.700097,0 4.414895,1.55374 1.714798,1.544265 1.714798,3.960141 0,1.961123 -1.070564,3.334857 -1.061091,1.364259 -2.880103,1.894804 l -0.09474,0.63476 h 2.633779 q 0.900032,0 1.184253,-0.341065 0.293695,-0.341065 0.312643,-0.862136 h 0.350538 v 2.965369 h -5.305453 l 0.246325,-2.861155 q 2.444298,-0.767396 2.444298,-4.519109 0,-2.453772 -1.203201,-3.761187 -1.193727,-1.307415 -2.804311,-1.307415 -1.714798,0 -2.842207,1.392681 -1.117935,1.383207 -1.117935,3.543285 0,1.563213 0.502124,2.851681 0.502123,1.278993 1.923226,1.800064 l 0.180007,2.861155 h -5.305453 z"
               id="path36" />
            <path
               style="font-family:'Times New Roman';-inkscape-font-specification:'Times New Roman, ';fill:#e5e519;stroke:#e5e51a"
               d="m 49.666572,49.767169 v 1.810743 h -2.877344 l -0.248047,3.770312 q -0.07441,0.979785 -0.07441,1.699121 0,1.723926 0.396875,2.108398 0.409278,0.372071 0.979785,0.372071 1.190625,0 1.413867,-1.500684 h 0.446485 q -0.409277,3.447852 -2.75332,3.447852 -1.091407,0 -1.761133,-0.669727 -0.657324,-0.669726 -0.657324,-1.984375 0,-0.868164 0.260449,-3.671094 l 0.334863,-3.571874 h -2.629297 q -0.260449,4.514453 -0.632519,6.598046 -0.359668,2.083594 -0.806153,2.691309 -0.434082,0.607715 -1.190625,0.607715 -0.570507,0 -0.967382,-0.334864 -0.384473,-0.334863 -0.384473,-0.880566 0,-0.520898 0.669727,-1.426269 0.979785,-1.314649 1.463476,-2.728516 0.483691,-1.42627 0.731738,-4.526855 h -0.843359 q -1.016992,0 -1.562695,0.458886 -0.533301,0.446485 -1.016993,1.289844 h -0.446484 q 0.359668,-1.327051 0.930176,-2.182813 0.570508,-0.855761 1.16582,-1.11621 0.607715,-0.26045 2.145606,-0.26045 z m 5.630665,11.707813 -2.740918,-8.135938 q -0.272852,-0.806152 -0.719336,-1.5875 -0.446484,-0.781347 -1.227832,-0.781347 -0.37207,0 -0.818555,0.16123 l -0.173633,-0.434082 3.088184,-1.265039 h 0.545703 l 3.261816,9.537402 2.021582,-4.12998 q 0.558106,-1.116211 0.558106,-1.748731 0,-0.508496 -0.21084,-1.426269 -0.16123,-0.669727 -0.16123,-1.00459 0,-1.227832 1.32705,-1.227832 1.178223,0 1.178223,1.116211 0,1.103809 -1.637109,4.216797 l -3.547071,6.709668 z M 71.432685,49.767169 h 2.108399 l -1.277442,5.742285 q -0.37207,1.63711 -0.508496,2.00918 0.496094,2.282031 1.438672,2.282031 1.116211,0 1.153418,-1.53789 h 0.446484 q -0.03721,1.438672 -0.533301,2.33164 -0.483691,0.880567 -1.277441,0.880567 -0.657324,0 -0.979785,-0.533301 -0.322461,-0.533301 -0.694531,-2.182813 -1.289844,2.716114 -4.216797,2.716114 -1.996777,0 -3.175,-1.550293 -1.178223,-1.562696 -1.178223,-4.464844 0,-2.852539 1.289844,-4.440039 1.289844,-1.5875 3.100586,-1.5875 1.277441,0 2.095996,0.905371 0.818555,0.905371 1.451074,2.951758 z m -1.091406,4.861719 q -0.58291,-1.996777 -1.302246,-3.112988 -0.719336,-1.128613 -1.723926,-1.128613 -2.269629,0 -2.269629,5.308203 0,5.035351 2.17041,5.035351 1.885157,0 2.790528,-4.440039 z"
               id="path37" />
            <path
               style="font-size:19.4028px;font-family:'Times New Roman';-inkscape-font-specification:'Times New Roman, ';fill:#e5e519;stroke:#e5e51a"
               d="m 84.128731,58.399197 h 0.341065 q 0,1.496896 -0.492649,2.179026 -0.483175,0.682129 -1.212675,0.682129 -0.596863,0 -1.146357,-0.445279 -0.549493,-0.454753 -0.985298,-2.415876 l -0.814766,-3.675921 -2.823259,6.40444 h -1.79059 l 4.054881,-8.735049 q -0.322116,-1.695851 -0.776869,-2.510617 -0.454754,-0.814766 -1.127409,-0.814766 -0.54002,0 -0.947403,0.416857 -0.397908,0.407383 -0.445279,1.26952 h -0.341064 q 0.02842,-1.392682 0.558967,-2.226396 0.530545,-0.843188 1.326363,-0.843188 0.511597,0 0.966351,0.426331 0.464227,0.416857 0.795818,1.440052 0.341064,1.01372 1.051616,4.21594 l 0.672656,3.003265 q 0.407383,1.866383 0.852662,2.501143 0.454753,0.625285 1.080038,0.625285 1.061091,0 1.203201,-1.496896 z"
               id="path38" />
          </g>
          <g
             id="g32">
            <g
               id="g23"
               transform="translate(62.254098,-24.539997)">
              <path
                 style="font-size:19.4028px;font-family:Calibri;-inkscape-font-specification:Calibri;fill:#e5e519;stroke:#e5e51a;stroke-width:0.5"
                 d="m 39.753715,80.021428 q 0,1.525318 -0.341065,2.719045 -0.341065,1.184253 -1.013721,1.999019 -0.663181,0.814766 -1.657954,1.241097 -0.994772,0.416857 -2.302187,0.416857 -0.49265,0 -0.994773,-0.08527 -0.502123,-0.07579 -0.956876,-0.208429 -0.454753,-0.14211 -0.795818,-0.322117 -0.341065,-0.180006 -0.483175,-0.303168 -0.132637,-0.123163 -0.170533,-0.189481 -0.0379,-0.07579 -0.06632,-0.170532 -0.0379,-0.189481 -0.0379,-0.63476 0,-0.284221 0.05684,-0.435805 0.05684,-0.151584 0.208429,-0.151584 0.104214,0 0.322116,0.170532 0.217903,0.170533 0.596864,0.378961 0.378961,0.208429 0.947402,0.378961 0.577916,0.170532 1.402156,0.170532 0.82424,0 1.477947,-0.28422 0.653708,-0.284221 1.108461,-0.881084 0.454753,-0.596864 0.691604,-1.50637 0.246324,-0.909506 0.246324,-2.160077 0,-0.625286 -0.07579,-1.231623 -0.06632,-0.615812 -0.236851,-1.165305 -0.161058,-0.549494 -0.435805,-1.023195 -0.274746,-0.473701 -0.691603,-0.814766 -0.407383,-0.341065 -0.975825,-0.530545 -0.568441,-0.198955 -1.307415,-0.198955 -0.663182,0 -1.174779,0.161059 -0.511597,0.151584 -0.890558,0.350539 -0.369487,0.18948 -0.606337,0.350539 -0.227377,0.151584 -0.322117,0.151584 -0.104214,0 -0.180007,-0.123162 -0.06632,-0.132637 -0.06632,-0.502124 0,-0.360013 0.0379,-0.540019 0.04737,-0.180006 0.170533,-0.303169 0.07579,-0.07579 0.350539,-0.23685 0.28422,-0.161059 0.710551,-0.312643 0.435805,-0.161058 0.985299,-0.274747 0.558967,-0.123162 1.184253,-0.123162 1.269519,0 2.254817,0.426331 0.985299,0.416857 1.657954,1.222149 0.672656,0.795818 1.023195,1.951649 0.350539,1.155831 0.350539,2.624304 z"
                 id="text22"
                 aria-label="Ɔ" />
              <path
                 style="font-size:19.4028px;font-family:Calibri;-inkscape-font-specification:Calibri;fill:#e5e519;stroke:#e5e51a;stroke-width:0.5"
                 d="m 46.862066,84.496967 q 0,0.151584 -0.0095,0.265272 -0.0095,0.113689 -0.0379,0.198955 -0.01895,0.08527 -0.05684,0.151584 -0.0379,0.06632 -0.132637,0.161059 -0.09474,0.09474 -0.397908,0.293694 -0.303169,0.189481 -0.757922,0.378961 -0.445279,0.180007 -1.032669,0.303169 -0.577915,0.132636 -1.269519,0.132636 -1.193727,0 -2.160077,-0.397909 -0.956877,-0.397909 -1.639006,-1.174779 -0.672656,-0.77687 -1.042143,-1.913752 -0.360013,-1.146357 -0.360013,-2.633779 0,-1.525317 0.388435,-2.719044 0.397909,-1.193727 1.108461,-2.017967 0.710552,-0.833714 1.69585,-1.269519 0.994773,-0.435806 2.197973,-0.435806 0.530546,0 1.032669,0.104215 0.502123,0.09474 0.928454,0.246324 0.426331,0.151585 0.757922,0.350539 0.331591,0.198955 0.454753,0.331591 0.132637,0.123162 0.170533,0.18948 0.0379,0.06632 0.05684,0.161059 0.02842,0.08527 0.0379,0.208428 0.01895,0.123163 0.01895,0.293695 0,0.189481 -0.01895,0.322117 -0.01895,0.132636 -0.05684,0.227376 -0.0379,0.08527 -0.09474,0.132637 -0.04737,0.0379 -0.123163,0.0379 -0.132636,0 -0.369487,-0.180007 -0.23685,-0.18948 -0.615811,-0.407383 -0.369487,-0.227376 -0.909506,-0.407383 -0.530546,-0.18948 -1.278994,-0.18948 -0.814766,0 -1.487421,0.331591 -0.663182,0.322117 -1.136883,0.956876 -0.473701,0.63476 -0.738974,1.55374 -0.255798,0.909506 -0.255798,2.084285 0,1.165305 0.246324,2.065337 0.255799,0.890558 0.720026,1.496896 0.473701,0.596863 1.155831,0.909506 0.682129,0.303169 1.544266,0.303169 0.729499,0 1.269519,-0.180007 0.549493,-0.180006 0.928454,-0.397909 0.388435,-0.227376 0.63476,-0.407383 0.246324,-0.180006 0.388434,-0.180006 0.06632,0 0.113689,0.02842 0.04737,0.02842 0.07579,0.113688 0.02842,0.07579 0.0379,0.217903 0.01895,0.14211 0.01895,0.360013 z"
                 id="text23"
                 aria-label="C" />
            </g>
            <path
               style="font-size:25.4px;font-family:Calibri;-inkscape-font-specification:Calibri;fill:#e5e519;stroke:#e5e51a;stroke-width:0.5"
               d="m 122.94983,61.248564 q 0,0.384473 -0.0496,0.570508 -0.0372,0.186035 -0.12403,0.260449 -0.0744,0.07441 -0.22324,0.136426 -0.14883,0.06201 -0.37207,0.09922 -0.22324,0.04961 -0.44648,0.07441 -0.22325,0.03721 -0.47129,0.03721 -0.45889,0 -0.89297,-0.111621 -0.43408,-0.111621 -0.78135,-0.384473 -0.33486,-0.285254 -0.57051,-0.744141 -0.23564,-0.471289 -0.31006,-1.190625 -0.23564,0.533301 -0.60771,0.979786 -0.37207,0.446484 -0.86816,0.781347 -0.4837,0.322461 -1.07901,0.496094 -0.59531,0.186035 -1.27744,0.186035 -1.24023,0 -2.1208,-0.458887 -0.88057,-0.458886 -1.43867,-1.265039 -0.54571,-0.806152 -0.80615,-1.909961 -0.26045,-1.103808 -0.26045,-2.368847 0,-1.438672 0.32246,-2.59209 0.32246,-1.153418 0.95498,-1.971973 0.64492,-0.818554 1.5751,-1.252636 0.93017,-0.446485 2.158,-0.446485 0.79375,0 1.48828,0.26045 0.69454,0.248046 1.22784,0.74414 0.5333,0.496094 0.88056,1.240235 0.34727,0.731738 0.45889,1.711523 0.21084,-0.892969 0.32246,-1.550293 0.12402,-0.657324 0.17363,-1.091406 0.062,-0.446485 0.0868,-0.682129 0.0372,-0.248047 0.0868,-0.297656 0.0372,-0.02481 0.0992,-0.04961 0.062,-0.03721 0.16123,-0.06201 0.11163,-0.02481 0.26045,-0.03721 0.16123,-0.0124 0.37207,-0.0124 0.29766,0 0.4837,0.02481 0.19843,0.0124 0.31005,0.06201 0.11163,0.04961 0.16123,0.124023 0.0496,0.07441 0.0496,0.16123 0,0.198438 -0.062,0.620118 -0.062,0.409277 -0.17363,0.979785 -0.11162,0.558105 -0.27285,1.227832 -0.16123,0.657324 -0.34727,1.351855 -0.17363,0.682129 -0.38447,1.339453 -0.21084,0.644922 -0.43408,1.190625 0.0124,1.0542 0.12402,1.699121 0.11162,0.63252 0.29766,0.992188 0.19844,0.347266 0.43408,0.471289 0.23564,0.111621 0.49609,0.111621 0.22325,0 0.40928,-0.03721 0.18604,-0.04961 0.32246,-0.08682 0.14883,-0.03721 0.24805,-0.07441 0.11162,-0.04961 0.18603,-0.04961 0.062,0 0.0992,0.03721 0.0372,0.02481 0.062,0.111621 0.0372,0.08682 0.0496,0.248047 0.0124,0.148828 0.0124,0.396875 z m -4.79971,-5.010547 q 0,-1.16582 -0.24805,-1.996777 -0.23564,-0.830957 -0.63252,-1.351855 -0.39687,-0.533301 -0.91777,-0.768946 -0.5085,-0.248047 -1.0666,-0.248047 -0.78135,0 -1.33946,0.372071 -0.5457,0.37207 -0.90537,0.992187 -0.34726,0.607715 -0.50849,1.389063 -0.16123,0.781347 -0.16123,1.599902 0,0.880566 0.12402,1.699121 0.12402,0.806152 0.44648,1.438672 0.32247,0.620117 0.84336,1.00459 0.5333,0.37207 1.35186,0.37207 0.73174,0 1.28984,-0.334863 0.57051,-0.334863 0.94258,-0.930176 0.38447,-0.607715 0.58291,-1.413867 0.19844,-0.818555 0.19844,-1.773535 z"
               id="text24"
               aria-label="α" />
            <g
               id="text24-8"
               style="font-size:25.4px;font-family:Calibri;-inkscape-font-specification:Calibri;fill:#e5e519;stroke:#e5e51a;stroke-width:0.499999"
               aria-label="αμUrI">
              <path
                 style="stroke-width:0.5"
                 d="m 148.50338,61.382201 q 0,0.384472 -0.0496,0.570507 -0.0372,0.186036 -0.12402,0.26045 -0.0744,0.07441 -0.22324,0.136425 -0.14883,0.06201 -0.37207,0.09922 -0.22324,0.04961 -0.44649,0.07441 -0.22324,0.03721 -0.47128,0.03721 -0.45889,0 -0.89297,-0.111621 -0.43409,-0.111621 -0.78135,-0.384472 -0.33486,-0.285254 -0.57051,-0.744141 -0.23564,-0.471289 -0.31006,-1.190625 -0.23564,0.533301 -0.60771,0.979785 -0.37207,0.446484 -0.86817,0.781348 -0.48369,0.322461 -1.079,0.496093 -0.59531,0.186036 -1.27744,0.186036 -1.24024,0 -2.1208,-0.458887 -0.88057,-0.458887 -1.43867,-1.265039 -0.54571,-0.806152 -0.80616,-1.909961 -0.26045,-1.103809 -0.26045,-2.368848 0,-1.438672 0.32247,-2.592089 0.32246,-1.153418 0.95498,-1.971973 0.64492,-0.818555 1.57509,-1.252637 0.93018,-0.446484 2.15801,-0.446484 0.79375,0 1.48828,0.260449 0.69453,0.248047 1.22783,0.744141 0.53331,0.496093 0.88057,1.240234 0.34727,0.731738 0.45889,1.711523 0.21084,-0.892968 0.32246,-1.550293 0.12402,-0.657324 0.17363,-1.091406 0.062,-0.446484 0.0868,-0.682129 0.0372,-0.248047 0.0868,-0.297656 0.0372,-0.02481 0.0992,-0.04961 0.062,-0.03721 0.16123,-0.06201 0.11162,-0.02481 0.26045,-0.03721 0.16123,-0.0124 0.37207,-0.0124 0.29766,0 0.48369,0.0248 0.19844,0.0124 0.31006,0.06201 0.11162,0.04961 0.16123,0.124023 0.0496,0.07441 0.0496,0.161231 0,0.198437 -0.062,0.620117 -0.062,0.409277 -0.17363,0.979785 -0.11162,0.558106 -0.27285,1.227832 -0.16123,0.657324 -0.34727,1.351856 -0.17363,0.682129 -0.38447,1.339453 -0.21084,0.644922 -0.43408,1.190625 0.0124,1.054199 0.12402,1.699121 0.11162,0.632519 0.29766,0.992187 0.19843,0.347266 0.43408,0.471289 0.23564,0.111622 0.49609,0.111622 0.22324,0 0.40928,-0.03721 0.18603,-0.04961 0.32246,-0.08682 0.14883,-0.03721 0.24805,-0.07441 0.11162,-0.04961 0.18603,-0.04961 0.062,0 0.0992,0.03721 0.0372,0.0248 0.062,0.111621 0.0372,0.08682 0.0496,0.248047 0.0124,0.148828 0.0124,0.396875 z m -4.7997,-5.010547 q 0,-1.16582 -0.24805,-1.996777 -0.23564,-0.830957 -0.63252,-1.351856 -0.39687,-0.533301 -0.91777,-0.768945 -0.5085,-0.248047 -1.0666,-0.248047 -0.78135,0 -1.33946,0.37207 -0.5457,0.372071 -0.90537,0.992188 -0.34726,0.607715 -0.50849,1.389062 -0.16123,0.781348 -0.16123,1.599902 0,0.880567 0.12402,1.699122 0.12402,0.806152 0.44648,1.438671 0.32246,0.620118 0.84336,1.00459 0.5333,0.372071 1.35186,0.372071 0.73174,0 1.28984,-0.334864 0.57051,-0.334863 0.94258,-0.930175 0.38447,-0.607715 0.58291,-1.413868 0.19844,-0.818554 0.19844,-1.773535 z"
                 id="path39" />
              <path
                 style="font-family:'Times New Roman';-inkscape-font-specification:'Times New Roman, ';stroke-width:0.5"
                 d="m 158.04079,60.278392 q -2.24483,2.406055 -3.90674,2.406055 -1.0666,0 -1.98438,-0.818555 v 0.657324 q 0,1.141016 0.34727,2.294434 0.39687,1.277441 0.39687,1.686719 0,0.570507 -0.35966,0.942578 -0.35967,0.37207 -0.89297,0.37207 -0.54571,0 -0.86817,-0.434082 -0.32246,-0.434082 -0.32246,-1.041797 0,-0.446484 0.32246,-1.612305 0.37207,-1.289843 0.37207,-2.505273 V 50.976634 h 2.04639 v 7.35459 q 0,1.116211 0.18603,1.637109 0.19844,0.520899 0.68213,0.855762 0.4961,0.322461 1.11621,0.322461 1.10381,0 2.86495,-1.513086 v -8.656836 h 2.05879 v 8.619629 q 0,1.091406 0.22324,1.513086 0.22324,0.409277 0.75654,0.409277 0.84336,0 1.09141,-1.649511 h 0.44648 q -0.23564,2.815332 -2.38125,2.815332 -0.93017,0 -1.55029,-0.620117 -0.60772,-0.63252 -0.64492,-1.785938 z"
                 id="path40" />
              <path
                 style="font-size:18.3444px;stroke-width:0.5"
                 d="m 172.88568,58.055627 q 0,1.056952 -0.3135,1.889975 -0.30455,0.824064 -0.87781,1.397327 -0.57327,0.573262 -1.39733,0.868851 -0.82406,0.295588 -1.87206,0.295588 -0.95842,0 -1.74666,-0.277674 -0.78824,-0.277674 -1.35254,-0.815107 -0.56431,-0.546391 -0.86885,-1.361499 -0.30455,-0.815107 -0.30455,-1.881017 v -7.192653 q 0,-0.07166 0.0358,-0.125402 0.0358,-0.05374 0.1254,-0.08062 0.0896,-0.03583 0.23289,-0.05374 0.14332,-0.02687 0.3762,-0.02687 0.21498,0 0.36725,0.02687 0.15227,0.01791 0.23289,0.05374 0.0896,0.02687 0.1254,0.08062 0.0358,0.05374 0.0358,0.125402 v 7.004551 q 0,0.80615 0.19706,1.406284 0.19706,0.600135 0.5643,1.00321 0.37621,0.394118 0.89573,0.600134 0.52847,0.197059 1.18235,0.197059 0.67179,0 1.19131,-0.197059 0.52848,-0.197059 0.88677,-0.591177 0.36724,-0.394118 0.55534,-0.976338 0.19706,-0.582219 0.19706,-1.361498 v -7.085166 q 0,-0.07166 0.0358,-0.125402 0.0358,-0.05374 0.1254,-0.08062 0.0896,-0.03583 0.23289,-0.05374 0.15227,-0.02687 0.3762,-0.02687 0.21498,0 0.35829,0.02687 0.15228,0.01791 0.23289,0.05374 0.0896,0.02687 0.1254,0.08062 0.0448,0.05374 0.0448,0.125402 z"
                 id="path41" />
              <path
                 style="font-size:22.9306px;font-family:'ilkokuma ZeD 1';-inkscape-font-specification:'ilkokuma ZeD 1, ';stroke-width:0.5"
                 d="m 173.3905,59.126897 6.00782,-4.700773 q -1.1236,-0.298097 -1.19239,-1.857378 0.71085,-2.132546 2.75167,-0.848432 0.61913,0.550334 0.61913,1.742725 1.58221,0.160514 3.96699,-0.802571 1.4217,-0.137583 0.77964,1.582212 -7.08556,4.425605 -5.70972,6.626943 2.8434,1.55928 6.94797,-2.68288 0.87137,0.458612 0.68792,0.802571 0.36689,0.687918 -3.48545,2.797533 -1.88031,0.802571 -3.8982,0.435681 -1.60514,-0.366889 -1.62808,-2.247199 -0.18344,-1.857378 4.40268,-5.411621 -0.36689,0.114653 -1.76566,0.321028 -0.64205,0.137584 -1.19239,0.09172 l -6.58108,5.342829 q -0.77964,-0.573265 -0.71085,-1.192391 z m 6.05368,-6.833318 q -0.27517,1.444627 0.89429,1.123599 0.18345,-0.412751 -0.0229,-0.687918 -0.25223,-0.710849 -0.87136,-0.435681 z"
                 id="path42" />
              <path
                 style="font-family:try1;-inkscape-font-specification:try1;stroke-width:0.5"
                 d="m 191.59138,57.917581 v -1.1049 h -3.3147 v 1.1049 z m 0,-2.2098 v -1.1049 h -2.2098 v 1.1049 z m 0,6.6294 v -3.3147 h -4.4196 v -3.3147 h 1.1049 v -2.2098 h 1.1049 v -2.2098 h 1.1049 v 2.2098 h 1.1049 v -2.2098 h -1.1049 v -1.1049 h 2.2098 v 12.1539 z"
                 id="path43" />
            </g>
            <g
               id="g26"
               transform="matrix(1.2341881,0,0,1.0489399,-41.590119,-4.5779498)"
               style="stroke-width:1.67244;stroke-dasharray:none">
              <path
                 style="fill:#e5e519;fill-opacity:1;stroke:#e5e51a;stroke-width:1.67244;stroke-dasharray:none;stroke-opacity:1"
                 d="m 138.49459,43.86446 0.065,19.371025"
                 id="path24" />
              <path
                 style="fill:#e5e519;fill-opacity:1;stroke:#e5e51a;stroke-width:1.67244;stroke-dasharray:none;stroke-opacity:1"
                 d="m 135.07211,53.033341 7.23284,10.268051"
                 id="path25" />
              <path
                 style="fill:#e5e519;fill-opacity:1;stroke:#e5e51a;stroke-width:1.67244;stroke-dasharray:none;stroke-opacity:1"
                 d="m 134.87837,63.495128 7.29742,-10.203471"
                 id="path26" />
            </g>
          </g>
        </g>
        <path
           d="m 50.343019,110.66017 v 0.23115 q -0.94333,-0.47479 -1.574299,-1.11201 -0.899599,-0.90584 -1.386882,-2.13654 -0.487283,-1.23071 -0.487283,-2.55512 0,-1.93663 0.955825,-3.52967 0.955824,-1.599292 2.492639,-2.286485 v 0.262383 q -0.768408,0.42481 -1.261938,1.161982 -0.49353,0.73717 -0.737171,1.86792 -0.243642,1.13074 -0.243642,2.36145 0,1.3369 0.206158,2.43016 0.162428,0.86212 0.393575,1.38064 0.231147,0.52476 0.618474,1.0058 0.393575,0.48104 1.024544,0.91834 z m 3.9295,-3.32977 q -0.880858,0.68095 -1.105758,0.78715 -0.33735,0.15618 -0.71843,0.15618 -0.593485,0 -0.980813,-0.40607 -0.38108,-0.40606 -0.38108,-1.06827 0,-0.41856 0.187416,-0.72468 0.256136,-0.42481 0.887105,-0.79964 0.637216,-0.37483 2.11156,-0.91209 v -0.2249 q 0,-0.85587 -0.274878,-1.17448 -0.26863,-0.31861 -0.787149,-0.31861 -0.393575,0 -0.624722,0.21241 -0.237394,0.2124 -0.237394,0.48728 l 0.01249,0.36234 q 0,0.28737 -0.149933,0.44355 -0.143686,0.15618 -0.38108,0.15618 -0.231147,0 -0.38108,-0.16243 -0.143686,-0.16242 -0.143686,-0.44355 0,-0.53726 0.549755,-0.98706 0.549755,-0.4498 1.543062,-0.4498 0.762161,0 1.249444,0.25614 0.368585,0.19366 0.543507,0.60598 0.11245,0.26863 0.11245,1.09951 v 1.94288 q 0,0.81839 0.03124,1.0058 0.03124,0.18117 0.09996,0.24365 0.07497,0.0625 0.168675,0.0625 0.09996,0 0.174922,-0.0437 0.131191,-0.0812 0.506024,-0.45605 v 0.34984 q -0.699688,0.93709 -1.336904,0.93709 -0.306114,0 -0.487283,-0.21241 -0.181169,-0.2124 -0.187416,-0.72468 z m 0,-0.40606 v -2.18028 q -0.94333,0.37483 -1.218208,0.53101 -0.49353,0.27488 -0.705935,0.57474 -0.212406,0.29987 -0.212406,0.65596 0,0.4498 0.268631,0.74967 0.26863,0.29362 0.618474,0.29362 0.474789,0 1.249444,-0.62472 z m 5.235167,-4.66043 q 1.299421,0 2.08657,0.98706 0.668452,0.84338 0.668452,1.93664 0,0.76841 -0.368586,1.55556 -0.368585,0.78715 -1.018296,1.18697 -0.643463,0.39982 -1.43686,0.39982 -1.293174,0 -2.055334,-1.03079 -0.643463,-0.86836 -0.643463,-1.94913 0,-0.78715 0.387327,-1.56181 0.393575,-0.7809 1.030791,-1.14949 0.637216,-0.37483 1.349399,-0.37483 z m -0.193664,0.40607 q -0.331103,0 -0.668452,0.19991 -0.331103,0.19367 -0.537261,0.6872 -0.206158,0.49353 -0.206158,1.26818 0,1.24944 0.49353,2.15529 0.499777,0.90585 1.311916,0.90585 0.60598,0 0.999554,-0.49978 0.393575,-0.49978 0.393575,-1.71799 0,-1.52432 -0.655958,-2.39893 -0.443552,-0.59973 -1.130746,-0.59973 z m 3.379744,0.3311 1.761715,-0.71218 h 0.237395 v 1.3369 q 0.443552,-0.75591 0.887104,-1.05577 0.4498,-0.30612 0.94333,-0.30612 0.862116,0 1.43686,0.6747 0.705936,0.82463 0.705936,2.14904 0,1.48059 -0.849622,2.44891 -0.699688,0.7934 -1.761715,0.7934 -0.462294,0 -0.799644,-0.13119 -0.249889,-0.0937 -0.562249,-0.37484 v 1.74298 q 0,0.58724 0.06872,0.74342 0.07497,0.16242 0.249889,0.25613 0.181169,0.0937 0.64971,0.0937 v 0.23115 H 62.66253 v -0.23115 h 0.156181 q 0.343597,0.006 0.587238,-0.13119 0.118697,-0.0687 0.181169,-0.2249 0.06872,-0.14993 0.06872,-0.77466 v -5.41009 q 0,-0.556 -0.04998,-0.70593 -0.04998,-0.14993 -0.162428,-0.2249 -0.106202,-0.075 -0.293619,-0.075 -0.149933,0 -0.38108,0.0875 z m 1.99911,0.99331 v 2.13655 q 0,0.69344 0.05622,0.91209 0.08746,0.36234 0.42481,0.63722 0.343597,0.27488 0.862116,0.27488 0.624722,0 1.012049,-0.48729 0.506025,-0.63721 0.506025,-1.79295 0,-1.31191 -0.574744,-2.01785 -0.399822,-0.48728 -0.949577,-0.48728 -0.299866,0 -0.593486,0.14993 -0.224899,0.11245 -0.743418,0.6747 z m 6.478363,-0.51852 q 1.005802,-1.21196 1.917896,-1.21196 0.468541,0 0.805891,0.2374 0.33735,0.23114 0.537261,0.7684 0.137438,0.37484 0.137438,1.14949 v 2.44266 q 0,0.54351 0.08746,0.73717 0.06872,0.15619 0.218653,0.24365 0.15618,0.0875 0.568497,0.0875 v 0.2249 h -2.829989 v -0.2249 h 0.118697 q 0.399822,0 0.556002,-0.1187 0.162428,-0.12494 0.2249,-0.36234 0.02499,-0.0937 0.02499,-0.58724 v -2.3427 q 0,-0.78091 -0.206158,-1.13075 -0.199911,-0.35609 -0.680947,-0.35609 -0.743419,0 -1.480591,0.81214 v 3.0174 q 0,0.58099 0.06872,0.71843 0.08746,0.18117 0.237394,0.26863 0.156181,0.0812 0.624722,0.0812 v 0.2249 h -2.829989 v -0.2249 h 0.124944 q 0.437305,0 0.587238,-0.21866 0.156181,-0.2249 0.156181,-0.84962 v -2.12405 q 0,-1.03079 -0.04998,-1.25569 -0.04373,-0.2249 -0.143686,-0.30611 -0.09371,-0.0812 -0.256136,-0.0812 -0.174922,0 -0.418563,0.0937 l -0.09371,-0.2249 1.724232,-0.69969 h 0.26863 z m 7.971449,3.85453 q -0.880857,0.68095 -1.105757,0.78715 -0.33735,0.15618 -0.71843,0.15618 -0.593486,0 -0.980813,-0.40607 -0.38108,-0.40606 -0.38108,-1.06827 0,-0.41856 0.187416,-0.72468 0.256136,-0.42481 0.887105,-0.79964 0.637216,-0.37483 2.111559,-0.91209 v -0.2249 q 0,-0.85587 -0.274877,-1.17448 -0.268631,-0.31861 -0.78715,-0.31861 -0.393574,0 -0.624721,0.21241 -0.237395,0.2124 -0.237395,0.48728 l 0.01249,0.36234 q 0,0.28737 -0.149933,0.44355 -0.143686,0.15618 -0.381081,0.15618 -0.231147,0 -0.38108,-0.16243 -0.143686,-0.16242 -0.143686,-0.44355 0,-0.53726 0.549755,-0.98706 0.549755,-0.4498 1.543063,-0.4498 0.76216,0 1.249443,0.25614 0.368586,0.19366 0.543508,0.60598 0.11245,0.26863 0.11245,1.09951 v 1.94288 q 0,0.81839 0.03124,1.0058 0.03124,0.18117 0.09996,0.24365 0.07497,0.0625 0.168674,0.0625 0.09996,0 0.174922,-0.0437 0.131192,-0.0812 0.506025,-0.45605 v 0.34984 q -0.699688,0.93709 -1.336904,0.93709 -0.306114,0 -0.487283,-0.21241 -0.18117,-0.2124 -0.187417,-0.72468 z m 0,-0.40606 v -2.18028 q -0.94333,0.37483 -1.218207,0.53101 -0.49353,0.27488 -0.705936,0.57474 -0.212405,0.29987 -0.212405,0.65596 0,0.4498 0.26863,0.74967 0.268631,0.29362 0.618475,0.29362 0.474788,0 1.249443,-0.62472 z m 4.40429,-7.652845 v 7.590365 q 0,0.53726 0.07497,0.71219 0.08121,0.17492 0.243641,0.26863 0.162428,0.0875 0.60598,0.0875 v 0.2249 h -2.805 v -0.2249 q 0.393575,0 0.537261,-0.0812 0.143686,-0.0812 0.2249,-0.26863 0.08121,-0.18741 0.08121,-0.71843 v -5.19768 q 0,-0.96832 -0.04373,-1.18697 -0.04373,-0.2249 -0.143686,-0.30612 -0.09371,-0.0812 -0.243642,-0.0812 -0.162427,0 -0.412316,0.1 l -0.106203,-0.218657 1.705491,-0.699688 z m 9.6457,6.709515 q -0.231147,1.13074 -0.905846,1.74297 -0.674699,0.60598 -1.493085,0.60598 -0.974566,0 -1.699243,-0.81839 -0.724677,-0.81838 -0.724677,-2.21151 0,-1.3494 0.799644,-2.19277 0.805891,-0.84338 1.93039,-0.84338 0.843374,0 1.386882,0.4498 0.543508,0.44355 0.543508,0.92459 0,0.23739 -0.156181,0.38733 -0.149933,0.14368 -0.42481,0.14368 -0.368586,0 -0.556003,-0.23739 -0.106202,-0.13119 -0.143686,-0.49978 -0.03124,-0.36858 -0.249888,-0.56225 -0.218653,-0.18742 -0.60598,-0.18742 -0.624722,0 -1.005802,0.4623 -0.506025,0.61223 -0.506025,1.61803 0,1.02454 0.499777,1.81169 0.506025,0.7809 1.361894,0.7809 0.612227,0 1.09951,-0.41856 0.343597,-0.28737 0.668452,-1.04329 z m 4.060694,1.34939 q -0.880858,0.68095 -1.105758,0.78715 -0.337349,0.15618 -0.71843,0.15618 -0.593485,0 -0.980813,-0.40607 -0.38108,-0.40606 -0.38108,-1.06827 0,-0.41856 0.187417,-0.72468 0.256135,-0.42481 0.887104,-0.79964 0.637216,-0.37483 2.11156,-0.91209 v -0.2249 q 0,-0.85587 -0.274878,-1.17448 -0.26863,-0.31861 -0.787149,-0.31861 -0.393575,0 -0.624722,0.21241 -0.237394,0.2124 -0.237394,0.48728 l 0.01249,0.36234 q 0,0.28737 -0.149933,0.44355 -0.143686,0.15618 -0.38108,0.15618 -0.231147,0 -0.38108,-0.16243 -0.143686,-0.16242 -0.143686,-0.44355 0,-0.53726 0.549755,-0.98706 0.549755,-0.4498 1.543062,-0.4498 0.762161,0 1.249444,0.25614 0.368585,0.19366 0.543507,0.60598 0.11245,0.26863 0.11245,1.09951 v 1.94288 q 0,0.81839 0.03124,1.0058 0.03124,0.18117 0.09996,0.24365 0.07497,0.0625 0.168675,0.0625 0.09995,0 0.174922,-0.0437 0.131191,-0.0812 0.506024,-0.45605 v 0.34984 q -0.699688,0.93709 -1.336904,0.93709 -0.306114,0 -0.487283,-0.21241 -0.181169,-0.2124 -0.187416,-0.72468 z m 0,-0.40606 v -2.18028 q -0.94333,0.37483 -1.218208,0.53101 -0.49353,0.27488 -0.705935,0.57474 -0.212406,0.29987 -0.212406,0.65596 0,0.4498 0.268631,0.74967 0.26863,0.29362 0.618474,0.29362 0.474789,0 1.249444,-0.62472 z m 4.129408,-7.652845 v 5.691215 l 1.4556,-1.32441 q 0.4623,-0.42481 0.53726,-0.53726 0.05,-0.075 0.05,-0.14993 0,-0.12495 -0.1062,-0.21241 -0.1,-0.0937 -0.33735,-0.1062 v -0.19991 h 2.48639 v 0.19991 q -0.51227,0.0125 -0.85587,0.15618 -0.33735,0.14368 -0.74342,0.51227 l -1.46809,1.35565 1.46809,1.85542 q 0.61223,0.76841 0.82464,0.97456 0.29986,0.29362 0.52476,0.38108 0.15618,0.0625 0.54351,0.0625 v 0.2249 h -2.78001 v -0.2249 q 0.23739,-0.006 0.31861,-0.0687 0.0875,-0.0687 0.0875,-0.18742 0,-0.14368 -0.24989,-0.46229 l -1.75547,-2.24275 v 1.89915 q 0,0.556 0.075,0.73092 0.0812,0.17493 0.2249,0.24989 0.14368,0.075 0.62472,0.0812 v 0.2249 h -2.911205 v -0.2249 q 0.437306,0 0.655955,-0.10621 0.13119,-0.0687 0.19991,-0.2124 0.0937,-0.20616 0.0937,-0.71218 v -5.21018 q 0,-0.99331 -0.0437,-1.21196 -0.0437,-0.2249 -0.14368,-0.30612 -0.1,-0.0875 -0.262387,-0.0875 -0.131192,0 -0.393575,0.10621 l -0.106203,-0.218657 1.699245,-0.699688 z m 7.94646,8.058905 q -0.88086,0.68095 -1.10576,0.78715 -0.33735,0.15618 -0.71843,0.15618 -0.59348,0 -0.98081,-0.40607 -0.38108,-0.40606 -0.38108,-1.06827 0,-0.41856 0.18741,-0.72468 0.25614,-0.42481 0.88711,-0.79964 0.63722,-0.37483 2.11156,-0.91209 v -0.2249 q 0,-0.85587 -0.27488,-1.17448 -0.26863,-0.31861 -0.78715,-0.31861 -0.39357,0 -0.62472,0.21241 -0.23739,0.2124 -0.23739,0.48728 l 0.0125,0.36234 q 0,0.28737 -0.14993,0.44355 -0.14369,0.15618 -0.38108,0.15618 -0.23115,0 -0.38108,-0.16243 -0.14369,-0.16242 -0.14369,-0.44355 0,-0.53726 0.54976,-0.98706 0.54975,-0.4498 1.54306,-0.4498 0.76216,0 1.24944,0.25614 0.36859,0.19366 0.54351,0.60598 0.11245,0.26863 0.11245,1.09951 v 1.94288 q 0,0.81839 0.0312,1.0058 0.0312,0.18117 0.0999,0.24365 0.075,0.0625 0.16868,0.0625 0.1,0 0.17492,-0.0437 0.13119,-0.0812 0.50602,-0.45605 v 0.34984 q -0.69969,0.93709 -1.3369,0.93709 -0.30612,0 -0.48729,-0.21241 -0.18116,-0.2124 -0.18741,-0.72468 z m 0,-0.40606 v -2.18028 q -0.94333,0.37483 -1.21821,0.53101 -0.49353,0.27488 -0.70593,0.57474 -0.21241,0.29987 -0.21241,0.65596 0,0.4498 0.26863,0.74967 0.26863,0.29362 0.61847,0.29362 0.47479,0 1.24945,-0.62472 z m 4.13565,-3.44222 q 0.62473,-0.62472 0.73718,-0.71843 0.28112,-0.2374 0.60598,-0.36859 0.32485,-0.13119 0.64346,-0.13119 0.53726,0 0.92459,0.31236 0.38732,0.31236 0.51852,0.90585 0.64346,-0.74967 1.08701,-0.98081 0.44355,-0.2374 0.9121,-0.2374 0.45604,0 0.80589,0.2374 0.35609,0.23114 0.56225,0.76216 0.13744,0.36233 0.13744,1.13699 v 2.4614 q 0,0.53726 0.0812,0.73717 0.0625,0.13744 0.23115,0.2374 0.16867,0.0937 0.54975,0.0937 v 0.2249 h -2.82374 v -0.2249 h 0.1187 q 0.36858,0 0.57474,-0.14369 0.14369,-0.1 0.20616,-0.31861 0.025,-0.1062 0.025,-0.60598 v -2.4614 q 0,-0.69969 -0.16868,-0.98706 -0.24364,-0.39982 -0.7809,-0.39982 -0.3311,0 -0.66845,0.16867 -0.3311,0.16243 -0.80589,0.61223 l -0.0125,0.0687 0.0125,0.26863 v 2.73003 q 0,0.58724 0.0625,0.73093 0.0687,0.14368 0.24989,0.24364 0.18117,0.0937 0.61847,0.0937 v 0.2249 h -2.89246 v -0.2249 q 0.47479,0 0.64971,-0.11245 0.18117,-0.11245 0.24989,-0.33735 0.0312,-0.10621 0.0312,-0.61848 v -2.4614 q 0,-0.69969 -0.20616,-1.0058 -0.27488,-0.39982 -0.76841,-0.39982 -0.33735,0 -0.66845,0.18117 -0.51852,0.27487 -0.79965,0.61847 v 3.06738 q 0,0.56225 0.075,0.73093 0.0812,0.16867 0.23115,0.25613 0.15618,0.0812 0.62472,0.0812 v 0.2249 h -2.82999 v -0.2249 q 0.39358,0 0.54976,-0.0812 0.15618,-0.0875 0.23739,-0.26863 0.0812,-0.18741 0.0812,-0.71843 v -2.18652 q 0,-0.94333 -0.0562,-1.21821 -0.0437,-0.20616 -0.13744,-0.28112 -0.0937,-0.0812 -0.25614,-0.0812 -0.17492,0 -0.41856,0.0937 l -0.0937,-0.2249 1.72423,-0.69969 h 0.26863 z m 13.2691,-1.04953 v 3.4672 q 0,0.99331 0.0437,1.21821 0.05,0.21865 0.14993,0.30611 0.1062,0.0875 0.24364,0.0875 0.19367,0 0.43731,-0.1062 l 0.0875,0.21865 -1.71174,0.70594 H 125.7032 V 107.118 q -0.73718,0.79964 -1.1245,1.0058 -0.38733,0.20616 -0.81839,0.20616 -0.48103,0 -0.83713,-0.27488 -0.34984,-0.28112 -0.48728,-0.71843 -0.13744,-0.4373 -0.13744,-1.23695 v -2.55511 q 0,-0.40607 -0.0875,-0.56225 -0.0875,-0.15618 -0.26238,-0.23739 -0.16868,-0.0875 -0.61848,-0.0812 v -0.23114 h 2.00536 v 3.82954 q 0,0.79964 0.27488,1.04953 0.28112,0.24989 0.6747,0.24989 0.26863,0 0.60598,-0.16867 0.34359,-0.16868 0.81214,-0.64347 v -3.2423 q 0,-0.48729 -0.18117,-0.65596 -0.17493,-0.17492 -0.73717,-0.18742 v -0.23114 z m 3.05488,-0.16868 v 1.28693 q 0.71843,-1.28693 1.47435,-1.28693 0.34359,0 0.56849,0.21241 0.2249,0.20615 0.2249,0.48103 0,0.24364 -0.16242,0.41232 -0.16243,0.16867 -0.38733,0.16867 -0.21865,0 -0.49353,-0.2124 -0.26863,-0.21865 -0.39982,-0.21865 -0.11245,0 -0.24364,0.12494 -0.28113,0.25614 -0.581,0.84337 v 2.74253 q 0,0.47479 0.1187,0.71843 0.0812,0.16868 0.28737,0.28113 0.20616,0.11245 0.59349,0.11245 v 0.2249 h -2.92995 v -0.2249 q 0.43731,0 0.64971,-0.13744 0.15618,-0.1 0.21866,-0.31861 0.0312,-0.1062 0.0312,-0.60598 v -2.21776 q 0,-0.99956 -0.0437,-1.18697 -0.0375,-0.19367 -0.14993,-0.28113 -0.1062,-0.0875 -0.26863,-0.0875 -0.19366,0 -0.43731,0.0937 l -0.0625,-0.2249 1.73048,-0.69969 z m 4.04196,-2.992415 q 0.26238,0 0.44355,0.187416 0.18742,0.181169 0.18742,0.443552 0,0.262387 -0.18742,0.449797 -0.18117,0.18742 -0.44355,0.18742 -0.26239,0 -0.4498,-0.18742 -0.18742,-0.18741 -0.18742,-0.449797 0,-0.262383 0.18117,-0.443552 0.18742,-0.187416 0.45605,-0.187416 z m 0.51852,2.992415 v 4.59795 q 0,0.53726 0.075,0.71843 0.0812,0.17493 0.23115,0.26239 0.15618,0.0875 0.56225,0.0875 v 0.2249 h -2.78001 v -0.2249 q 0.41856,0 0.56225,-0.0812 0.14368,-0.0812 0.2249,-0.26863 0.0875,-0.18741 0.0875,-0.71843 v -2.20526 q 0,-0.93084 -0.0562,-1.20572 -0.0437,-0.19991 -0.13744,-0.27487 -0.0937,-0.0812 -0.25613,-0.0812 -0.17492,0 -0.42481,0.0937 l -0.0875,-0.2249 1.72423,-0.69969 z m 1.46809,-2.730032 v -0.262383 q 0.94958,0.468541 1.58055,1.105755 0.89335,0.9121 1.38063,2.1428 0.48728,1.22445 0.48728,2.55511 0,1.93664 -0.95582,3.52968 -0.94958,1.59928 -2.49264,2.28648 v -0.23115 q 0.76841,-0.43106 1.26194,-1.16823 0.49977,-0.73092 0.73717,-1.86167 0.24364,-1.13699 0.24364,-2.36769 0,-1.33066 -0.20616,-2.43017 -0.15618,-0.86212 -0.39357,-1.38064 -0.23115,-0.51852 -0.61848,-0.99955 -0.38732,-0.481037 -1.02454,-0.918342 z"
           id="text33"
           style="font-size:12.7943px;font-family:'Times New Roman';-inkscape-font-specification:'Times New Roman, ';fill:#e5e519;stroke:#e5e51a;stroke-width:0.467"
           transform="scale(1.0783173,0.92737083)"
           aria-label="(aopnal cakamuri)" />
      </g>
    </g>
  </g>
</svg>
