<?xml version="1.0" encoding="UTF-8" standalone="no"?>
<!-- Created with Inkscape (http://www.inkscape.org/) -->

<svg
   width="297.12708mm"
   height="210.07916mm"
   viewBox="0 0 297.12708 210.07916"
   version="1.1"
   id="svg1"
   xml:space="preserve"
   xmlns="http://www.w3.org/2000/svg"
   xmlns:svg="http://www.w3.org/2000/svg"><defs
     id="defs1" /><g
     id="layer1"
     transform="translate(28.97187,-5.8208356)"><path
       style="opacity:1;fill:#e9f218;stroke:#000000;stroke-width:0.1;stroke-linecap:round;stroke-linejoin:round;stroke-opacity:0.99187;fill-opacity:1"
       d="m 34.461983,191.09531 0.06615,4.7625 32.742184,-0.13229 -0.198437,-4.82864 z"
       id="NM" /><path
       style="opacity:1;fill:#e9f218;fill-opacity:1;stroke:#000000;stroke-width:0.1;stroke-linecap:round;stroke-linejoin:round;stroke-opacity:0.99187"
       d="m 147.2737,96.93672 c -2.1918,4.11397 -0.83189,6.57264 1.19062,9.02891 1.08882,1.32233 12.48841,1.34672 14.05599,-0.26459 2.3475,-2.41297 1.82073,-4.82438 0.0992,-8.268225 -1.61268,-3.226149 -13.15405,-4.610069 -15.34584,-0.496095 z"
       id="muk" /><path
       style="opacity:1;fill:#e9f218;fill-opacity:1;stroke:#000000;stroke-width:0.1;stroke-linecap:round;stroke-linejoin:round;stroke-opacity:0.99187"
       d="m 153.52448,87.246355 c -0.0405,-5.29e-4 -0.0835,0.0109 -0.12402,0.0041 -0.002,-2.65e-4 -0.002,-0.0035 -0.004,-0.0041 -0.008,-0.0026 -0.0169,-0.0016 -0.0248,-0.0041 -0.003,-0.0011 -0.005,-0.0037 -0.008,-0.0041 -0.0211,-0.003 -0.0748,-0.0029 -0.0951,0 -0.0263,0.0038 -0.0688,0.01725 -0.091,0.03307 -0.005,0.0034 -0.007,0.0098 -0.0124,0.01241 -0.004,0.0019 -0.009,-0.0013 -0.0124,0 -0.008,0.0028 -0.0133,0.0091 -0.0207,0.01241 -0.005,0.0024 -0.0113,0.0019 -0.0165,0.0041 -0.013,0.0058 -0.0254,0.01281 -0.0372,0.02066 -0.003,0.0021 -0.005,0.0067 -0.008,0.0083 -0.0393,0.01744 -0.0165,0.0016 -0.0455,0.01241 -0.018,0.0067 -0.0359,0.01355 -0.0538,0.02066 -0.0371,0.01482 -0.0551,0.03709 -0.0868,0.06201 -0.005,0.0038 -0.0122,0.0039 -0.0165,0.0083 -0.0397,0.03966 -0.0702,0.095 -0.0951,0.144695 -0.0146,0.02926 -0.009,0.0303 -0.0289,0.05788 -0.0243,0.03442 -0.0534,0.06653 -0.0744,0.103351 -0.0922,0.161375 -0.0149,0.02635 -0.062,0.132292 -0.0156,0.0351 -0.0337,0.06141 -0.0455,0.09922 -0.003,0.0087 -0.007,0.03783 -0.008,0.04548 -0.009,0.04107 -0.0218,0.08189 -0.0248,0.124024 -0.005,0.06989 0.003,0.140827 0,0.210838 -0.003,0.05556 -0.0155,0.107628 -0.0289,0.161232 -0.001,0.0042 -0.002,0.0089 -0.004,0.01241 -0.002,0.0024 -0.008,0.0011 -0.008,0.0041 0,0.01572 0.009,0.03023 0.0124,0.04547 0.009,0.06074 0.0185,0.121195 0.0276,0.181831 0.003,0.02223 0.003,0.04117 0.0124,0.06201 0.003,0.0063 0.01,0.01018 0.0124,0.01654 0.0129,0.03086 0.003,0.03943 0.0207,0.07028 0.005,0.0085 0.0156,0.01232 0.0207,0.02067 0.0891,0.148574 -0.0341,-0.03912 0.0248,0.07028 0.005,0.0095 0.0154,0.01542 0.0207,0.02481 0.0144,0.02561 0.021,0.05607 0.0331,0.08268 0.009,0.01889 0.0224,0.03175 0.0331,0.04961 0.002,0.0037 0.002,0.0085 0.004,0.0124 0.006,0.01269 0.0146,0.02438 0.0207,0.03721 0.006,0.01341 0.0106,0.02774 0.0165,0.04134 0.005,0.01713 0.0176,0.0298 0.0248,0.04547 0.0214,0.04639 0.02,0.06137 0.0579,0.09922 0.007,0.0069 0.0126,0.01526 0.0207,0.02067 0.009,0.0058 0.0198,0.0072 0.0289,0.0124 0.0103,0.0059 0.0187,0.01479 0.0289,0.02067 0.009,0.0052 0.0196,0.0077 0.0289,0.0124 0.01,0.005 0.0188,0.01188 0.0289,0.01654 0.0619,0.02857 0.16613,0.03891 0.23564,0.04961 0.0203,0.0031 0.0337,0.01209 0.0538,0.02067 0.035,0.01499 0.074,0.03037 0.11162,0.03721 0.0136,0.0025 0.0276,0 0.0413,0 0.025,0 0.0538,0.0035 0.0786,0 0.0314,-0.0045 0.0665,-0.02353 0.0951,-0.03307 0.0108,-0.0036 0.0223,-0.0047 0.0331,-0.0083 0.024,-0.008 0.0466,-0.02004 0.0703,-0.02894 0.0175,-0.0066 0.0365,-0.0093 0.0538,-0.01654 0.007,-0.0031 0.0137,-0.0084 0.0207,-0.0124 0.016,-0.0091 0.0334,-0.01333 0.0496,-0.02067 0.0101,-0.0046 0.0188,-0.01194 0.0289,-0.01654 0.005,-0.0024 0.0113,-0.0019 0.0165,-0.0041 0.005,-0.002 0.008,-0.006 0.0124,-0.0083 0.0127,-0.0064 0.0246,-0.0082 0.0372,-0.0124 0.0104,-0.0035 0.0633,-0.04303 0.0661,-0.04548 0.008,-0.007 0.0136,-0.01666 0.0207,-0.0248 0.0191,-0.02217 0.0386,-0.0441 0.0579,-0.06615 0.1843,-0.210637 0.0282,-0.02212 0.11575,-0.144694 0.009,-0.01323 0.0331,-0.022 0.0331,-0.03721 0.007,-0.02668 0.0385,-0.02763 0.0537,-0.04544 0.004,-0.0047 0.005,-0.01161 0.008,-0.01654 8.2e-4,-0.0011 0.004,0.0012 0.004,0 0.002,-0.0041 5.2e-4,-0.01706 0.004,-0.02067 0.003,-0.0033 0.0177,-0.0053 0.0207,-0.0083 0.003,-0.0031 -0.002,-0.01651 0,-0.02067 0.009,-0.02178 0.0271,-0.04292 0.0372,-0.06201 0.003,-0.0061 0.0266,-0.06217 0.0289,-0.07028 7.6e-4,-0.0027 -0.001,-0.0059 0,-0.0083 0.003,-0.005 0.01,-0.0073 0.0124,-0.0124 0.003,-0.0049 0.002,-0.01126 0.004,-0.01654 7.2e-4,-0.0018 0.003,-0.0023 0.004,-0.0041 0.007,-0.01594 0.009,-0.03541 0.0165,-0.04961 0.004,-0.0078 9.9e-4,-0.02108 0.004,-0.02894 0.002,-0.0046 0.007,-0.0078 0.008,-0.0124 0.004,-0.0094 0.006,-0.0191 0.008,-0.02894 0.002,-0.01238 0.003,-0.07697 0,-0.09095 -0.007,-0.03514 -2.1e-4,0.01178 -0.0124,-0.02481 -0.005,-0.01447 0.002,-0.0395 0.004,-0.05374 0.002,-0.0127 0.01,-0.02462 0.0124,-0.03721 0.003,-0.01169 0.004,-0.02936 0.008,-0.04134 0.0207,-0.05512 -0.007,0.03445 0.0207,-0.04134 0.002,-0.0066 0.002,-0.01394 0.004,-0.02067 0.008,-0.02603 0.008,-0.01341 0.0124,-0.03721 0.006,-0.03575 -0.003,-0.07547 0,-0.111621 2.2e-4,-0.0031 0.0107,-0.07519 0.0124,-0.07855 0.002,-0.0035 0.007,-0.0045 0.008,-0.0083 0.007,-0.03258 -0.004,-0.06717 -0.004,-0.09922 0.0153,-0.02612 0.008,-0.06639 0.0146,-0.09501 0.0145,-0.06545 0.0219,-0.111147 0.0124,-0.177767 -0.002,-0.01483 0.002,-0.03071 0,-0.04548 -0.003,-0.01917 -0.0129,-0.03967 -0.0165,-0.05788 -0.002,-0.0086 0.004,-0.0278 0,-0.03721 -0.007,-0.0167 -0.0184,-0.03364 -0.0248,-0.04961 -0.004,-0.01055 -0.002,-0.02333 -0.008,-0.03307 -0.002,-0.0026 -0.006,-0.0017 -0.008,-0.0041 -0.003,-0.0041 -0.007,-0.02608 -0.008,-0.02894 -0.002,-0.0035 -0.007,-0.0046 -0.008,-0.0083 -0.002,-0.0065 0.002,-0.01413 0,-0.02067 -0.006,-0.01663 -0.0246,-0.02245 -0.0289,-0.02894 -0.002,-0.0023 0.002,-0.006 0,-0.0083 -0.002,-0.0026 -0.007,-0.0016 -0.008,-0.0041 -0.002,-0.0023 0.002,-0.006 0,-0.0083 -0.002,-0.0027 -0.0178,-0.0137 -0.0207,-0.01654 -0.003,-0.0031 -0.006,-0.0142 -0.008,-0.01654 -0.004,-0.0035 -0.009,-0.0048 -0.0124,-0.0083 -0.003,-0.0025 -0.004,-0.01082 -0.008,-0.0124 -0.003,-8.71e-4 -0.006,10e-4 -0.008,0 -0.0101,-0.004 -0.0183,-0.01298 -0.0289,-0.01654 -10e-4,-4.36e-4 -0.003,0 -0.004,0 -0.004,-0.0014 -0.009,-0.0022 -0.0124,-0.0041 -0.005,-0.0025 -0.007,-0.0099 -0.0124,-0.0124 -0.005,-0.0025 -0.011,0 -0.0165,0 0.003,-0.03694 -0.0347,-0.01572 -0.0479,-0.0289 -0.009,-0.0086 0.0131,3.34e-4 -0.004,-0.0083 -0.001,-6.16e-4 -0.003,9.75e-4 -0.004,0 -0.004,-0.0042 0.005,-0.0081 -0.004,-0.0124 -0.006,-0.0029 -0.0153,-0.0038 -0.0207,-0.0083 -0.006,-0.005 -0.01,-0.01305 -0.0165,-0.01654 -0.005,-0.0025 -0.0111,7.8e-4 -0.0165,0 -0.0128,-0.0018 -0.0268,-0.0082 -0.0372,-0.0124 -0.007,-0.0026 -0.0157,8.34e-4 -0.0207,-0.0041 -9.8e-4,-9.75e-4 9.7e-4,-0.0032 0,-0.0041 -0.003,-0.0029 -0.008,0.001 -0.0124,0 -0.0193,-0.0048 0.001,-0.0021 -0.0124,-0.0124 -0.009,-0.0071 -0.023,-0.0063 -0.0331,-0.0124 -0.001,-7.09e-4 0,-0.0028 0,-0.0041 -0.003,-0.0014 -0.005,-0.0035 -0.008,-0.0041 -0.0202,-0.004 -0.0413,-0.0048 -0.062,-0.0083 -0.005,-8.66e-4 -0.0116,0.0016 -0.0165,0 -0.0195,-0.0065 -0.0418,-0.01731 -0.062,-0.02067 -0.0298,-0.005 -0.0605,-0.0041 -0.0909,-0.0041 -0.0349,0 -0.0645,0.0054 -0.0992,0.0083 -0.01,8.01e-4 -0.02,-0.0036 -0.0289,0 -0.004,0.0014 -0.005,0.0061 -0.008,0.0083 -0.004,0.0025 -0.0166,-0.001 -0.0207,0 -0.003,7.48e-4 -0.005,0.0035 -0.008,0.0041 -0.017,0.0034 -0.0369,-0.0042 -0.0537,0 -0.0186,0.0046 -0.0358,0.02269 -0.0496,0.03307 z"
       id="didimdadiya" /><path
       style="opacity:1;fill:#e9f218;fill-opacity:1;stroke:#000000;stroke-width:0.1;stroke-linecap:round;stroke-linejoin:round;stroke-opacity:0.99187"
       d="m 161.23884,75.566906 c -0.0421,0.01289 -0.0819,0.03334 -0.12278,0.04969 -0.007,0.003 -0.0206,0.007 -0.0292,0.0088 -0.002,2.65e-4 -0.004,-7.94e-4 -0.006,0 -0.0148,0.0065 -0.0289,0.01437 -0.0438,0.02045 -0.11924,0.04858 0.009,-0.0049 -0.0497,0.01461 -0.003,0.0011 -0.004,0.007 -0.006,0.0088 -7.9e-4,7.94e-4 -0.002,-2.64e-4 -0.003,0 -0.0108,0.0036 -0.022,0.0064 -0.0322,0.0117 -0.0125,0.0065 -0.0233,0.01579 -0.0351,0.02339 -0.008,0.0049 -0.0108,0.003 -0.0205,0.0088 -0.005,0.0032 -0.009,0.0084 -0.0146,0.01169 -0.003,0.0016 -0.006,0.0013 -0.009,0.0029 -0.01,0.0062 -0.032,0.02159 -0.0409,0.02923 -0.004,0.0036 -0.007,0.0084 -0.0117,0.0117 -0.006,0.0046 -0.0141,0.0071 -0.0205,0.01169 -0.004,0.0033 -0.007,0.0085 -0.0117,0.0117 -0.002,0.0019 -0.006,0.0013 -0.009,0.0029 -0.0154,0.01029 -0.0272,0.02858 -0.0409,0.04093 -0.0174,0.01569 -0.02,0.01519 -0.038,0.03216 -0.11457,0.108201 0.0291,-0.02622 -0.0526,0.05554 -0.009,0.0093 -0.0203,0.01672 -0.0292,0.0263 -0.005,0.0051 -0.006,0.01281 -0.0117,0.01754 -0.006,0.0053 -0.0146,0.0064 -0.0205,0.0117 -0.0105,0.01476 -0.0119,0.01902 -0.0234,0.02923 -0.0247,0.02196 -0.0502,0.03994 -0.0731,0.06431 -0.0184,0.01961 -0.0349,0.04205 -0.0497,0.06431 -0.003,0.0047 -0.005,0.01061 -0.009,0.01463 -0.003,0.0031 -0.008,0.0032 -0.0117,0.0058 -0.008,0.0062 -0.0155,0.01373 -0.0234,0.02045 -0.0224,0.01921 0.009,-0.0035 -0.0234,0.03216 -0.005,0.0052 -0.0128,0.0065 -0.0175,0.0117 -0.005,0.0058 -0.007,0.01437 -0.0117,0.02045 -0.008,0.0096 -0.0185,0.01667 -0.0263,0.0263 -0.0605,0.07477 0.005,0.0021 -0.038,0.05846 -0.007,0.0093 -0.0161,0.01709 -0.0234,0.0263 -0.004,0.0045 -0.005,0.01061 -0.009,0.0146 -0.005,0.005 -0.0124,0.0069 -0.0175,0.0117 -0.0142,0.01315 -0.028,0.02726 -0.038,0.04385 -0.005,0.0082 -0.007,0.01812 -0.0117,0.0263 -0.003,0.0047 -0.008,0.0072 -0.0117,0.01169 -0.0125,0.01701 -0.0238,0.03484 -0.0351,0.05262 -0.0287,0.04516 -0.0371,0.112154 -0.0438,0.1637 -0.002,0.01164 -2.6e-4,0.02363 -0.003,0.03508 -0.001,0.0051 -0.005,0.0095 -0.006,0.01461 -0.002,0.01251 -0.007,0.04924 -0.003,0.06431 10e-4,0.0042 0.004,0.0076 0.006,0.01169 0.002,0.0046 0.002,0.0099 0.003,0.01461 0.004,0.01323 0.0107,0.02887 0.0175,0.04093 0.0108,0.01887 0.001,-0.0099 0.0117,0.01463 0.005,0.01077 0.005,0.01884 0.0117,0.02923 0.008,0.01201 0.0178,0.01794 0.0263,0.02923 0.002,0.01887 -9.4e-4,0.04506 0.004,0.06437 9.2e-4,0.0034 0.005,0.0054 0.006,0.0088 0.003,0.01131 2.2e-4,0.02673 0.006,0.038 0.005,0.01052 0.011,0.0194 0.0175,0.02923 0.005,0.0073 0.002,0.0078 0.006,0.01754 0.005,0.01224 0.0121,0.02321 0.0175,0.03508 0.009,0.01872 0.0104,0.04032 0.0205,0.05846 0.002,0.0036 0.007,0.0053 0.009,0.0088 0.005,0.0081 0.007,0.01817 0.0117,0.02631 0.008,0.01239 0.018,0.02306 0.0263,0.03508 0.0236,0.03407 -0.006,-0.0061 0.0146,0.03216 0.001,0.0023 0.0291,0.05054 0.0351,0.05846 0.0208,0.02769 0.0487,0.04924 0.0702,0.076 0.005,0.0061 0.008,0.01364 0.0117,0.02046 0.007,0.0058 0.0144,0.01089 0.0205,0.01754 0.008,0.0084 0.01,0.02082 0.0175,0.02923 0.013,0.0143 0.0329,0.03002 0.0468,0.04385 0.0149,0.01494 -0.0122,-0.0041 0.009,0.01169 0.0104,0.0078 0.0238,0.009 0.0351,0.01462 0.0238,0.02427 0.037,0.04094 0.0666,0.05843 0.0329,0.01944 0.0226,0.0043 0.0526,0.02046 0.005,0.003 0.009,0.0091 0.0146,0.01169 0.0191,0.0088 0.0415,0.0077 0.0614,0.01462 0.0103,0.0036 0.0195,0.0097 0.0292,0.01462 0.0117,0.0039 0.0233,0.0082 0.0351,0.01169 0.0916,0.02749 -0.0562,-0.01844 0.0526,0.0088 0.014,0.0035 0.0269,0.01096 0.0409,0.01462 0.009,0.0022 0.0176,0.0015 0.0263,0.0029 0.0803,0.01338 -0.0505,-0.003 0.0731,0.01462 0.0778,0.01112 -0.009,-0.0048 0.0731,0.0029 0.0187,0.0017 0.037,0.0063 0.0555,0.0088 0.0359,0.0048 0.0721,0.0029 0.10816,0.0029 0.0224,0 0.0449,0.0021 0.0672,0 0.009,-8.63e-4 0.0172,-0.007 0.0263,-0.0088 0.0398,-0.008 0.0805,-0.0052 0.11985,-0.01754 0.0519,-0.01631 0.0997,-0.03917 0.14909,-0.06139 0.041,-0.01845 0.0979,-0.04129 0.13739,-0.06431 0.0262,-0.01525 0.05,-0.03412 0.076,-0.04969 0.0879,-0.05274 -0.008,0.01317 0.0877,-0.04093 0.054,-0.03036 0.11811,-0.06632 0.16078,-0.114007 0.0266,-0.02977 0.0384,-0.06305 0.0526,-0.09939 2.8e-4,-7.2e-4 0.0217,-0.05085 0.0234,-0.05846 0.005,-0.02472 0.002,-0.02731 0.003,-0.04969 0.002,-0.0273 0.003,-0.05797 0.009,-0.08478 0.003,-0.01481 0.008,-0.02917 0.0117,-0.04385 0.006,-0.02317 0.008,-0.04731 0.0146,-0.07016 0.006,-0.02155 0.0146,-0.04183 0.0146,-0.06431 -5e-5,-0.0097 -0.001,-0.01952 -1.5e-4,-0.02921 0.007,-0.06608 0.008,-0.04453 0.0175,-0.102314 0.008,-0.04787 -5.3e-4,-0.01056 0.003,-0.05554 3.1e-4,-0.004 0.003,-0.0077 0.003,-0.01169 0.003,-0.0393 0,-0.08045 0,-0.119853 0,-0.06529 0,-0.130573 0,-0.195859 0,-0.03603 -8.7e-4,0.01369 0.006,-0.04677 0.003,-0.02506 0.002,-0.05357 0,-0.07893 0.008,-0.01272 -0.005,-0.02132 -0.006,-0.03216 -0.002,-0.02316 -0.002,-0.04691 -0.003,-0.07016 -0.002,-0.02656 -0.006,-0.0524 -0.009,-0.07893 -0.004,-0.03942 0.002,-0.07794 0.006,-0.116931 6.8e-4,-0.0078 -6.4e-4,-0.01562 0,-0.02339 0.001,-0.01568 0.009,-0.03066 0.009,-0.04677 -0.005,-0.05572 -0.007,-0.111927 -0.0177,-0.16662 -0.003,-0.01619 9e-4,-0.03396 -0.006,-0.04969 -0.0107,-0.02506 -0.0247,-0.03348 -0.0438,-0.05262 -0.003,-0.0029 -0.005,-0.0067 -0.009,-0.0088 -0.003,-0.002 -0.008,-5.12e-4 -0.0117,-0.0029 -0.0151,0.001 -0.008,-0.0151 -0.0146,-0.02046 -0.004,-0.0036 -0.01,-0.0055 -0.0146,-0.0088 -0.009,-0.0065 -0.0169,-0.01458 -0.0263,-0.02046 -0.0183,-0.01145 -0.0379,-0.01138 -0.0585,-0.01754 -0.0135,-0.0041 -0.019,-0.01038 -0.0322,-0.01169 -0.0115,-0.0011 -0.019,-3.61e-4 -0.0292,-0.0029 -0.009,-0.0022 -0.0172,-0.0071 -0.0263,-0.0088 -0.008,-0.0014 -0.0158,-0.001 -0.0234,-0.0029 -0.012,-0.003 -0.023,-0.0093 -0.0351,-0.01169 -0.0231,-0.0045 -0.0467,-0.0066 -0.0702,-0.0088 -0.01,-8.95e-4 -0.0337,7.83e-4 -0.0438,0 -0.006,-4.55e-4 -0.0116,-0.0025 -0.0175,-0.0029 -0.008,-5.56e-4 -0.0157,0.001 -0.0234,0 -0.076,-0.01013 0.034,-0.0025 -0.0409,-0.0088 -0.0242,-0.002 -0.0489,0.0016 -0.0731,0 -0.0217,-0.0014 -0.0423,-0.0049 -0.0643,-0.0029 -0.0187,0.0017 -0.0369,0.0072 -0.0555,0.0088 -0.0289,0.0024 -0.0851,0.0069 -0.11693,0.0029 -0.0172,-0.0021 -0.0258,-0.01135 -0.0439,-0.0088 -0.0221,0.0032 -0.0328,0.01071 -0.0497,0.02339 -0.002,0.0063 -0.008,6.95e-4 -0.0117,0.0029 -0.002,0.0012 -0.001,0.0043 -0.003,0.0058 -6.2e-4,6.25e-4 -0.012,0.0044 -0.0117,0.0058 0.002,0.0094 0.0177,0.01881 0.0117,0.02631 -0.003,0.0037 -0.0292,-0.01983 -0.0292,-0.0058 0,9.75e-4 0.002,-6.89e-4 0.003,0 6.9e-4,6.89e-4 -6.9e-4,0.0022 0,0.0029 0.005,0.0048 0.0243,0.0029 0.0263,0.0029 z"
       id="su" /><path
       style="opacity:1;fill:#e9f218;fill-opacity:1;stroke:#000000;stroke-width:0.1;stroke-linecap:round;stroke-linejoin:round;stroke-opacity:0.99187"
       d="m 142.54166,135.92931 c -0.21827,0.0546 -0.0716,-0.005 -0.23386,0.11693 -0.004,0.0671 -0.0397,0.014 -0.0585,0.0234 -0.0316,0.0158 5.3e-4,0.005 -0.0117,0.0234 -0.006,0.009 -0.0156,0.0156 -0.0234,0.0234 -0.0273,0.0429 -0.0537,0.0863 -0.0819,0.12862 -0.055,0.0825 -0.12483,0.14959 -0.17539,0.23386 -0.0222,0.037 -0.0197,-0.0208 -0.0468,0.0468 -0.003,0.007 0.002,0.0157 0,0.0234 -0.003,0.0169 -0.02,0.0415 -0.0234,0.0585 -0.014,0.0699 0.005,0.15425 0.0117,0.22216 0.002,0.0194 -0.004,0.0395 0,0.0585 0.004,0.017 0.02,0.0297 0.0234,0.0468 0.012,0.06 -0.012,0.12713 0,0.18709 0.0152,0.0759 0.0516,0.14799 0.0702,0.22217 0.009,0.035 0.0483,0.0632 0.0585,0.0935 0.002,0.007 0,0.0156 0,0.0234 0.004,0.0195 0.004,0.0402 0.0117,0.0585 0.0425,0.0991 0.008,-0.0619 0.0351,0.0585 0.003,0.0114 0.0191,0.14122 0.0234,0.15201 0.004,0.0102 0.0156,0.0156 0.0234,0.0234 0.008,0.0156 0.0172,0.0305 0.0234,0.0468 0.008,0.0222 0.001,0.049 0.0117,0.0702 0.005,0.01 0.0173,0.0142 0.0234,0.0234 0.01,0.0145 0.0122,0.0334 0.0234,0.0468 0.009,0.0108 0.0251,0.0134 0.0351,0.0234 0.01,0.01 0.0117,0.0273 0.0234,0.0351 0.0134,0.009 0.0324,0.005 0.0468,0.0117 0.0174,0.009 0.0301,0.0251 0.0468,0.0351 0.0797,0.0478 0.0572,0.0252 0.14032,0.0585 0.0779,0.0312 0.0312,0.0312 0.14032,0.0702 0.0223,0.008 0.0472,0.006 0.0702,0.0117 0.0425,0.0106 0.10121,0.0337 0.14031,0.0468 0.0416,0.0139 0.077,0.0435 0.11693,0.0585 0.0457,0.0171 0.348,0.0166 0.39756,0.0117 0.0461,-0.005 0.0275,-0.018 0.0702,-0.0351 0.007,-0.003 0.016,0.002 0.0234,0 0.0195,-0.006 0.0267,-0.036 0.0351,-0.0468 0.0254,-0.0327 0.0526,-0.0642 0.0819,-0.0935 0.0293,-0.0293 0.0606,-0.0567 0.0935,-0.0819 0.31835,-0.21224 -0.0871,0.0749 0.17539,-0.16371 0.0155,-0.0141 0.0405,-0.0126 0.0585,-0.0234 0.002,-0.001 0.0556,-0.0906 0.0585,-0.0935 0.01,-0.01 0.0288,-0.0108 0.0351,-0.0234 0.0106,-0.0212 0.007,-0.047 0.0117,-0.0702 -0.0127,-0.0337 0.0279,-0.0369 0.0351,-0.0585 0.005,-0.0148 -0.002,-0.0313 0,-0.0468 0.002,-0.0122 0.009,-0.023 0.0117,-0.0351 0.0168,-0.0838 -0.003,-0.18648 -0.0117,-0.26893 -0.005,-0.0494 -0.0281,-0.0917 -0.0351,-0.14032 -0.002,-0.0116 0.003,-0.0237 0,-0.0351 -0.004,-0.016 -0.0266,-0.0209 -0.0351,-0.0351 -0.006,-0.0106 -0.005,-0.0245 -0.0117,-0.0351 -0.0476,-0.0793 2.6e-4,0.0554 -0.0468,-0.0702 -0.01,-0.0266 -0.0194,-0.0538 -0.0234,-0.0819 -0.002,-0.0154 0.006,-0.0324 0,-0.0468 -0.007,-0.0152 -0.0252,-0.0219 -0.0351,-0.0351 -0.0142,-0.019 -0.004,-0.0477 -0.0117,-0.0702 -0.007,-0.0223 -0.0399,-0.0659 -0.0468,-0.0819 -0.0124,-0.0289 -7.9e-4,-0.0641 -0.0117,-0.0935 -0.004,-0.0103 -0.0173,-0.0142 -0.0234,-0.0234 -0.011,-0.0165 -0.005,-0.0396 -0.0117,-0.0585 -0.004,-0.0133 -0.019,-0.0217 -0.0234,-0.0351 -0.006,-0.0189 -0.006,-0.0394 -0.0117,-0.0585 -0.007,-0.0242 -0.0302,-0.0455 -0.0351,-0.0702 -0.002,-0.0115 0.004,-0.0242 0,-0.0351 -0.004,-0.0102 -0.0168,-0.0146 -0.0234,-0.0234 -0.02,-0.0267 -0.0234,-0.0702 -0.0468,-0.0935 -0.0161,-0.0161 -0.0396,-0.0225 -0.0585,-0.0351 -0.0253,-0.0169 -0.0443,-0.0423 -0.0702,-0.0585 -0.0862,-0.0538 -0.19366,-0.072 -0.29232,-0.0818 -0.053,-0.005 -0.11148,0.0104 -0.1637,0 -0.0628,-0.0125 -0.12339,-0.0397 -0.18709,-0.0468 -0.10162,-0.0113 -0.21486,-0.003 -0.31571,0.0117 z"
       id="prens" /><path
       style="opacity:1;fill:#e9f218;fill-opacity:1;stroke:#000000;stroke-width:0.1;stroke-linecap:round;stroke-linejoin:round;stroke-opacity:0.99187"
       d="m 81.3169,45.85781 c 0.07795,0.07795 0.155905,0.311814 0.23386,0.23386 0.07795,-0.07795 -0.311814,-0.311814 -0.23386,-0.23386 0.588105,0.588108 0.282673,0.251153 0.654809,0.561266 0.05082,0.04235 0.08528,0.103627 0.140317,0.140316 0.04102,0.02735 0.102441,0.01521 0.140316,0.04677 0.156456,0.02766 0.10759,0.201137 0.18709,0.280633 0.06825,0.06826 0.143533,0.04999 0.187086,0.09354 0.02204,0.02204 -0.02204,0.0715 0,0.09354 0.01103,0.01103 0.03118,0 0.04677,0 0.01558,0.04677 0.02471,0.09622 0.04677,0.140317 0.04663,0.09328 0.179432,0.119054 0.233859,0.187089 0.121378,0.151723 0.143002,0.423635 0.280633,0.561266 0.03975,0.03975 0.10659,0.04858 0.140317,0.09355 0.01871,0.02495 -0.0099,0.06396 0,0.09354 0.007,0.02093 0.03858,0.0263 0.04677,0.04677 0.06196,0.154897 0.105024,0.355679 0.140316,0.514493 0.02392,0.107616 0.02003,0.220453 0.04677,0.327406 0.0053,0.02138 0.0398,0.02585 0.04677,0.04677 0.02514,0.07542 0.02164,0.158443 0.04677,0.233863 0.02204,0.06614 0.0715,0.120941 0.09354,0.187086 0.0099,0.02958 -0.0099,0.06396 0,0.09355 0.007,0.0209 0.0398,0.02585 0.04677,0.04677 0.02596,0.07784 0.03416,0.429091 0,0.514495 -0.03118,0.06236 -0.06236,0.124725 -0.09355,0.187087 -0.01558,0 -0.03575,-0.01103 -0.04677,0 -0.07722,0.07722 -0.03941,0.273267 -0.09355,0.327406 -0.01103,0.01103 -0.03283,-0.007 -0.04677,0 -0.0546,0.0273 -0.08384,0.117727 -0.140316,0.140317 -0.03096,0.01238 -0.280715,0.02341 -0.327406,0.04677 -0.03944,0.01971 -0.0541,0.07382 -0.09354,0.09354 -0.05578,0.02789 -0.126587,-0.01513 -0.187089,0 -0.09919,0.02479 -0.112572,0.09064 -0.18709,0.140317 -0.344641,0.229761 -0.136935,0.511296 -0.04677,0.841899 0.0209,0.0767 0.01122,0.162755 0.04677,0.233859 0.02445,0.0489 0.1406,0.202867 0.18709,0.233863 0.05801,0.03867 0.137787,0.04424 0.187089,0.09354 0.239782,0.0263 0.03438,0.201751 0.09354,0.280633 0.03373,0.04497 0.100568,0.0538 0.140316,0.09354 0.02466,0.02466 0.01889,0.07263 0.04677,0.09355 0.03944,0.02958 0.09622,0.02471 0.140317,0.04677 0.141727,0.07086 0.222618,0.251624 0.374176,0.327403 0.02789,0.01394 0.0676,-0.0173 0.09354,0 0.02901,0.01934 0.025,0.06632 0.04677,0.09355 0.04132,0.05165 0.099,0.08866 0.140316,0.140317 0.02178,0.02722 0.02212,0.06889 0.04677,0.09354 0.02466,0.02466 0.07177,0.01955 0.09354,0.04677 0.108953,0.136189 0.167404,0.331846 0.280633,0.46772 0.176884,0.212262 0.472985,0.519758 0.654812,0.701583 0.02466,0.02466 0.07176,0.01955 0.09354,0.04677 0.109784,0.137228 0.137086,0.259339 0.280633,0.374176 0.07099,0.05679 0.169579,0.07604 0.23386,0.140316 0.04921,0.04921 0.114707,0.175956 0.18709,0.233863 0.06087,0.0487 0.137183,0.08043 0.187089,0.140317 0.03156,0.03787 0.02471,0.09622 0.04677,0.140316 0.0525,0.105003 0.206881,0.113334 0.280633,0.187087 0.02466,0.02466 0.03118,0.06236 0.04677,0.09355 0.01558,0.06236 0.0013,0.141634 0.04677,0.187087 0.04545,0.04545 0.136893,0.0066 0.187087,0.04677 0.07899,0.06319 0.128815,0.429379 0.140317,0.467722 0.02003,0.06678 0.07439,0.120047 0.09355,0.187087 0.01714,0.05997 -0.01971,0.127926 0,0.18709 0.132157,0.396473 0.09354,0.841877 0.09354,1.262848 0,0.155504 0.02997,0.121698 0.09354,0.280633 0.01566,0.03917 0.02447,0.955567 0,1.028988 -0.02204,0.06615 -0.07439,0.120047 -0.09354,0.18709 -0.0087,0.03041 0.02283,0.188179 0,0.23386 -0.184258,0.368514 -0.140316,0.847997 -0.140316,1.262848 0,0.195577 0.05011,0.831882 0,0.982215 -0.007,0.02093 -0.04143,0.02537 -0.04677,0.04677 -0.05752,0.230082 0,0.555147 0,0.795126 1.029621,0.308917 0.0717,0.07035 0.701637,0.140347 0.06389,0.0071 0.123452,0.03768 0.187088,0.04677 0.0463,0.0066 0.09595,-0.01479 0.140317,0 0.01479,0.0049 -0.01103,0.03575 0,0.04677 0.03874,0.03874 0.374382,1.03e-4 0.467721,0.04677 0.03944,0.01972 0.0541,0.07382 0.09355,0.09354 0.09872,0.04936 0.223627,0.07805 0.327405,0.140316 0.03781,0.02269 0.0541,0.07382 0.09354,0.09355 0.07209,0.03604 0.443856,0.06968 0.467722,0.09354 0.01102,0.01102 -0.01102,0.03575 0,0.04677 0.06854,0.06854 0.334912,0.294203 0.467722,0.327405 0.115854,0.02896 0.223578,0.06245 0.327405,0.140317 0.08819,0.06615 0.147775,0.164992 0.233861,0.233861 0.07489,0.05991 0.22227,0.114135 0.280633,0.187088 0.04356,0.05445 0.05171,0.13131 0.09354,0.187089 0.01871,0.02495 0.0715,-0.02205 0.09354,0 0.02941,0.02941 0.208832,0.27229 0.233861,0.280633 0.02958,0.0099 0.0715,-0.02205 0.09354,0 0.0493,0.0493 0.05767,0.127301 0.09354,0.187089 -0.01218,0.09882 0.07421,0.01776 0.09354,0.04677 0.152164,0.228245 -0.08047,0.05984 0.140317,0.280633 0.02465,0.02465 0.06889,0.02212 0.09354,0.04677 0.02741,0.0274 0.113384,0.146689 0.140316,0.187089 0.09533,0.142987 0.0097,0.04847 0.04677,0.23386 0.02011,0.100568 0.113985,0.108095 0.140316,0.187089 0.01007,0.0302 -0.02141,0.154975 0,0.187089 0.02446,0.03669 0.07617,0.05301 0.09354,0.09354 0.07892,0.184156 -0.009,0.34703 0.04677,0.514494 0.007,0.02092 0.03691,0.02705 0.04677,0.04677 0.03555,0.07111 0.02749,0.156737 0.04677,0.233861 0.02204,0.08815 -0.01784,0.191418 0,0.280633 0.01354,0.06772 0.08,0.166144 0.09354,0.233861 0.03462,0.173121 0.01869,0.364792 0.09354,0.514494 0.04881,0.09761 -0.02367,0.220869 0,0.327405 0.01219,0.05487 0.07577,0.08699 0.09354,0.140316 0.06109,0.183272 0.161501,1.615842 0.04677,1.73057 -0.02465,0.02465 -0.06454,0.02743 -0.09354,0.04677 -0.115869,0.07725 -0.08727,0.169406 -0.280633,0.23386 -0.03323,0.01108 -0.120623,-0.02216 -0.140317,0 -0.112038,0.126043 -0.177098,0.287834 -0.280633,0.42095 -0.115259,0.148191 -0.263156,0.269557 -0.374177,0.420949 -0.05358,0.07306 -0.145241,0.39141 -0.233861,0.42095 -0.02958,0.0099 -0.06236,0 -0.09354,0 -0.07795,0.04677 -0.155907,0.09354 -0.233861,0.140316 -0.107784,0.06467 -0.208159,0.14734 -0.327405,0.187089 -0.610601,0.203534 -1.491263,-0.11095 -2.104748,0.09354 -0.181962,0.06065 -0.163016,0.232488 -0.233861,0.374178 -0.04066,0.08131 -0.09966,0.152549 -0.140316,0.233861 -0.116311,0.232621 -0.04677,0.936479 -0.04677,1.216076 -0.753824,0.659729 -0.100838,-0.0069 -0.514451,0.654839 -0.01848,0.02956 -0.06889,0.02212 -0.09354,0.04677 -0.03546,0.03546 -0.17979,0.844874 -0.187089,0.888671 -0.01082,0.06493 0.02078,0.171526 0,0.233861 -0.07615,0.228449 -0.335036,0.409009 -0.467722,0.608038 -0.0086,0.01297 0.01103,0.03575 0,0.04677 -0.01102,0.01102 -0.03851,-0.01322 -0.04677,0 -0.276654,0.442646 -0.132095,0.247748 -0.233861,0.65481 -0.05647,0.22586 -0.02223,-0.0023 -0.09354,0.140317 -0.04648,0.09297 -9.57e-4,0.675804 0.04677,0.795127 0.0105,0.02624 0.309864,0.565162 0.374177,0.608038 0.334942,0.223294 -0.328968,-0.281527 0.327406,0.09354 0.06768,0.03868 0.06794,0.158137 0.140316,0.187089 0.05969,0.02387 0.127404,0.0229 0.187089,0.04677 0.319882,0.127953 0.57229,1.089459 0.467721,1.403165 -0.0048,0.01441 -0.04197,0.17268 -0.04677,0.187089 -0.0406,0.121793 -0.208505,0.219213 -0.280633,0.327405 -0.0032,0.0048 -0.07593,0.201667 -0.140316,0.233861 -0.09001,0.04501 -0.245441,0.035 -0.327405,0.09354 -0.216047,0.154319 -0.387129,0.367221 -0.608039,0.514494 -0.02425,0.01617 -0.121459,0.02791 -0.140316,0.04677 -0.01102,0.01102 0.007,0.03283 0,0.04677 -0.02514,0.05028 -0.07464,0.08738 -0.09354,0.140317 -0.04677,0.171498 -0.09355,0.342995 -0.140317,0.514493 -0.01559,0.01559 -0.03691,0.02705 -0.04677,0.04677 -0.05357,0.107135 0.0069,0.300121 -0.04677,0.420949 -0.03166,0.07124 -0.10021,0.120244 -0.140317,0.187089 -0.05532,0.0922 0,0.539211 0,0.65481 0,0.03118 -0.02205,0.0715 0,0.09354 0.02205,0.02205 0.0775,-0.02674 0.09354,0 0.25458,0.424301 0.0066,0.120014 0.04677,0.280633 0.0444,0.177608 0.233271,0.609217 0.140316,0.795127 -0.0037,0.0074 -0.268188,0.03433 -0.280633,0.04677 -0.01102,0.01102 0,0.03118 0,0.04677 -0.06236,0.03118 -0.133525,0.04891 -0.187088,0.09354 -0.04318,0.03599 -0.05756,0.09713 -0.09355,0.140316 -0.161782,0.19414 -0.359413,0.409877 -0.561266,0.561266 -0.01247,0.0094 -0.03575,-0.01102 -0.04677,0 -0.01102,0.01103 0.01102,0.03575 0,0.04677 -0.02205,0.02205 -0.06396,-0.0099 -0.09354,0 -0.09922,0.03307 -0.201925,0.07145 -0.280633,0.140316 -0.11338,0.09921 -0.276201,0.374177 -0.467722,0.374177 0.315339,0.192857 0.496225,0.496276 0.748343,0.748393 0.03118,0.03118 0.0541,0.07382 0.09354,0.09354 0.01395,0.007 0.0398,-0.01394 0.04677,0 0.0493,0.0986 -0.0025,0.228801 0.04677,0.327406 0.01559,0.03118 0.07625,0.0165 0.09355,0.04677 0.09104,0.159321 0.273342,0.71919 0.327405,0.935443 0.03257,0.1303 -0.0046,0.292453 0.04677,0.42095 0.02589,0.06474 0.08069,0.118559 0.09354,0.187088 0.0346,0.184522 0.02484,0.374815 0.04677,0.561266 0.0085,0.0725 0.09696,0.651397 0.04677,0.701583 -0.02951,0.02951 -0.644852,0.02975 -0.701583,0.04677 -0.195885,0.05877 -0.365381,0.175095 -0.561266,0.233861 -0.469729,0.140919 0.01419,-0.07116 -0.514494,0.140316 -0.06474,0.0259 -0.120942,0.0715 -0.187088,0.09355 -0.05916,0.01972 -0.129768,-0.02457 -0.187089,0 -0.1337,0.0573 -0.704833,0.343554 -0.795127,0.420949 -0.05919,0.05073 -0.07945,0.138392 -0.140316,0.187089 -0.07795,0.06236 -0.07795,-0.03118 -0.140317,0 -0.189162,0.09458 -0.382882,0.213888 -0.561266,0.327405 -0.186096,0.118425 -0.443454,0.315271 -0.65481,0.42095 -0.02789,0.01394 -0.0715,-0.02205 -0.09354,0 -0.01102,0.01102 0.01297,0.03812 0,0.04677 -0.217723,0.145149 -0.448666,0.209262 -0.65481,0.374177 -0.381546,0.305237 -0.626211,0.822387 -0.888671,1.216076 -0.135629,0.203443 -0.231618,0.362964 -0.280633,0.608039 -0.01591,0.07953 0.02167,0.163583 0.04677,0.23386 0.06138,0.171854 0.133423,0.340079 0.187089,0.514494 0.04384,0.142474 -0.06296,0.04993 0.04677,0.187089 0.113108,0.141385 0.2425,0.204368 0.327405,0.374177 0.141983,0.283966 -0.0669,0.09788 0.140317,0.374178 0.0094,0.01247 0.03575,-0.01103 0.04677,0 0.02465,0.02465 0.02743,0.06454 0.04677,0.09354 0.01934,0.02901 0.07795,0.01559 0.09354,0.04677 0.04119,0.08238 -0.0036,0.08993 0.04677,0.140317 0.01102,0.01102 0.03118,0 0.04677,0 0.01559,0.01559 0.03454,0.02843 0.04677,0.04677 0.136186,0.204279 -0.02073,-0.01542 0.04677,0.187088 0.133859,0.401576 0.05858,4.59e-4 0.140316,0.327406 0.07558,0.302325 0.05231,0.33848 0.187089,0.608038 0.03622,0.07243 -0.02618,0.06737 0.04677,0.140316 -0.158696,0.158994 0.425277,0.402945 0.514526,0.514507 0.0308,0.0385 0.01942,0.09929 0.04677,0.140317 0.03669,0.05504 0.099,0.08867 0.140317,0.140316 0.07272,0.0909 0.151756,0.538388 0.09354,0.654808 -0.007,0.0139 -0.03575,-0.011 -0.04677,0 -0.03486,0.0349 -0.01942,0.0993 -0.04677,0.14032 -0.07771,0.11656 -0.257844,0.1563 -0.374178,0.23386 -0.319147,0.21276 -0.614402,0.48756 -0.935443,0.70158 -0.120842,0.0806 -0.11377,0.007 -0.233861,0.0468 -0.02887,0.01 -0.08209,0.11383 -0.04677,0.14032 0.05578,0.0418 0.123003,0.0661 0.187089,0.0936 0.04532,0.0194 0.110735,0.007 0.140316,0.0468 0.07124,0.095 0.09354,0.21827 0.140317,0.3274 0.04677,0.10914 0.106198,0.21368 0.140316,0.32741 0.01344,0.0448 -0.0092,0.0944 0,0.14031 0.02367,0.11836 0.152309,0.20568 0.187089,0.32741 0.03187,0.11156 -0.01533,0.39028 0.04677,0.51449 0.007,0.014 0.03812,-0.013 0.04677,0 0.148251,0.22238 0.233861,0.9345 0.233861,1.21608 0,0.0669 0.04363,0.56441 0,0.60804 -0.03913,0.0391 -0.323701,-0.008 -0.374177,0 -0.141784,0.0236 -0.279166,0.0699 -0.42095,0.0935 -0.09227,0.0154 -0.191889,-0.0296 -0.280633,0 -0.05333,0.0178 -0.08812,0.0727 -0.140316,0.0935 -0.02412,0.01 -0.257627,0.0115 -0.280633,0 -0.01394,-0.007 0.01395,-0.0398 0,-0.0468 -0.17758,-0.0888 -0.466467,0.0695 -0.608038,0.14032 -0.02824,0.0141 -0.118696,-0.0216 -0.140317,0 -0.02044,0.0204 3.73e-4,0.27914 0,0.28063 -0.008,0.0321 -0.09872,0.18192 -0.04677,0.23386 0.01102,0.011 0.03118,0 0.04677,0 0.03118,0.0312 0.07017,0.0562 0.09354,0.0936 0.05543,0.0887 0.09024,0.18882 0.140317,0.28063 0.04353,0.0798 0.111569,0.14762 0.140316,0.23386 0.0011,0.003 0.01676,0.31065 0,0.32741 -0.0532,0.0532 -0.288544,-0.0174 -0.374177,0.0468 -0.08819,0.0662 -0.14684,0.16618 -0.233861,0.23386 -0.09044,0.0703 -0.291228,0.12073 -0.374177,0.18709 -0.06887,0.0551 -0.113706,0.13817 -0.187089,0.18709 -0.05884,0.0392 -0.2849,0.14245 -0.374177,0.18709 -0.100262,0.0501 -0.792236,0.0945 -0.935443,0.0468 -0.08367,-0.0279 -0.143332,-0.11052 -0.187089,-0.18709 -0.03087,-0.054 -0.183444,-0.65845 -0.233861,-0.60804 -0.01102,0.011 0.0094,0.0343 0,0.0468 -0.447623,0.44763 0.08367,-0.1255 -0.187089,0.28064 -0.07973,0.1196 -0.21635,0.19884 -0.280633,0.3274 -0.007,0.0139 0.01103,0.0357 0,0.0468 -0.02465,0.0247 -0.06889,0.0221 -0.09354,0.0468 -0.04526,0.0453 -0.05937,0.21227 -0.09354,0.28063 -0.06785,0.1357 -0.181848,0.28924 -0.280633,0.42095 -0.06048,0.0806 -0.292061,0.16363 -0.374178,0.18709 -0.04497,0.0129 -0.09594,-0.0148 -0.140316,0 -0.01479,0.005 0.01102,0.0357 0,0.0468 -0.02205,0.0221 -0.06959,-0.02 -0.09354,0 -0.08469,0.0706 -0.146841,0.16618 -0.233861,0.23386 -0.157394,0.12242 -0.170488,0.0769 -0.280633,0.18709 -0.04246,0.0425 0.03694,0.35209 0.04677,0.42095 0.01464,0.10245 0.0037,0.24121 0.04677,0.3274 0.04984,0.0997 0.245419,0.0263 0.327405,0.0468 0.262375,0.0656 0.216429,0.18127 0.374178,0.23386 0.0776,0.0259 0.267247,0.0334 0.327405,0.0935 0.01102,0.011 -0.01102,0.0357 0,0.0468 0.05065,0.0507 0.202365,-0.0315 0.280633,0.0468 0.01102,0.011 -0.01103,0.0357 0,0.0468 0.07516,0.0752 0.467721,-0.0955 0.467721,0.0468 0,0.0353 0.08125,0.40371 0.04677,0.42095 -0.02789,0.0139 -0.06236,0 -0.09355,0 -0.03118,0.0468 -0.04534,0.1114 -0.09354,0.14032 -0.04766,0.0286 -0.563995,0.0468 -0.65481,0.0468 -0.05854,0 -0.333894,-0.0403 -0.374178,0 -0.01102,0.011 0.01015,0.0349 0,0.0468 -0.08702,0.10153 -0.318904,0.36851 -0.467721,0.46772 -0.04102,0.0273 -0.105455,0.0119 -0.140317,0.0468 -0.07609,0.0761 0.07193,0.089 0.140317,0.14032 0.0419,0.0314 0.154342,0.29466 0.187088,0.32741 0.0359,0.0359 0.147243,0.0269 0.187089,0.0468 0.04183,0.0209 -0.02092,0.0985 0,0.14032 0.007,0.0139 0.03283,-0.007 0.04677,0 0.0452,0.0226 0.164487,0.14188 0.187089,0.18708 0.01394,0.0279 -0.0051,0.0628 0,0.0935 0.03594,0.21563 0.04677,0.39241 0.04677,0.60804 0,0.0592 -0.0057,0.23103 0,0.23386 0.04183,0.0209 0.119399,-0.0418 0.140316,0 0.02659,0.0532 0.04589,0.23298 0.09354,0.28063 0.09677,0.0968 -0.0038,-0.14788 0.09354,0.0468 0.06754,0.13508 0.01617,0.32741 0.187089,0.32741 -0.133776,0.30075 0.229248,0.35525 0.28065,0.56085 0.03953,0.15813 -0.05141,0.36028 0,0.5145 0.01102,0.0331 0.03832,0.0597 0.04677,0.0935 0.01512,0.0605 -0.03459,0.1352 0,0.18709 0.01934,0.029 0.06889,0.0221 0.09354,0.0468 0.0019,0.002 0.09712,0.75907 0.140317,0.88867 0.03443,0.10329 -0.02996,0.29011 -0.04677,0.37418 -0.02764,0.13821 0.01423,0.33965 0,0.46772 -0.0054,0.049 -0.03482,0.0925 -0.04677,0.14032 -0.02688,0.10751 0,0.32383 0,0.42095 0,0.60804 0,1.21607 0,1.82411 0,0.27665 0.02118,0.56656 0,0.8419 -0.0085,0.10992 -0.03892,0.21744 -0.04677,0.32741 -0.01555,0.21771 0.01555,0.43709 0,0.65481 -0.03447,0.48263 -0.0633,0.96596 -0.09354,1.44993 -0.03104,0.49664 0.03816,1.00067 0,1.49671 -0.03064,0.39828 -0.09143,0.81416 -0.04677,1.21608 0.04873,0.43858 0.137755,0.86562 0.187088,1.30962 0.0034,0.031 0,0.0624 0,0.0936 0.01559,0.0624 0.03768,0.12345 0.04677,0.18708 0.03925,0.2748 -0.0709,0.54847 0.09354,0.79513 0.163473,0.24521 -0.109135,-0.20268 0.140316,0.0468 0.02205,0.022 -0.01394,0.0657 0,0.0935 0.007,0.0139 0.03575,-0.011 0.04677,0 0.03962,0.0396 0.04326,0.1368 0.09354,0.18709 0.323209,0.57236 0.724719,1.08536 1.075767,1.637 0.04185,0.0658 0.115665,0.11314 0.140316,0.18709 0.420612,1.26184 0.136874,0.42986 0.187089,0.98222 0.02013,0.22139 0.09294,0.51749 0.04677,0.74835 -0.07236,0.36182 -0.165052,0.79427 -0.420949,1.07576 -0.222473,0.24472 -0.50935,0.43246 -0.701583,0.70158 -0.101315,0.14184 -0.110605,0.34447 -0.233861,0.46772 -0.01102,0.011 -0.03575,-0.011 -0.04677,0 -0.03307,0.0331 0.01479,0.096 0,0.14032 -0.05299,0.15896 -0.256602,0.37289 -0.327405,0.5145 -0.113738,0.22747 -0.04785,0.42635 -0.09354,0.65481 -0.01934,0.0967 -0.06963,0.18497 -0.09355,0.28063 -0.1106,0.13067 -0.01908,0.28251 -0.04677,0.42095 -0.02226,0.1113 -0.07128,0.21611 -0.09354,0.3274 -0.02982,0.14908 0.02712,0.31854 0,0.46772 -0.01764,0.097 -0.06814,0.18536 -0.09355,0.28064 -0.079,0.29624 -0.12226,0.62849 -0.140316,0.93544 -0.01007,0.1712 0.01222,0.34343 0,0.5145 -0.0035,0.0492 -0.03118,0.0935 -0.04677,0.14031 0,0.0935 0,0.18709 0,0.28063 0,0.0567 0.02858,0.27025 0,0.32741 -0.007,0.0139 -0.03575,-0.011 -0.04677,0 -0.02205,0.0221 0.01394,0.0657 0,0.0935 -0.148951,0.2979 -0.433472,0.56919 -0.561266,0.88868 -0.01737,0.0434 0.02092,0.0985 0,0.14031 -0.07935,0.15871 -0.248052,0.30902 -0.327406,0.46772 -0.03209,0.0642 -0.07481,0.40222 -0.140316,0.46773 -0.01102,0.011 -0.03575,-0.011 -0.04677,0 -0.01008,0.0101 -0.03511,0.30115 -0.04677,0.3274 -0.05105,0.11486 -0.156603,0.20546 -0.187089,0.32741 -0.06308,0.25231 0.189818,0.24477 0.233861,0.42095 0.01471,0.0588 0.0066,0.20839 0,0.28063 -0.01419,0.15604 -0.03376,0.31158 -0.04677,0.46772 -0.0063,0.0761 0.02405,0.20849 0,0.28063 -0.03755,0.11265 -0.102769,0.21477 -0.140317,0.32741 -0.01388,0.0416 -0.0145,0.30963 -0.04677,0.37418 -0.06583,0.13166 -0.09354,0.30589 -0.09354,0.46772 0.01565,0.47028 -0.07298,0.94669 -0.187105,1.4032 -0.02036,0.0814 -0.07318,0.15241 -0.09354,0.23386 -0.01768,0.0707 0.01949,0.16239 0,0.23386 -0.04283,0.15704 -0.103716,0.30912 -0.140317,0.46773 -0.05453,0.23631 0.05878,0.51324 0,0.74835 -0.0053,0.0214 -0.04315,0.025 -0.04677,0.0468 -0.01282,0.0769 0.0078,0.1563 0,0.23386 -0.02525,0.2525 -0.06089,0.61334 -0.09354,0.8419 -0.01573,0.11011 -0.07782,0.2173 -0.09354,0.32741 -0.01543,0.10804 0.01794,0.21975 0,0.3274 -0.07842,0.47049 -0.08857,1.32249 -0.04677,1.82412 0.0066,0.0792 0.03691,0.15497 0.04677,0.23386 0.01169,0.0935 -0.03071,0.23528 0,0.3274 0.07194,0.21581 0.04492,-0.0597 0.09354,0.28064 0.04294,0.30056 0.06588,0.63108 0.09354,0.93544 0.03607,0.39683 0,0.81647 0,1.21608 0,0.14127 -0.02765,0.32947 0,0.46772 0.0068,0.0342 0.04184,0.059 0.04677,0.0935 0.03955,0.27682 -0.05562,0.19469 0.04677,0.46772 0.01974,0.0526 0.0781,0.0863 0.09355,0.14032 0.02682,0.0939 -0.02265,0.19003 0,0.28063 0.05663,0.22653 0.04677,0.0552 0.04677,0.23386 -0.06701,0.57273 0.0037,1.18041 0.187083,1.73058 0.01103,0.0331 0.03118,0.0624 0.04677,0.0935 0.03118,0.078 0.07048,0.15313 0.09354,0.23386 0.01285,0.045 -0.01479,0.0959 0,0.14032 0.0691,0.20729 0.162725,0.43553 0.187089,0.65481 0.02212,0.19909 -0.02489,0.40895 0,0.60803 0.0026,0.0209 0.03543,0.42802 0.04677,0.46773 0.02709,0.0948 0.07421,0.18394 0.09354,0.28063 0.01529,0.0764 -0.05512,0.17874 0,0.23386 0.02465,0.0247 0.07263,0.0189 0.09354,0.0468 0.03224,0.043 0.223275,0.35301 0.280633,0.46772 0.02205,0.0441 0.01521,0.10244 0.04677,0.14032 0.0499,0.0599 0.139229,0.0788 0.187088,0.14032 0.08427,0.10835 0.131891,0.26378 0.187089,0.37417 0.08888,0.17776 0.301154,0.33194 0.374177,0.5145 0.04666,0.11665 0.02267,0.18613 0.09354,0.28063 0.16489,0.21985 0.285701,0.27441 0.327405,0.60804 0.05875,0.46997 0,1.23555 0,1.73057 0,0.14886 -0.05235,0.59688 0,0.70158 0.06658,0.13316 0.168281,0.28979 0.233861,0.42095 0.01972,0.0394 0.0796,0.0517 0.09354,0.0935 0.0099,0.0296 -0.0099,0.064 0,0.0935 0.04818,0.14455 0.271453,0.12196 0.327405,0.23386 0.02958,0.0592 -0.01239,0.0688 0.04677,0.18709 0.137507,0.27501 0.280351,0.5607 0.42095,0.8419 0.0099,0.0197 0.04142,0.0254 0.04677,0.0468 0.01134,0.0454 -0.01134,0.0949 0,0.14032 0.0053,0.0214 0.03691,0.0271 0.04677,0.0468 0.04677,0.0935 0.107244,0.18141 0.140317,0.28063 0.0099,0.0296 -0.01158,0.0646 0,0.0935 0.02088,0.0522 0.07381,0.0877 0.09354,0.14031 0.05251,0.14004 0.0756,0.77719 0.140316,0.8419 0.01103,0.011 0.03283,-0.007 0.04677,0 0.08921,0.0446 0.133494,0.1624 0.187088,0.23386 0.252324,0.33643 -0.05194,-0.0987 0.187089,0.14032 0.06957,0.0696 0.100772,0.17632 0.187089,0.23386 0.04102,0.0274 0.105454,0.0119 0.140316,0.0468 0.182721,0.18272 0.147583,0.55809 0.187089,0.79513 0.0092,0.055 -0.02427,0.13855 0,0.18709 0.0099,0.0197 0.0398,0.0259 0.04677,0.0468 0.02339,0.0702 -0.02339,0.1637 0,0.23386 0.05914,0.17743 0.140316,0.12938 0.140316,0.28063 0.311561,0.46201 0.345626,0.96918 0.420994,1.49675 0.07353,0.51468 0.240607,1.02315 0.280633,1.54348 0.01085,0.14111 -0.0186,0.31891 0,0.46773 0.04932,0.39455 0.178213,0.77977 0.233861,1.1693 0.05118,0.35823 0.02697,0.32797 0.187088,0.70158 0.01228,0.0287 -0.02205,0.0715 0,0.0935 0.01422,0.0142 0.233277,-0.0563 0.280633,-0.0468 0.131188,0.0262 0.45098,0.49689 0.514494,0.60804 0.03381,0.0592 0.03494,0.20966 0.04677,0.28064 0.03548,0.21289 0.130177,0.44613 0.187089,0.65481 0.0727,0.26658 0.176664,0.52344 0.233861,0.79512 0.07465,0.35457 0.112663,0.85249 0.233861,1.21608 0.02205,0.0661 0.07987,0.11872 0.09354,0.18709 0.01835,0.0917 -0.02461,0.19038 0,0.28063 0.02392,0.0877 0.116397,0.14616 0.140317,0.23386 0.05551,0.20355 -0.04148,0.44744 0,0.65481 0.0043,0.0216 0.04245,0.0251 0.04677,0.0468 0.03598,0.1799 -0.03598,0.38138 0,0.56127 0.03587,0.17937 0.07375,0.3724 0.04677,0.56127 -0.007,0.0488 -0.0371,0.092 -0.04677,0.14031 -0.01928,0.0964 -0.01772,0.85323 0,0.88867 0.07744,0.15488 0.158741,0.31749 0.233861,0.46773 0.01394,0.0279 -0.01604,0.0668 0,0.0935 0.140421,0.23404 0.141274,0.14127 0.280633,0.28063 0.177416,0.17742 0.02619,0.0904 0.140316,0.28064 0.112925,0.1882 0.07766,0.0388 0.187089,0.0935 0.18142,0.0907 0.0869,0.17381 0.140316,0.28063 0.04785,0.0957 0.124494,0.0155 0.187089,0.0468 0.01395,0.007 -0.0049,0.032 0,0.0468 0.01102,0.0331 0.02884,0.0636 0.04677,0.0935 0.02892,0.0482 0.0684,0.09 0.09355,0.14032 0.0138,0.0276 0,0.10888 0,0.14032 2e-6,0.12476 -0.01377,0.25028 5e-6,0.37428 0.005,0.0446 0.121726,0.22487 0.140316,0.28064 0.0099,0.0296 -0.0099,0.064 0,0.0935 0.02953,0.0886 0.233377,0.37333 0.233861,0.37418 0.027,0.0472 -0.01761,0.13426 0,0.18709 0.01102,0.0331 0.04104,0.0592 0.04677,0.0935 0.04258,0.2555 -0.0658,1.36512 0,1.49671 0.007,0.0139 0.03575,-0.011 0.04677,0 0.09677,0.0968 -0.147882,-0.004 0.04677,0.0935 0.01395,0.007 0.03575,-0.011 0.04677,0 0.03975,0.0397 0.04857,0.10659 0.09354,0.14032 0.02495,0.0187 0.06565,-0.0139 0.09354,0 0.01395,0.007 -0.01394,0.0398 0,0.0468 0.02789,0.014 0.06329,-0.008 0.09355,0 0.22586,0.0565 -0.0023,0.0222 0.140316,0.0936 0.0575,0.0287 0.129593,0.018 0.187089,0.0468 0.08917,0.0446 0.143624,0.17953 0.187088,0.23386 0.05509,0.0689 0.129693,0.12013 0.187089,0.18709 0.185441,0.21635 0.241325,0.53688 0.327405,0.79513 0.06969,0.20907 -0.05486,0.46138 -0.09354,0.65481 -0.02853,0.14263 -0.02882,1.02522 0,1.1693 0.07889,0.39447 0.246582,0.73975 0.374177,1.12253 0.02672,0.0802 0.03409,0.33176 0.09355,0.42095 0.0086,0.013 0.03575,-0.011 0.04677,0 0.01576,0.0158 0.209621,0.27893 0.233861,0.32741 0.02092,0.0418 -0.02092,0.0985 0,0.14031 0.007,0.014 0.03812,-0.013 0.04677,0 0.197544,0.29632 -0.04235,0.0111 0.04677,0.23386 0.02088,0.0522 0.07267,0.0881 0.09354,0.14032 0.02316,0.0579 -0.01713,0.12713 0,0.18709 0.02307,0.0807 0.06236,0.15591 0.09354,0.23386 0.01559,0.0935 0.02377,0.18863 0.04677,0.28063 0.07634,0.30536 0.02511,-0.17671 0.09354,0.23386 0.06818,0.40906 -0.12505,-0.2272 0.04677,0.37418 0.0096,0.0335 0.03993,0.0594 0.04677,0.0935 0.02382,0.11909 -0.01718,0.25387 0,0.37417 0.01852,0.12963 0.07331,0.25276 0.09354,0.37418 0.01025,0.0615 -0.01713,0.12713 0,0.18709 0.02497,0.0874 0.111568,0.14762 0.140316,0.23386 0.0099,0.0296 -0.0173,0.0676 0,0.0935 0.02959,0.0444 0.237003,0.30559 0.280633,0.32741 0.0575,0.0288 0.141635,0.001 0.187089,0.0468 0.02465,0.0246 0.02212,0.0689 0.04677,0.0935 0.139226,0.13922 0.353957,0.13357 0.514494,0.18708 0.08433,0.0281 0.206781,0.21581 0.233861,0.23387 0.06941,0.0463 0.09241,-0.001 0.140316,0.0468 0.01103,0.011 -0.01102,0.0358 0,0.0468 0.101744,0.10174 0.218391,0.0315 0.280633,0.18709 0.07828,0.1957 -0.02411,0.51305 0.04677,0.65481 0.069,0.13799 0.220079,0.39067 0.374178,0.46772 0.01394,0.007 0.03575,-0.011 0.04677,0 0.03535,0.0353 0.02029,0.0935 0.09354,0.0935 0.151788,0.008 0.04529,0.20905 0.116974,0.28074 0.03404,0.034 0.09558,0.002 0.11693,0.0234 0.0055,0.006 -0.0055,0.0179 0,0.0234 0.0055,0.006 0.01787,-0.006 0.02339,0 0.01233,0.0123 0.01106,0.0344 0.02339,0.0468 0.03975,0.0397 0.09211,0.0646 0.140317,0.0935 0.02005,0.012 0.04797,-0.007 0.07016,0 0.01046,0.003 0.01293,0.0199 0.02339,0.0234 0.01479,0.005 0.03283,-0.007 0.04677,0 0.007,0.003 0,0.0156 0,0.0234 0.01559,0.008 0.03024,0.0179 0.04677,0.0234 0.01479,0.005 0.0338,-0.009 0.04677,0 0.108497,-0.02 0.0269,0.0503 0.04677,0.0702 0.01654,0.0165 0.04723,-0.005 0.07016,0 0.07684,0.0154 0.187801,0.0588 0.257247,0.0935 0.04254,0.0213 0.07723,0.0697 0.11693,0.0935 0.02756,0.0165 0.0668,0.006 0.09355,0.0234 0.07827,0.0522 0.106625,0.12347 0.187088,0.1637 0.01395,0.007 0.03283,-0.007 0.04677,0 0.04508,0.0451 0.03813,0.048 0.09354,0.0702 0.02984,0.0119 0.0648,0.009 0.09354,0.0234 0.0099,0.005 0.01269,0.0207 0.02339,0.0234 0.02269,0.006 0.04747,-0.006 0.07016,0 0.01069,0.003 0.01269,0.0207 0.02339,0.0234 0.03781,0.009 0.07995,-0.0123 0.11693,0 0.03693,0.0123 0.130995,0.0592 0.163703,0.0702 0.08438,0.0281 0.196419,-0.005 0.280633,0.0234 0.0485,0.0162 0.177674,0.0515 0.233861,0.0234 0.0099,-0.005 0.01353,-0.0185 0.02339,-0.0234 0.04677,-0.0234 0,0.0468 0.07016,0 0.0145,-0.01 0.0089,-0.0371 0.02339,-0.0468 0.01297,-0.009 0.03165,0.004 0.04677,0 0.01691,-0.004 0.02986,-0.0192 0.04677,-0.0234 0.09456,-0.0236 0.203239,-0.006 0.304019,-0.0468 0.01515,-0.006 0.08534,-0.0386 0.09354,-0.0468 0.0055,-0.006 -0.0035,-0.0164 0,-0.0234 0.01442,-0.0288 0.0881,-0.10251 0.11693,-0.11693 0.03823,-0.0191 0.117047,-0.0236 0.140317,-0.0702 0.0035,-0.007 -0.0055,-0.0179 0,-0.0234 0.0055,-0.006 0.0199,0.007 0.02339,0 0.01394,-0.0279 -0.02789,-0.0796 0,-0.0935 0.01394,-0.007 0.03283,0.007 0.04677,0 0.01354,-0.007 -0.01113,-0.0529 0.02339,-0.0701 0.0229,-0.0115 0.04546,-0.0344 0.07016,-0.0468 0.007,-0.003 0.0199,0.007 0.02339,0 0.01,-0.0199 0.0054,-0.0756 0.02339,-0.0935 0.01654,-0.0165 0.04924,0.0105 0.07016,0 0.02048,-0.0102 -0.02741,-0.0234 0.07016,-0.0234 0.01559,0 0.03575,0.011 0.04677,0 0.03043,-0.0304 -0.04838,-0.1086 -0.02339,-0.11693 0.07124,-0.0237 0.29393,0 0.374177,0 0.06213,0 0.133133,-0.007 0.163703,0.0234 0.01743,0.0174 0.006,0.0527 0.02339,0.0702 0.0055,0.006 0.01641,-0.003 0.02339,0 0.09733,0.0487 -0.025,-0.002 0.02339,0.0468 0.04839,0.0484 -0.0019,-0.0739 0.04677,0.0234 0.0097,0.0195 -0.01483,0.0787 0,0.0935 0.0055,0.006 0.0199,-0.007 0.02339,0 0.007,0.0139 -0.01102,0.0358 0,0.0468 0.01102,0.011 0.03283,-0.007 0.04677,0 0.01394,0.007 -0.01103,0.0358 0,0.0468 0.0055,0.006 0.01787,-0.006 0.02339,0 0.0078,0.008 0.01559,0.0624 0.02339,0.0702 0.0221,0.0221 0.05291,-0.0284 0.07016,0.0234 0.0077,0.0231 0.0051,0.0753 0.02339,0.0935 0.04028,0.0403 0.115368,0.0452 0.140317,0.0702 0.0054,0.005 0.01824,0.0832 0.02339,0.0935 0.0045,0.009 0.106459,0 0.11693,0 0.09354,0 -0.03898,-0.008 0.02339,0.0234 0.04677,0.0234 0.03508,-0.0117 0.07016,0 0.01654,0.006 0.03024,0.0179 0.04677,0.0234 0.08687,0.029 0.235191,0 0.327405,0 0.56826,0.1945 1.055216,0.0347 1.541748,-0.2086 0.03944,-0.0197 0.09285,0.0197 0.132291,0 0.02789,-0.0139 0.0441,-0.0441 0.06615,-0.0661 0.132292,-0.0661 0.258386,-0.1465 0.396875,-0.19844 0.107956,-0.0405 0.450297,0.0789 0.529167,0 0.01559,-0.0156 -0.01972,-0.0563 0,-0.0661 0.341089,-0.17055 0.78251,-0.15975 1.124479,-0.33073 0.05578,-0.0279 0.07651,-0.1044 0.132292,-0.13229 0.02495,-0.0125 0.52906,-0.066 0.529166,-0.0662 0.03355,-0.0335 0.166966,-0.30246 0.198438,-0.39687 0.0293,-0.0879 -0.04199,-0.24675 0,-0.33073 0.02052,-0.041 0.225945,-0.29209 0.264583,-0.33073 0.04365,-0.0437 0.212088,-0.0935 0.264584,-0.19844 0.0099,-0.0197 -0.01559,-0.0505 0,-0.0661 0.04488,-0.0449 0.204047,0.0303 0.264583,0 0.184155,-0.0921 0.32052,-0.24727 0.529158,-0.33072 0.15488,-0.0619 0.37482,-0.0551 0.52917,-0.1323 0.10707,-0.0535 0.31113,-0.17884 0.39688,-0.26458 0.0156,-0.0156 0,-0.0441 0,-0.0662 0.022,-0.0441 0.0313,-0.0974 0.0661,-0.13229 0.0236,-0.16248 0.14043,-0.0275 0.19844,-0.0661 0.10378,-0.0692 0.1954,-0.16081 0.26458,-0.26459 0.0122,-0.0183 -0.0156,-0.0505 0,-0.0661 0.0998,-0.0998 0.25242,-0.14712 0.33073,-0.26459 0.15023,-0.22534 -0.0303,-0.50265 0.0662,-0.7276 0.18851,-0.43986 0.20813,-0.28397 0.33073,-0.52917 0.0197,-0.0394 -0.0353,-0.10583 0,-0.13229 0.0789,-0.0592 0.20146,-0.0565 0.26458,-0.13229 0.0748,-0.38895 0.008,-0.20597 0.19844,-0.39687 0.0156,-0.0156 -0.0156,-0.0506 0,-0.0662 0.0156,-0.0156 0.0464,0.01 0.0661,0 0.47136,-0.23568 0.0854,-0.006 0.46302,-0.13229 0.0209,-0.007 -0.0197,-0.0563 0,-0.0661 0.17112,-0.0856 0.96874,0.0555 1.19063,0 0.15572,-0.0389 0.30562,-0.10081 0.46302,-0.13229 0.16451,-0.0329 0.36514,0.0273 0.52917,0 0.0973,-0.0162 0.17104,-0.10111 0.26458,-0.13229 0.21074,-0.0702 0.48375,-0.22016 0.66146,-0.26458 0.0428,-0.0107 0.0945,0.0227 0.13229,0 0.0802,-0.0481 0.12658,-0.13856 0.19844,-0.19844 0.10571,-0.0881 0.68036,-0.43467 0.79375,-0.46302 0.0642,-0.016 0.13357,0.013 0.19844,0 0.18672,-0.0373 0.28889,-0.2872 0.46302,-0.33073 0.0642,-0.016 0.13319,0.0109 0.19843,0 0.15627,-0.026 0.25286,-0.0963 0.39688,-0.13229 0.25935,-0.0648 0.53143,-0.0573 0.79375,-0.13229 0.0661,-0.0221 0.13229,-0.0441 0.19844,-0.0661 0.0441,-0.0441 0.0744,-0.10913 0.13229,-0.13229 0.11066,-0.0443 0.33763,-0.0348 0.46302,-0.0661 0.41294,-0.10323 0.71989,-0.30354 1.05833,-0.52916 0.0977,-0.0651 0.87068,0 1.05834,0 1.83005,0.022 3.66762,-0.10139 5.49013,0.0659 1.39041,-1.26138 0.69631,0.4143 1.05833,0.59531 0.18498,0.0925 0.41037,0.10597 0.59532,0.19844 0.14194,0.071 0.003,0.0722 0.0661,0.19844 0.0171,0.0342 0.36346,-0.0167 0.39688,0 0.0197,0.01 -0.0156,0.0505 0,0.0661 0.0441,0.0441 0.22048,-0.0441 0.26458,0 0.0156,0.0156 -0.0156,0.0506 0,0.0662 0.0312,0.0312 0.0905,-0.0139 0.13229,0 0.0468,0.0156 0.0845,0.0542 0.13229,0.0661 0.0642,0.016 0.15167,-0.0468 0.19844,0 0.0265,0.0265 0.0358,0.084 0.13229,0.13229 0.10584,0.0529 0.29104,-0.0529 0.39688,0 0.0279,0.0139 0.0366,0.0563 0.0661,0.0661 0.0418,0.0139 0.0956,-0.0245 0.13229,0 0.041,0.0273 0.0221,0.11025 0.0662,0.1323 0.0682,0.0341 0.4407,0.0221 0.52917,0 0.28555,-0.0714 0.57897,-0.1048 0.85989,-0.19844 0.14061,-0.0469 0.24251,-0.10657 0.39688,-0.13229 0.0652,-0.0109 0.13426,0.016 0.19844,0 0.0804,-0.0201 0.18428,-0.10553 0.26458,-0.1323 0.11024,-0.0367 0.22048,0.0551 0.33073,0 0.0441,-0.022 0.0313,-0.0974 0.0661,-0.13229 0.0351,-0.0351 0.12828,0.004 0.19844,-0.0661 0.0433,-0.0433 0.0411,-0.15286 0.13229,-0.19844 0.0643,-0.0321 0.2003,-0.034 0.26459,-0.0662 0.12509,-0.0625 0.0741,-0.2338 0.13229,-0.33073 0.0661,-0.11024 0.22788,-0.12129 0.33073,-0.19843 0.0562,-0.0422 0.21329,-0.27944 0.26458,-0.33073 0.0903,-0.0903 0.3331,-0.0685 0.39688,-0.13229 0.0156,-0.0156 -0.0156,-0.0506 0,-0.0661 0.0277,-0.0277 0.15834,-0.0461 0.19843,-0.0661 0.13388,-0.0669 0.008,-0.182 0.13229,-0.26458 0.0821,-0.0547 0.18254,-0.0776 0.26459,-0.13229 0.16705,-0.11137 0.30258,-0.27655 0.46302,-0.39688 0.0176,-0.0132 0.0489,0.0138 0.0661,0 0.1461,-0.11687 0.24721,-0.28462 0.39688,-0.39687 0.0394,-0.0296 0.10149,-0.0276 0.13229,-0.0661 0.1232,-0.15399 0.15519,-0.36508 0.26458,-0.52916 0.0803,-0.1205 0.14103,-0.14977 0.19844,-0.26459 0.0197,-0.0394 -0.0139,-0.0905 0,-0.13229 0.0816,-0.24483 0.15644,-0.49328 0.26459,-0.7276 0.0261,-0.0566 0.11257,-0.0731 0.13229,-0.13229 0.0973,-0.29195 0.15893,-0.87457 0.19843,-1.19063 0.0344,-0.27491 0.01,-0.51238 0.0661,-0.79375 0.0254,-0.12683 -0.0281,-0.27067 0,-0.39687 0.10288,-0.46296 0.23758,-0.9233 0.33073,-1.38907 0.17222,-0.86108 0.13229,-1.76937 0.13229,-2.64583 0,-0.21323 0.0511,-0.52313 0,-0.7276 -0.13301,-0.53205 0.002,0.13775 -0.13229,-0.19844 -0.0338,-0.0844 -0.0303,-0.18103 -0.0661,-0.26458 -0.0764,-0.17839 -0.20942,-0.33611 -0.26458,-0.52917 -0.16243,-0.5685 -0.004,-0.0996 -0.0661,-0.59531 -0.0725,-0.58035 -0.0661,-1.07133 -0.0661,-1.65365 0,-5.5e-4 -0.0418,-0.48739 0,-0.52917 0.0156,-0.0156 0.0441,0 0.0661,0 0.0882,-0.0882 0.18975,-0.1648 0.26459,-0.26458 0.16951,-0.22601 0.11693,-0.24923 0.26458,-0.39687 0.0673,-0.38408 0.42099,-0.70961 0.59537,-1.05838 0.01,-0.0197 -0.0156,-0.0505 0,-0.0661 0.0156,-0.0156 0.0506,0.0156 0.0661,0 0.0156,-0.0156 -0.0156,-0.0506 0,-0.0661 0.0156,-0.0156 0.0441,0 0.0661,0 0.0441,-0.0882 0.10111,-0.17104 0.13229,-0.26458 0.11024,-0.37483 0.22048,-0.74966 0.33073,-1.12448 0.0661,-0.0661 0.15031,-0.11823 0.19843,-0.19844 0.0227,-0.0378 -0.0197,-0.0928 0,-0.13229 0.01,-0.0197 0.0506,0.0156 0.0661,0 0.0622,-0.0622 0.34346,-1.86235 0.39687,-2.18281 0.0151,-0.0905 -0.0146,-0.32344 0,-0.33073 0.0592,-0.0296 0.15167,0.0468 0.19844,0 0.23338,-0.23338 0.22346,-0.66591 0.39688,-0.92604 0.10493,-0.1574 0.31205,-0.38325 0.39687,-0.59532 0.035,-0.0875 0.0808,-0.31963 0.13229,-0.39687 0.12231,-0.18346 0.27457,-0.34571 0.39688,-0.52917 0.27528,-0.41292 0.0221,-0.11024 0.19844,-0.46302 0.0493,-0.0986 0.16357,-0.16 0.19843,-0.26458 0.0139,-0.0418 -0.0312,-0.10111 0,-0.13229 0.0274,-0.0935 0.15167,0.0468 0.19844,0 0.0156,-0.0156 -0.0156,-0.0506 0,-0.0661 0.0156,-0.0156 0.0506,0.0156 0.0661,0 0.14691,-0.14691 0.24996,-0.38225 0.39687,-0.52917 0.0562,-0.0562 0.13484,-0.0846 0.19844,-0.13229 0.26228,-0.19671 0.75922,-0.87267 0.79375,-0.92604 0.14552,-0.2249 0.0926,-0.38365 0.19844,-0.59531 -0.0247,-0.1441 0.11024,-0.0221 0.13229,-0.0661 0.11024,-0.22049 -0.0551,-0.0551 0,-0.19844 0.21449,-0.55767 0.39687,-0.83992 0.39687,-1.38906 6.12083,-25.25918 1.46246,-4.19284 2.38145,-16.13977 0.0136,-0.17724 0.0501,-0.35214 0.0661,-0.52917 0.006,-0.0659 -0.0209,-0.13569 0,-0.19844 0.10288,-0.30865 0.13229,-0.12045 0.13229,-0.39687 0.0441,-0.17639 0.0998,-0.35028 0.13234,-0.52917 0.0537,-0.29499 0,-0.70008 0,-0.99219 0,-0.94739 0.007,0.099 -0.0661,-1.71979 -0.009,-0.21957 0.067,-0.59261 0,-0.79375 -0.0156,-0.0468 -0.06,-0.0834 -0.0662,-0.13229 -0.0157,-0.12599 0.0105,-0.50397 0,-0.66146 -0.0998,-1.49657 -0.0661,-2.99721 -0.0661,-4.49791 0,-0.70556 0,-1.41112 0,-2.11667 0,-0.13528 0.0581,-0.74371 0,-0.8599 -0.0279,-0.0558 -0.0977,-0.0804 -0.1323,-0.13229 -0.13283,-0.19925 -0.15761,-0.48265 -0.19843,-0.7276 -0.0332,-0.19943 0,-0.45728 0,-0.66146 0,-0.57326 0,-1.14653 0,-1.71979 0,-0.19515 0.068,-0.59153 0,-0.72761 -0.0356,-0.0711 -0.10277,-0.12462 -0.1323,-0.19843 -0.0438,-0.10954 0.0287,-0.28206 0,-0.39688 -0.18506,-0.74025 -0.0661,-1.99201 -0.0661,-2.77812 0,-0.2131 0.0517,-0.52092 0,-0.72761 -0.0883,-0.35339 -0.45466,-0.71139 -0.33073,-1.12448 0.0541,-0.18044 0.14431,-0.34873 0.19844,-0.52916 0.0245,-0.0816 0.0408,-0.33589 0.13229,-0.39688 0.0367,-0.0245 0.11138,0.0388 0.13229,0 0.31528,-0.35381 0.26336,-0.85745 0.46302,-1.25677 0.01,-0.0197 0.0563,0.0197 0.0662,0 0.0369,-0.0739 -0.0305,-0.18828 0,-0.26458 0.19566,-0.48916 0.45976,-0.94266 0.7276,-1.38907 0.0113,-0.0189 -0.0156,-0.0506 0,-0.0661 0.0441,-0.022 0.0882,-0.0441 0.13229,-0.0661 0,-0.0221 -0.0156,-0.0506 0,-0.0661 0.0312,-0.0312 0.10111,0.0312 0.13229,0 0.0156,-0.0156 -0.0156,-0.0506 0,-0.0662 0.0156,-0.0156 0.0441,0 0.0661,0 0.14993,0 0.004,0.0221 0.0661,-0.0661 0.14416,-0.20595 0.3206,-0.38816 0.46302,-0.59532 0.13063,-0.19001 0.45414,-0.70098 0.52916,-0.92604 0.0139,-0.0418 -0.0312,-0.10111 0,-0.13229 0.1809,-0.18089 0.12695,0.20735 0.33073,-0.13229 0.10147,-0.16911 0.15233,-0.36703 0.26459,-0.52917 0.0147,-0.0212 0.3599,-0.42605 0.46302,-0.52917 0.94894,1.5e-4 0.44685,-0.20984 0.92602,-0.52928 0.058,-0.0387 0.13607,-0.035 0.19844,-0.0662 0.13294,-0.0665 0.14137,-0.21661 0.19843,-0.33073 0.0983,-0.19653 0.2404,-0.38453 0.33073,-0.59531 0.0358,-0.0836 0.0255,-0.18327 0.0662,-0.26458 0.15618,-0.31236 -0.0348,0.40373 0.13229,-0.26459 0.0427,-0.17083 0,-0.43094 0,-0.59531 0,-0.50712 0,-1.01424 0,-1.52135 0,-0.78445 0.11971,-1.77014 -0.0661,-2.51354 -0.0267,-0.10696 0.0181,-0.22199 0,-0.33073 -0.009,-0.0537 -0.30809,-0.70497 -0.33072,-0.72761 -0.0312,-0.0312 -0.10111,0.0312 -0.1323,0 -0.0156,-0.0156 0.01,-0.0464 0,-0.0661 -0.11782,-0.23565 -0.45006,-0.37744 -0.59531,-0.59532 -0.075,-0.11255 -0.0572,-0.21817 -0.13229,-0.33073 -0.0519,-0.0778 -0.15031,-0.11822 -0.19844,-0.19843 -0.0227,-0.0378 0.0197,-0.0928 0,-0.13229 -0.01,-0.0197 -0.0505,0.0156 -0.0661,0 -0.0713,-0.0713 -0.008,-0.0819 -0.0662,-0.19844 -0.01,-0.0197 -0.0505,0.0156 -0.0661,0 -0.0246,-0.0246 -0.0432,-0.25313 -0.0661,-0.26459 -0.0394,-0.0197 -0.0956,0.0245 -0.13229,0 -0.0289,-0.0193 -0.25808,-0.38386 -0.26459,-0.39687 -0.0556,-0.11123 -0.15417,-0.26409 -0.19843,-0.39688 -0.0288,-0.0862 -0.0255,-0.18327 -0.0661,-0.26458 -0.0631,-0.12627 -0.19195,-0.20967 -0.26458,-0.33073 -0.0936,-0.15605 -0.0976,-0.31171 -0.19844,-0.46302 -0.0963,-0.14442 -0.25966,-0.23925 -0.39688,-0.33073 -0.022,-0.022 -0.0441,-0.0441 -0.0661,-0.0661 0,-0.0221 0.0156,-0.0506 0,-0.0662 -0.079,-0.079 -0.30031,-0.0777 -0.39688,-0.19844 -0.0435,-0.0544 -0.0243,-0.14266 -0.0661,-0.19843 -0.0296,-0.0395 -0.0974,-0.0313 -0.13229,-0.0662 -0.0179,-0.0179 -0.17999,-0.22769 -0.19844,-0.26458 -0.0197,-0.0395 0.0245,-0.0956 0,-0.1323 -0.10891,-0.16336 -0.1839,-0.19517 -0.26458,-0.39687 -0.0164,-0.0409 0.007,-0.0888 0,-0.13229 -0.0917,-0.55007 -0.0181,-0.0544 -0.1323,-0.39688 -0.0139,-0.0418 0.0197,-0.0928 0,-0.13229 -0.0139,-0.0279 -0.0576,-0.0362 -0.0661,-0.0661 -0.0221,-0.0775 -0.0532,-0.47665 -0.13229,-0.59532 -0.0519,-0.0778 -0.15661,-0.11477 -0.19844,-0.19843 -0.01,-0.0197 0.0156,-0.0506 0,-0.0661 -0.0312,-0.0312 -0.10111,0.0312 -0.13229,0 -0.0221,-0.0221 -0.0441,-0.17639 -0.0662,-0.19844 -0.0156,-0.0156 -0.0464,0.01 -0.0661,0 -0.0897,-0.0448 -0.66146,-0.56884 -0.72761,-0.66146 -0.14761,-0.20665 -0.27955,-0.47799 -0.46302,-0.66145 -0.31076,-0.31076 -0.58074,-0.52492 -0.8599,-0.8599 -0.0599,-0.0719 -0.1566,-0.11477 -0.19843,-0.19844 -0.0661,-0.13215 0.005,-0.38758 -0.0661,-0.52916 -0.0686,-0.13721 -0.45646,-0.525893 -0.59531,-0.595317 -0.0197,-0.0099 -0.0506,0.01559 -0.0662,0 -0.0156,-0.01559 0.0156,-0.05056 0,-0.06615 -0.0468,-0.04677 -0.14762,0.04235 -0.19843,0 -0.28387,-0.236556 -0.4749,-0.681257 -0.66146,-0.992188 -0.20647,-0.344103 0.0532,0.119376 -0.13229,-0.06615 -0.0669,-0.06693 -0.0935,-0.266151 -0.1323,-0.33073 -0.0567,-0.09453 -0.12048,-0.186629 -0.19843,-0.264583 -0.0349,-0.03486 -0.10495,-0.02512 -0.1323,-0.06615 -0.14842,-0.222634 0.20057,-1.197012 0.26459,-1.389062 0.0867,-0.259943 0.19716,-0.59021 0.26458,-0.859896 0.0502,-0.200937 -0.016,-0.303377 0.0662,-0.529167 0.23227,-0.638745 0.69492,-1.850512 0.52916,-2.513541 -0.11138,-0.445542 -0.001,-10e-4 -0.13229,-0.132292 -0.0312,-0.03118 0.0245,-0.0956 0,-0.132292 -0.1135,-0.170249 -0.33312,-0.200832 -0.39687,-0.264583 -0.0156,-0.01559 0.008,-0.04567 0,-0.06615 -0.0366,-0.09155 -0.0707,-0.187586 -0.13229,-0.264583 -0.073,-0.09119 -0.30623,-0.08697 -0.39688,-0.132292 -0.11058,-0.05529 -0.21462,-0.159734 -0.33073,-0.198437 -0.0837,-0.02789 -0.1912,0.04892 -0.26458,0 -0.041,-0.02735 -0.0313,-0.09743 -0.0661,-0.132292 -0.0265,-0.02649 -0.16449,0.0259 -0.39687,-0.264583 -0.062,-0.07756 -0.10045,-0.251114 -0.13229,-0.33073 -0.0549,-0.137179 -0.17409,-0.283757 -0.26459,-0.396875 -0.11862,-0.148278 -0.31009,-0.289462 -0.39687,-0.46302 -0.0687,-0.137407 0.0309,-0.37479 0,-0.529167 -0.0837,-0.418364 -0.14443,-1.514673 -0.0661,-1.984375 0.0563,-0.337783 0.15564,-0.649776 0.19844,-0.992187 0.0109,-0.08751 -0.0279,-0.180915 0,-0.264584 0.0683,-0.204977 0.28192,-0.463021 -0.0661,-0.463021 -0.2382,-0.469719 -0.0715,-0.964526 -0.13283,-1.455211 -0.009,-0.06919 -0.0584,-0.12914 -0.0661,-0.198437 -0.0374,-0.33636 0.022,-0.617501 -0.1323,-0.926042 -0.0697,-0.139448 -0.24424,-0.201007 -0.33073,-0.330729 -0.0385,-0.05784 -0.0291,-0.256688 -0.0661,-0.330729 -0.0279,-0.05578 -0.0977,-0.0804 -0.13229,-0.132292 -0.0694,-0.104044 -0.0703,-0.354164 -0.19844,-0.396875 -0.0418,-0.01395 -0.0905,0.01394 -0.13229,0 -0.16905,-0.05635 -0.29126,-0.353933 -0.46302,-0.396875 -0.0642,-0.01604 -0.13928,0.02958 -0.19844,0 -0.0269,-0.05371 -0.065,-0.164768 -0.13229,-0.198438 -0.18107,-0.09054 -0.34971,0.02358 -0.52917,-0.06615 -0.0711,-0.03555 -0.12733,-0.09674 -0.19844,-0.132292 -0.35277,-0.176389 -0.0441,0.0441 -0.39687,-0.132292 -0.12413,-0.06207 -0.0951,-0.212924 -0.19844,-0.264583 -0.46125,-0.230625 -0.37619,-0.20252 -0.52917,-0.661458 -0.0806,-0.241844 -0.26047,-0.04148 -0.33072,-0.463021 -0.0371,-0.222435 -0.0573,-0.828945 0,-1.058334 0.0775,-0.310178 0.18692,-0.615393 0.26458,-0.926041 0.0972,-0.388726 0.16672,-0.799167 0.26458,-1.190625 0.0546,-0.218539 0.17655,-0.389905 0.26459,-0.595313 0.1469,-0.342776 0.23019,-0.72498 0.39687,-1.058333 0.0493,-0.0986 0.13729,-0.172856 0.19844,-0.264583 0.10939,-0.164088 0.16674,-0.357942 0.26458,-0.529167 0.0309,-0.05415 0.1044,-0.07651 0.13229,-0.132292 0.01,-0.01972 -0.0156,-0.05056 0,-0.06615 0.0156,-0.01559 0.0506,0.01559 0.0661,0 0.0948,-0.09483 0.019,-0.271297 0.0661,-0.396875 0.0279,-0.07444 0.10716,-0.123019 0.1323,-0.198437 0.0209,-0.06275 -0.009,-0.132957 0,-0.198438 0.0441,-0.308641 0.13755,-0.621644 0.19843,-0.926041 0.0534,-0.26692 0.1509,-0.936373 0.0661,-1.190625 -0.0628,-0.188414 -0.22407,-0.422506 -0.39688,-0.595313 0.16323,-0.200255 -0.17992,-0.113775 -0.19843,-0.132291 -0.0156,-0.01559 0.0156,-0.05056 0,-0.06615 -0.0156,-0.01559 -0.0592,0.02092 -0.0661,0 -0.0209,-0.06275 0.0246,-0.137023 0,-0.198438 -0.15394,-0.384844 -0.24302,0.106347 -0.33073,-0.595312 -0.0319,-0.255266 0,-0.535487 0,-0.79375 0,-1.009179 0.10521,-2.092722 -0.13229,-3.042709 -0.0878,-0.351257 0.15801,-1.297199 -0.0661,-1.521354 -0.0156,-0.01559 -0.0464,0.0099 -0.0661,0 -0.0558,-0.02789 -0.0731,-0.112571 -0.13229,-0.132291 -0.0627,-0.02092 -0.15167,0.04677 -0.19844,0 -0.0312,-0.03118 0.0312,-0.101111 0,-0.132292 -0.0156,-0.01559 -0.0441,0 -0.0661,0 -0.0441,-0.0441 -0.0949,-0.0824 -0.13229,-0.132292 -0.11176,-0.14901 -0.19363,-0.25978 -0.33073,-0.396875 -0.0661,-0.06615 -0.1236,-0.142311 -0.19843,-0.198437 -0.0176,-0.01323 -0.0539,0.01835 -0.0662,0 -0.0387,-0.05801 -0.0168,-0.149136 -0.0661,-0.198438 -0.0493,-0.0493 -0.14265,-0.02431 -0.19843,-0.06615 -0.0395,-0.02958 -0.0313,-0.09743 -0.0662,-0.132291 -0.0493,-0.0493 -0.14913,-0.01684 -0.19844,-0.06615 -0.0156,-0.01559 0.0156,-0.05056 0,-0.06615 -0.0156,-0.01559 -0.0441,0 -0.0661,0 -0.022,-0.02205 -0.0489,-0.0402 -0.0661,-0.06615 -0.0221,-0.0441 -0.0441,-0.08819 -0.0661,-0.132291 -0.0221,0 -0.0506,0.01559 -0.0662,0 -0.0156,-0.01559 0.0156,-0.05056 0,-0.06615 -0.0581,-0.142242 -0.23982,-0.107529 -0.33073,-0.198438 -0.43207,-0.432065 0.39629,0.211202 -0.19844,-0.264583 -0.14505,-0.116044 -0.47314,-0.34085 -0.59531,-0.463021 -0.0156,-0.01559 0.0209,-0.05917 0,-0.06615 -0.0837,-0.02789 -0.20222,0.06236 -0.26458,0 -0.0349,-0.03486 -0.0313,-0.09743 -0.0662,-0.132291 -0.0331,-0.03307 -0.0992,-0.03307 -0.13229,-0.06615 -0.0156,-0.01559 0.0197,-0.05629 0,-0.06615 -0.7666,-0.383299 0.0491,0.08251 -0.39688,-0.06615 -0.0659,-0.02196 -0.13256,-0.110335 -0.19843,-0.132292 -0.28243,-0.09414 -0.56854,-0.0079 -0.8599,-0.06614 -0.0483,-0.0097 -0.0837,-0.05804 -0.13229,-0.06615 -0.2755,-0.04592 -0.65804,0.08934 -0.92604,0 -0.39515,-0.131716 -0.7385,-0.168089 -1.12448,-0.264584 -0.10797,-0.02699 -0.88153,0.04452 -0.92604,0 -0.0156,-0.01559 0.0156,-0.05055 0,-0.06614 -0.0156,-0.01559 -0.0478,0.01223 -0.0662,0 -0.0519,-0.03459 -0.0765,-0.104403 -0.13229,-0.132292 -0.29229,-0.146143 -0.68299,-0.03953 -0.99219,-0.132292 -0.17907,0.07349 -0.16,-0.163575 -0.26458,-0.198437 -0.25202,-0.08401 -0.54969,-0.117085 -0.79375,-0.198438 -0.0296,-0.0099 -0.0356,-0.06003 -0.0662,-0.06615 -0.3638,-0.07276 -0.77695,-0.01645 -1.12448,-0.132291 -0.0992,-0.03307 -0.23151,0.03307 -0.33073,0 -0.1593,-0.0531 -0.30579,-0.139478 -0.46302,-0.198438 -0.19815,-0.07431 -0.33657,0.03015 -0.66145,-0.132291 -0.0328,-0.01642 -0.63452,-0.105351 -0.66146,-0.132292 -0.0156,-0.01559 0.0156,-0.05056 0,-0.06615 -0.0156,-0.01559 -0.0464,0.0099 -0.0661,0 -0.11519,-0.0576 -0.21487,-0.227297 -0.26458,-0.264583 -0.0803,-0.0602 -0.51952,-0.239317 -0.59531,-0.264584 -0.0418,-0.01394 -0.0928,0.01972 -0.1323,0 -0.0197,-0.0099 0,-0.0441 0,-0.06614 -0.0441,-0.02205 -0.0855,-0.05056 -0.13229,-0.06615 -0.11414,-0.03805 -0.29058,0.05315 -0.39687,0 -0.31439,-0.157195 -0.37997,-0.148703 -0.72761,-0.264584 -0.24521,-0.08174 0.0806,-0.06614 -0.13229,-0.06614 -0.42514,0.126182 -1.05501,-0.59414 -1.45527,-0.72756 -0.0418,-0.01394 -0.0905,0.01394 -0.13229,0 -0.11641,-0.0388 -0.22798,-0.164189 -0.33073,-0.198437 -0.13631,-0.04544 -0.41433,-0.04617 -0.52916,-0.132292 -0.19706,-0.147792 -0.29109,-0.251368 -0.52917,-0.330729 -0.12898,-0.04299 -0.33335,0.02161 -0.46302,0 -0.25279,-0.04213 -0.4846,-0.203833 -0.72761,-0.264583 -0.57924,-0.144812 1.00368,0.607768 -0.66145,-0.132292 -0.0727,-0.03229 -0.0612,-0.162885 -0.1323,-0.198437 -0.0765,-0.03826 -0.2748,-0.05091 -0.39687,-0.132292 -0.022,-0.02205 -0.0441,-0.0441 -0.0661,-0.06615 0,-0.02205 0.0156,-0.05056 0,-0.06615 -0.0384,-0.03844 -0.20899,-0.03835 -0.26458,-0.06615 -0.0279,-0.01394 -0.0441,-0.0441 -0.0661,-0.06615 -0.0882,-0.0441 -0.17104,-0.101111 -0.26458,-0.132292 -0.20789,-0.0693 -0.44989,0.0044 -0.66146,-0.06615 -0.24424,-0.08141 -0.48223,-0.182793 -0.7276,-0.264583 -0.0962,-0.03207 -0.24122,0.04476 -0.33073,0 -0.0279,-0.01394 -0.0383,-0.0522 -0.0662,-0.06615 -0.0678,-0.03389 -1.10338,-0.02908 -1.19062,0 -0.0296,0.0099 -0.0383,0.0522 -0.0661,0.06615 -0.0399,0.01997 -0.16786,-0.03058 -0.19844,0 -0.15827,0.158276 0.52143,-0.01168 -0.19843,0.132291 -0.0432,0.0086 -0.0905,-0.01394 -0.13229,0 -0.0895,0.02982 -0.17758,0.08879 -0.26459,0.132292 -0.14849,0.07425 -0.43359,-0.01472 -0.59531,0.06615 -0.25048,0.125242 -0.50884,0.259502 -0.79375,0.330729 -0.0382,0.0095 -0.30648,0.02425 -0.33073,0 -0.0312,-0.03118 0.0312,-0.10111 0,-0.132292 -0.0312,-0.03118 -0.10111,0.03118 -0.13229,0 -0.0349,-0.03486 -0.0313,-0.09743 -0.0662,-0.132291 -0.0226,-0.02261 -0.62886,-0.23199 -0.66146,-0.264584 -0.06574,-0.06574 -0.124475,-0.444792 -0.132287,-0.46302 -0.07803,-0.182082 -0.317158,-0.329873 -0.396875,-0.529167 -0.01638,-0.04094 0.01394,-0.09046 0,-0.132292 -0.01972,-0.05916 -0.112571,-0.07313 -0.132292,-0.132291 -0.06582,-0.197445 -0.09593,-0.50941 -0.132291,-0.727605 -0.02175,-0.130491 0.09354,-0.30333 0,-0.396875 -0.01559,-0.01559 -0.05056,0.01559 -0.06615,0 -0.160655,-0.160655 0.01967,-0.09713 -0.132292,-0.198437 -0.04102,-0.02735 -0.10271,-0.0267 -0.132292,-0.06615 -0.04183,-0.05578 -0.01684,-0.149135 -0.06615,-0.198437 -0.03118,-0.03118 -0.09285,0.01972 -0.132292,0 -0.01092,-0.0055 0,-0.180839 0,-0.198438 0,-0.172124 -0.06615,-0.110568 -0.06615,-0.330729 -0.146107,-2.190339 0.05841,-0.17078 -0.198474,-1.455187 -0.015,-0.07499 0.02869,-0.244656 0,-0.33073 -0.06798,-0.203946 -0.142702,-0.153111 -0.264584,-0.396875 -0.01972,-0.03944 0.01395,-0.09046 0,-0.132291 -0.0069,-0.02083 -0.25404,-0.320186 -0.264583,-0.330729 -0.01559,-0.01559 -0.04642,0.0099 -0.06615,0 -0.05578,-0.02789 -0.07651,-0.104403 -0.132292,-0.132292 -0.04682,-0.201683 -0.183272,-0.02549 -0.264583,-0.06615 -0.08859,-0.0443 -0.09165,-0.157799 -0.132292,-0.198437 -0.01559,-0.01559 -0.05628,0.01972 -0.06614,0 -0.04939,-0.09878 -0.016,-0.296579 -0.06615,-0.396875 -0.06742,-0.134841 -0.08856,-0.08856 -0.198438,-0.198438 -0.155012,-0.155012 0.01339,-0.131882 -0.06615,-0.330729 -0.02316,-0.0579 -0.0977,-0.0804 -0.132291,-0.132292 -0.01223,-0.01834 0,-0.0441 0,-0.06615 -0.02205,-0.06615 -0.02747,-0.140423 -0.06615,-0.198437 -0.01223,-0.01835 -0.04642,0.0099 -0.06615,0 -0.131098,-0.06555 -0.208644,-0.249339 -0.330729,-0.330729 -0.18255,-0.1217 -0.191335,-0.07653 -0.330729,-0.132292 -0.07381,-0.02952 -0.124626,-0.102767 -0.198438,-0.132292 -0.198917,-0.07957 -0.514861,0.0048 -0.727604,-0.06614 -0.02958,-0.0099 -0.03656,-0.05629 -0.06615,-0.06615 -0.301031,-0.100344 -0.66782,-0.132292 -0.992187,-0.132292 -0.02724,0 -0.180929,0.01751 -0.198438,0 -0.01559,-0.01559 0.01559,-0.05055 0,-0.06615 -0.0058,-0.0058 -0.427723,-0.05909 -0.463021,-0.06615 -0.08677,-0.01735 -0.382225,0.0606 -0.46302,0 -0.07484,-0.05613 -0.125392,-0.14 -0.198438,-0.198437 -0.0385,-0.0308 -0.09743,-0.03128 -0.132292,-0.06615 -0.08819,-0.08819 0.140317,-0.06347 -0.06615,-0.132292 -0.08693,-0.02898 -0.189296,-0.01595 -0.264584,-0.06614 -0.258862,-0.172575 -0.04765,-0.07681 -0.132291,-0.33073 -0.007,-0.02092 -0.05056,0.01559 -0.06615,0 -0.01559,-0.01559 0.01559,-0.05056 0,-0.06615 -0.01559,-0.01559 -0.05056,0.01559 -0.06615,0 -0.01213,-0.01213 -0.264321,-0.329943 -0.264583,-0.33073 -0.01394,-0.04183 0.01972,-0.09285 0,-0.132291 -0.0099,-0.01972 -0.05917,0.02092 -0.06615,0 -0.02092,-0.06275 0.01604,-0.134267 0,-0.198438 -0.0076,-0.03025 -0.05629,-0.03656 -0.06615,-0.06615 -0.01395,-0.04183 0.01069,-0.08951 0,-0.132291 -0.07985,-0.319415 -0.03143,0.0033 -0.132292,-0.198438 -0.02978,-0.05956 -0.02978,-0.337312 0,-0.396875 0.04324,-0.08648 0.09843,-0.230721 0.132292,-0.264583 0.01559,-0.01559 0.05056,0.01559 0.06615,0 0.01915,-0.01915 0.01915,-0.443866 0,-0.463021 -0.02205,-0.02205 -0.176389,-0.0441 -0.198438,-0.06615 -0.01559,-0.01559 0.01559,-0.05055 0,-0.06615 -0.01559,-0.01559 -0.0441,0 -0.06615,0 -0.02205,-0.02205 -0.04885,-0.0402 -0.06614,-0.06614 -0.04028,-0.06042 -0.05646,-0.160522 -0.132292,-0.198438 -0.162914,-0.08146 0.05971,0.192004 -0.198438,-0.06615 -0.08007,-0.08007 -0.0656,-0.264034 -0.132291,-0.330729 -0.09387,-0.09387 -0.367602,-0.03687 -0.463021,-0.132292 -0.03118,-0.03118 0.03944,-0.11257 0,-0.132291 -0.03944,-0.01972 -0.0956,0.02446 -0.132292,0 -0.04102,-0.02735 -0.03128,-0.09743 -0.06615,-0.132292 -0.01958,-0.01959 -0.304027,-0.08587 -0.396875,-0.132292 -0.09797,-0.04899 -0.361212,0 -0.46302,0 -0.106113,0 -0.401552,0.02517 -0.463021,0.06615 -0.04102,0.02735 -0.03128,0.09743 -0.06615,0.132292 -0.08057,0.08057 -0.147784,0.03098 -0.198438,0.132292 -0.0099,0.01972 0.01559,0.05056 0,0.06614 -0.08838,0.08838 -0.328939,0.130502 -0.396875,0.198438 -0.03424,0.03424 -0.03191,0.230347 -0.06614,0.264583 -0.01559,0.01559 -0.04642,-0.0099 -0.06615,0 -0.07232,0.03616 -0.164283,0.196274 -0.198438,0.264584 -0.01952,0.03904 0,0.153978 0,0.198437 0,0.118727 -0.273964,0.232401 -0.396875,0.330729 -0.07523,0.06019 -0.129768,0.132292 -0.198437,0.132292 -1.976472,0.711814 -3.952945,1.423629 -5.929417,2.135443 z"
       id="kar" /><path
       style="opacity:1;fill:#e9f218;fill-opacity:1;stroke:#000000;stroke-width:0.1;stroke-linecap:round;stroke-linejoin:round;stroke-opacity:0.99187"
       d="m 77.324483,47.823439 0.396875,4.299479 2.248959,3.175001 0.661458,5.291666 3.373438,6.548438 -3.108854,10.517187 1.5875,0.992188 -1.918229,6.945312 -3.439584,-1.322916 h -2.513541 l -2.447396,0.859896 c -0.426851,-0.299035 -0.549797,0.249411 -0.79375,0.330729 -0.06547,0.02182 -0.212888,0.01445 -0.264583,0.06615 -0.03486,0.03486 -0.03128,0.09743 -0.06615,0.132291 -0.04062,0.04062 -0.186469,0.09323 -0.264584,0.132292 -0.09116,0.04558 -0.08898,0.155129 -0.132291,0.198437 -0.04488,0.04488 -0.204048,-0.03027 -0.264584,0 -0.480595,0.240298 0.03841,0.01849 -0.330729,0.264584 -0.05603,0.03735 -0.21893,-0.04565 -0.264583,0 -0.01559,0.01559 0.01559,0.05055 0,0.06615 -0.01559,0.01559 -0.04643,-0.0099 -0.06615,0 -0.302723,0.151361 0.280684,-0.02742 -0.198437,0.132291 -0.05578,0.01859 -0.146203,-0.02612 -0.198438,0 -0.04535,0.02267 -0.343234,0.210942 -0.396875,0.264584 -0.0493,0.0493 -0.0038,0.167256 -0.06615,0.198437 -0.03944,0.01972 -0.09285,-0.01972 -0.132291,0 -0.01972,0.0099 0.01559,0.05056 0,0.06615 -0.03737,0.03737 -0.21531,0.08302 -0.264584,0.132292 -0.103839,0.103839 -0.151042,0.321181 -0.264583,0.396875 -0.04269,0.02846 -0.235937,0.103644 -0.264583,0.132291 -0.06252,0.06252 0.08018,0.149664 -0.06615,0.198438 -0.04183,0.01394 -0.0956,-0.02446 -0.132292,0 -0.186249,0.0041 -0.01684,0.149135 -0.06615,0.198437 -0.01559,0.01559 -0.04642,-0.0099 -0.06615,0 -0.05578,0.02789 -0.0804,0.0977 -0.132291,0.132292 -0.09966,0.06644 -0.245804,0.04737 -0.330729,0.132292 -0.01559,0.01559 0.01834,0.05392 0,0.06615 -0.07564,0.05043 -0.188943,0.01572 -0.264584,0.06615 -0.07271,0.04847 -0.175115,0.228796 -0.264583,0.264584 -0.241981,0.09679 -0.22147,0.01535 -0.396875,0.132291 -0.110746,0.07383 -0.385297,0.147997 -0.463021,0.264584 -0.102893,0.15434 0.09554,0.132291 -0.06615,0.132291 -0.243763,0.0098 -0.272344,0.863769 -0.529138,0.992167 -0.06236,0.03118 -0.140424,0.02747 -0.198438,0.06614 -0.05504,0.03669 0.02092,0.135687 0,0.198438 -0.01245,0.03735 -0.162641,0.180539 -0.198437,0.198437 -0.190298,0.09515 -0.432505,0.218793 -0.661459,0.264584 -0.04324,0.0086 -0.09285,-0.01972 -0.132291,0 -0.05578,0.02789 -0.07651,0.104402 -0.132292,0.132291 -0.287019,0.14351 -0.62367,0.0891 -0.926042,0.132292 -0.843537,0.120506 -1.724548,0.06615 -2.579687,0.06615 -0.433963,0 -1.025725,-0.0859 -1.455209,0 -0.04834,0.0097 -0.08395,0.05648 -0.132291,0.06615 -0.08648,0.0173 -0.202221,-0.06236 -0.264584,0 -0.01559,0.01559 0.01559,0.05056 0,0.06615 -0.03208,0.03208 -0.447294,0 -0.529166,0 -0.239421,0 -0.56257,0.05779 -0.79375,0 -0.04783,-0.01196 -0.08395,-0.05648 -0.132292,-0.06615 -0.08938,-0.01788 -0.308186,0.04434 -0.396875,0 -0.02789,-0.01394 -0.03656,-0.05629 -0.06615,-0.06615 -0.104586,-0.03486 -0.222627,0.02162 -0.330729,0 -0.130272,-0.02605 -0.266194,-0.110512 -0.396875,-0.132292 -0.08699,-0.0145 -0.179022,0.02139 -0.264583,0 -0.09566,-0.02392 -0.171039,-0.10111 -0.264584,-0.132291 -0.107809,-0.03594 -0.289065,-0.03021 -0.396875,-0.06615 -0.196091,-0.06536 -0.391672,-0.147528 -0.595312,-0.198438 -0.03528,-0.0088 -0.174184,0.02425 -0.198438,0 -0.01559,-0.01559 0.01377,-0.04893 0,-0.06615 -0.04734,-0.05918 -0.344588,-0.403804 -0.46302,-0.46302 -0.07062,-0.03531 -0.06168,0.03531 -0.132292,0 -0.126275,-0.06314 -0.240348,-0.156126 -0.330729,-0.264584 -0.04464,-0.05356 -0.01684,-0.149135 -0.06615,-0.198437 -0.0029,-0.0029 -0.391029,-0.192591 -0.396875,-0.198438 -0.03486,-0.03486 -0.03128,-0.09743 -0.06615,-0.132291 -0.136858,-0.136858 0.0053,0.209137 -0.132292,-0.06615 -0.01972,-0.03944 0.04183,-0.118347 0,-0.132292 -0.06275,-0.02092 -0.134836,0.01817 -0.198437,0 -0.208609,-0.0596 -0.394699,-0.330729 -0.595313,-0.330729 L 48.683338,86.254169 45.772921,85.12969 41.275005,83.409898 33.800526,81.359377 21.365109,81.425527 -5.2916617,75.27396 -1.8520784,65.616669 0.79375491,63.830731 0.52917157,62.044794 c 0.56888973,-0.18283 0.61891813,-1.003991 1.12447913,-1.256771 0.2575674,-0.128784 0.466532,0.0084 0.7276042,-0.06615 0.1236177,-0.03532 0.2087623,-0.157782 0.3307292,-0.198437 0.041834,-0.01394 0.1011102,0.03118 0.1322916,0 0.031182,-0.03118 -0.019721,-0.09285 0,-0.132292 0.052578,-0.105156 0.3249653,-0.72184 0.3307292,-0.727604 0.031181,-0.03118 0.1011102,0.03118 0.1322917,0 0.1401145,-0.140115 0.2736644,-0.368343 0.4630208,-0.463021 0.039442,-0.01972 0.1011102,0.03118 0.1322917,0 0.031181,-0.03118 -0.019721,-0.09285 0,-0.132292 0.044097,-0.08819 0.070694,-0.187586 0.1322916,-0.264583 -0.023922,-0.357836 0.1856999,-0.07313 0.2645834,-0.132292 0.074835,-0.05613 0.123602,-0.142311 0.1984375,-0.198437 0.1115581,-0.08367 0.2694461,-0.07566 0.396875,-0.132292 0.090106,-0.04005 0.168327,-0.110901 0.2645833,-0.132292 0.8713791,0 0.1086761,0.07795 0.396875,-0.06614 0.074883,-0.03744 0.4362033,0.0034 0.4630208,0 0.1538321,-0.01923 0.5397769,-0.07145 0.6614584,-0.132292 0.2076397,-0.10382 0.2350455,-0.369694 0.3307291,-0.529167 0.05672,-0.09453 0.1550107,-0.163254 0.1984375,-0.264583 0.026056,-0.0608 -0.00549,-0.13252 0,-0.198438 0.016581,-0.198969 0.03043,-0.398874 0.066146,-0.595312 0.00882,-0.04851 0.054188,-0.08446 0.066146,-0.132292 0.046156,-0.184623 -0.059924,-0.41554 0,-0.595312 0.044234,-0.132702 0.1559313,-0.442245 0.2645833,-0.529167 0.076997,-0.0616 0.1897173,-0.06812 0.2645834,-0.132292 0.1674055,-0.14349 0.2409677,-0.373259 0.3968749,-0.529166 0.3547746,-0.354775 1.0536111,-0.505544 1.5213542,-0.661459 0.1102431,-0.0441 0.2204855,-0.08819 0.3307285,-0.132291 0.02205,-0.0441 0.02387,-0.106926 0.06615,-0.132292 0.152917,-0.09175 0.612064,-0.191909 0.79375,-0.264583 0.107166,-0.04287 0.160522,-0.212553 0.264584,-0.264584 0.07056,-0.03528 0.08842,0.06548 0.132291,-0.06614 0.01394,-0.04183 -0.03118,-0.101111 0,-0.132292 0.03118,-0.03118 0.09285,0.01972 0.132292,0 0.01972,-0.0099 -0.01559,-0.05056 0,-0.06615 0.06428,-0.06428 0.183272,-0.02549 0.264583,-0.06615 0.127547,-0.06377 0.269328,-0.134664 0.396875,-0.198437 0.161231,-0.08062 0.206537,-0.206537 0.330729,-0.330729 0.06401,-0.06401 0.300206,-0.08396 0.396875,-0.132292 0.184294,-0.09215 0.141359,-0.27365 0.264584,-0.396875 0.0806,-0.0806 0.250129,-0.117837 0.330729,-0.198438 0.01559,-0.01559 -0.01559,-0.05056 0,-0.06615 0.118735,-0.118736 0.320627,-0.109442 0.463021,-0.198438 0.07933,-0.04958 0.120604,-0.146548 0.198437,-0.198437 0.156745,-0.104497 0.365604,-0.104974 0.529167,-0.198438 0.156711,-0.08955 0.238451,-0.235675 0.396875,-0.330729 0.187973,-0.112784 0.18718,-0.0183 0.330729,-0.06615 0.238656,-0.07955 0.478998,-0.295214 0.727604,-0.330729 0.215579,-0.0308 1.014736,-0.06051 1.256771,0 0.04014,0.01003 0.272936,0.122659 0.330729,0.132292 0.204963,0.03416 0.458125,-0.05083 0.661459,0 0.213713,0.05343 0.372925,0.132291 0.595312,0.132291 0.163091,0 0.673357,0.0602 0.79375,0 0.137579,-0.06879 0.728931,-0.726277 0.926042,-0.529166 0.03118,0.03118 -0.03944,0.11257 0,0.132291 0.03944,0.01972 0.09285,-0.01972 0.132291,0 0.01972,0.0099 -0.007,0.04523 0,0.06615 0.0281,0.08429 0.09715,0.194298 0.132292,0.264583 0.05065,0.101308 0.117873,0.05173 0.198438,0.132292 0.04052,0.04052 0.05631,0.173111 0.132291,0.198438 0.04183,0.01394 0.09285,-0.01972 0.132292,0 0.07407,0.03703 -0.133777,0.0877 0.198437,0.198437 0.284871,0.09496 0.764632,-0.01851 0.992188,-0.132292 0.207187,-0.103593 0.689271,0.07892 0.926042,0 0.02958,-0.0099 0.03826,-0.0522 0.06614,-0.06614 0.100877,-0.05044 0.304203,0.06178 0.396875,0 0.05189,-0.03459 0.07439,-0.109131 0.132292,-0.132292 0.07877,-0.03151 1.264521,-0.10766 1.389062,-0.06615 0.711485,0.237162 -0.04883,0.04173 0.264584,0.198438 0.157643,0.07882 0.356266,0.111987 0.529166,0.198437 0.102749,0.05137 0.302318,-0.06304 0.396875,0 0.151632,0.101088 0.184558,0.299427 0.33073,0.396875 0.07435,0.04957 0.221753,0.04663 0.264583,0.132292 0.01972,0.03944 -0.01972,0.09285 0,0.132291 0.01824,0.03647 0.181012,0.250643 0.198437,0.264584 0.08702,0.06962 0.886649,0.553097 0.992188,0.595312 0.04094,0.01638 0.09046,-0.01394 0.132292,0 0.05916,0.01972 0.07651,0.104402 0.132291,0.132292 0.01972,0.0099 0.05055,-0.01559 0.06615,0 0.110783,0.110783 -0.112335,0.469297 -0.132292,0.529167 -0.03072,0.09214 -0.03931,0.516698 0,0.595312 0.04697,0.09393 0.14318,0.09085 0.198438,0.132292 0.124726,0.09354 0.201006,0.244247 0.330729,0.330729 0.03107,0.02071 0.167372,0.04543 0.198438,0.06615 0.07817,0.05211 0.09259,0.158732 0.132291,0.198437 0.01559,0.01559 0.04643,-0.0099 0.06615,0 0.104452,0.05223 0.264295,0.297224 0.330729,0.396875 0.02446,0.03669 -0.03118,0.101111 0,0.132292 0.05853,0.05853 0.207899,0.01892 0.264584,0.132292 0.0351,0.07019 0.08092,0.161845 0.132291,0.264583 0.07085,0.141709 0.203458,0.147353 0.264584,0.330729 0.02092,0.06275 -0.02457,0.137023 0,0.198438 0.0638,0.15951 0.146474,0.132291 0.264583,0.132291 l 1.058326,1.058336 2.116667,0.132291 6.283854,7.14375 4.828646,-2.182812 1.653646,-2.778125 4.894791,-4.034896 2.248959,-5.423958 c 0.176389,0.110243 0.339805,0.244655 0.529166,0.330729 0.135525,0.0616 0.841894,0 1.058334,0 0.583071,0 1.137209,0.06615 1.719791,0.06615 0.128376,0 0.708435,0.01917 0.727605,0 0.01559,-0.01559 -0.01559,-0.05056 0,-0.06615 0.148833,-0.148833 0.262354,-0.06503 0.396875,-0.132292 0.05212,-0.02606 0.102969,-0.188663 0.330729,-0.264583 0.06275,-0.02092 0.143401,0.03669 0.198437,0 0.03669,-0.02446 -0.02446,-0.0956 0,-0.132292 0.03144,-0.04716 0.316336,-0.121497 0.330729,-0.132292 0.03944,-0.02958 0.02387,-0.106925 0.06615,-0.132291 0.154868,-0.03872 0.268713,-0.04685 0.396875,-0.132292 0.08596,-0.05731 0.635171,-0.432209 0.727604,-0.463021 0.05931,-0.01977 0.824765,-0.108871 0.859896,-0.132291 0.03669,-0.02446 -0.01972,-0.09285 0,-0.132292 0.004,-0.008 0.187728,-0.05544 0.198438,-0.06615 0.01559,-0.01559 -0.01559,-0.05055 0,-0.06615 0.03352,-0.03352 0.245289,-0.132291 0.264583,-0.132291 0.568273,0.344819 1.05255,0.801581 1.587496,1.190633 0.03987,0.029 0.09743,0.03128 0.132292,0.06615 0.121767,0.121768 0.176704,0.319863 0.330729,0.396875 0.318233,0.159117 0.796143,0.422669 1.124479,0.661459 0.139269,0.101286 0.259111,0.227406 0.396875,0.330729 0.03944,0.02958 0.09743,0.03128 0.132292,0.06615 0.07497,0.07497 0.08881,0.209769 0.198437,0.264583 0.05292,0.02646 0.145521,-0.02646 0.198438,0 0.05578,0.02789 0.07815,0.101351 0.132291,0.132292 0.103092,0.05891 0.224529,0.07919 0.33073,0.132291 0.08713,0.04356 0.177455,0.154874 0.264583,0.198438 0.155189,0.07759 0.48257,0 0.661458,0 0.02205,0 0.05629,0.01972 0.06615,0 0.01972,-0.03944 -0.03118,-0.10111 0,-0.132292 0.03921,-0.03921 1.362358,-0.241371 1.455208,-0.264583 0.455654,-0.113913 0.888791,-0.281816 1.389063,-0.198438 0.297893,0.04965 0.567036,0.206012 0.859896,0.264584 0.159283,0.03186 0.386889,-0.005 0.529166,0.06615 0.127221,0.06361 0.266651,0.221175 0.396875,0.264583 0.04183,0.01394 0.09285,-0.01972 0.132292,0 0.01972,0.0099 -0.01559,0.05056 0,0.06615 0.03118,0.03118 0.08819,0 0.132292,0 0.0441,0 0.10111,0.03118 0.132291,0 0.01489,-0.01489 0.280382,-1.139293 0.33073,-1.256771 0.129846,-0.302976 0.140013,-0.110801 0.330729,-0.396875 0.07006,-0.10509 0.205058,-0.410117 0.264583,-0.529167 0.01972,-0.03944 -0.03118,-0.10111 0,-0.132291 0.01559,-0.01559 0.05392,0.01835 0.06615,0 0.05166,-0.07749 0.05623,-0.254667 0.132292,-0.33073 0.04979,-0.04979 0.294732,-0.16244 0.330729,-0.198437 0.04278,-0.04278 0.105319,-0.290271 0.132291,-0.330729 0.0047,-0.007 0.540022,-0.293869 0.595313,-0.330729 0.136793,-0.0912 0.252476,-0.25853 0.396875,-0.33073 0.04394,-0.02197 0.434711,-0.02123 0.463021,0 0.0636,0.0477 0.07021,0.148776 0.132291,0.198438 0.05445,0.04356 0.136075,0.03496 0.198438,0.06615 0.223735,0.111867 0.393317,0.198437 0.661458,0.198437 0.367374,0 0.180975,0.05239 0.264583,-0.198437 0.05122,-0.153654 0.132292,-0.05825 0.132292,-0.264584 0,-0.18343 -0.0099,0.105588 0.06615,-0.198437 0.01069,-0.04278 -0.0424,-0.144406 0,-0.132292 0.170922,0.04884 0.30868,0.176389 0.46302,0.264583 z"
       id="livizerya" /><path
       style="opacity:1;fill:#e9f218;fill-opacity:1;stroke:#000000;stroke-width:0.1;stroke-linecap:round;stroke-linejoin:round;stroke-opacity:0.99187"
       d="m 71.167338,111.47916 -1.356392,-1.12253 0.701584,-1.21608 -1.262849,-1.59025 1.449937,-2.38538 4.723989,-4.44336 -2.759558,-3.040188 2.011203,-6.03361 5.752977,-6.080381 -3.180507,-1.216077 -2.619242,-0.09354 -2.38538,0.982211 -3.180508,1.309621 -3.507912,2.666014 -0.982216,1.496709 -4.911077,1.028988 -2.104748,-0.187089 -3.040191,-0.888671 -5.846521,-4.490128 -14.920321,-4.817533 -12.020447,0.04677 -27.0343124,-6.220696 -8.8399396,22.731273 0.608038,5.799747 c 0.03852,0.49633 0.19117,0.97311 0.327405,1.44994 0.0623,0.21803 0.02743,-0.0387 0.140317,0.18709 0.05158,0.10316 0.215962,0.68368 0.280633,0.74835 0.01102,0.011 0.03575,-0.011 0.04677,0 0.01102,0.011 -0.007,0.0328 0,0.0468 0.06578,0.13156 0.162431,0.24561 0.233861,0.37418 0.03077,0.0554 0.05629,0.1966 0.09354,0.23386 0.01102,0.011 0.03575,-0.011 0.04677,0 0.09971,0.0997 0.180922,0.27447 0.280633,0.37418 0.02465,0.0246 0.06889,0.0221 0.09355,0.0468 0.05621,0.0562 0.01122,0.16276 0.04677,0.23386 0.03486,0.0697 0.09354,0.12473 0.140316,0.18709 0.04677,0.078 0.09966,0.15255 0.140317,0.23386 0.03893,0.0779 0.200011,0.65481 0.280633,0.65481 0.1715,0.12471 0.339757,0.254 0.514499,0.37412 0.177524,0.12203 0.38018,0.19009 0.561266,0.28063 0.03944,0.0197 0.05573,0.0709 0.09354,0.0935 0.5605136,0.33631 -0.346231,-0.30412 0.4677217,0.37417 0.086368,0.072 0.1918891,0.11807 0.280633,0.18709 0.2145033,0.16684 0.084628,0.0802 0.1870887,0.23386 0.067544,0.10132 0.1945304,0.14776 0.280633,0.23386 0.1296821,0.12969 0.1278945,0.22558 0.280633,0.32741 0.087021,0.058 0.1936124,0.0823 0.280633,0.14032 0.055037,0.0367 0.079519,0.11426 0.1403165,0.14031 0.05732,0.0246 0.1291862,-0.0232 0.1870887,0 0.1043852,0.0418 0.1848842,0.12817 0.280633,0.18709 0.1208795,0.0744 0.6500759,0.3726 0.7951268,0.42095 0.041938,0.014 0.2782487,0.0542 0.3274052,0.0936 0.3088038,0.24704 0.6243545,0.54821 0.9822155,0.70158 0.5704816,0.24449 -0.023383,-0.0818 0.6080382,0.23386 0.2094862,-0.0989 0.1800758,0.13681 0.280633,0.18709 0.2195655,0.10978 0.5527842,0.1265 0.7951268,0.18709 0.08615,0.0215 0.3728118,0.0241 0.4209495,0 0.019721,-0.01 0.025382,-0.0414 0.046772,-0.0468 0.097088,-0.0243 0.2314329,0.032 0.3274051,0 0.1438086,-0.0479 0.2669115,-0.0468 0.4209495,-0.0468 l 6.5013355,-0.23381 c 0.1403165,-0.0624 0.2752785,-0.13853 0.4209495,-0.18709 0.082841,-0.0276 0.1972473,-0.005 0.280633,-0.0468 0.1011761,-0.0506 0.1570486,-0.10942 0.280633,-0.14032 0.1330616,-0.0333 0.3534535,-0.0489 0.4677217,-0.14031 0.024349,-0.0195 -0.013945,-0.0657 0,-0.0936 0.013945,-0.0279 0.064593,0.0116 0.093544,0 0.1337261,0.0851 0.1608975,-0.10383 0.2338608,-0.14031 0.067353,-0.0337 0.1573779,-0.0553 0.2338609,-0.0935 0.039442,-0.0197 0.05171,-0.0796 0.093544,-0.0935 0.029581,-0.01 0.071496,0.0221 0.093544,0 0.022049,-0.022 -0.013945,-0.0657 0,-0.0935 0.00697,-0.0139 0.0338,0.009 0.046772,0 0.055037,-0.0367 0.081154,-0.11073 0.1403165,-0.14031 0.064212,-0.0321 0.2874382,-0.10035 0.3274052,-0.14032 0.011024,-0.011 -0.011024,-0.0358 0,-0.0468 0.086103,-0.0861 0.1625012,-0.20433 0.280633,-0.23386 0.045376,-0.0113 0.095944,0.0148 0.1403165,0 0.2987904,-0.0996 0.456802,-0.39808 0.7015825,-0.56127 0.041022,-0.0273 0.1054546,-0.0119 0.1403165,-0.0468 0.070743,-0.0707 0.1395187,-0.21774 0.2338608,-0.28063 0.058014,-0.0387 0.1335254,-0.0489 0.1870887,-0.0935 0.029429,-0.0245 0.2645595,-0.29526 0.280633,-0.3274 0.00697,-0.014 -0.013945,-0.0398 0,-0.0468 0.027889,-0.0139 0.063963,0.01 0.093544,0 0.1221481,-0.0407 0.1078316,-0.26439 0.2338609,-0.3274 0.013945,-0.007 0.031181,0 0.046772,0 0.093544,-0.0468 0.1898272,-0.0884 0.280633,-0.14032 0.086676,-0.0495 0.1471847,-0.13756 0.2338609,-0.18709 0.4716485,-0.26951 1.2600119,0.002 1.5902529,-0.18708 0.406565,-0.23233 0.772596,-0.52662 1.216077,-0.74836 0.215753,-0.10788 -0.191294,0.0306 0.09354,-0.14032 0.105839,-0.0635 0.612525,-0.1999 0.748355,-0.23386 0.126722,-0.0317 0.264574,-0.0855 0.374177,-0.14031 0.07387,-0.0369 0.194535,-0.0296 0.280634,-0.0468 0.411558,-0.0823 -0.05939,-0.003 0.420948,-0.14031 0.205575,-0.0587 0.453883,0.0285 0.654811,0.0468 0.151821,0.0138 0.648556,-0.0265 0.795127,0.0468 0.03944,0.0197 0.06236,0.0624 0.09354,0.0935 0.09354,0.0156 0.189447,0.0207 0.280634,0.0468 0.136257,0.0389 -0.0087,0.0381 0.04677,0.0935 0.01102,0.011 0.03283,-0.007 0.04677,0 0.05028,0.0251 0.09535,0.0598 0.140317,0.0936 0.07103,0.0533 0.08311,0.12988 0.140315,0.18709 0.03817,0.0382 0.11796,0.0366 0.187089,0.14031 0.122182,0.18328 0.223934,0.35433 0.327405,0.56127 0.0395,0.079 0.124048,0.0305 0.187089,0.0935 0.0493,0.0493 0.05171,0.13131 0.09354,0.18709 0.133963,0.17862 0.325089,0.23077 0.467722,0.42095 0.02958,0.0394 0.02141,0.098 0.04677,0.14032 0.105787,0.17631 0.326778,0.27938 0.420949,0.46772 0.01395,0.0279 -0.01871,0.0686 0,0.0935 0.178997,0.23866 0.280633,0.17568 0.280633,0.46773 l 2.011224,3.64824 2.104747,1.87089 2.525697,1.35639 2.104748,-0.3274 2.478925,1.6838 11.22532,2.29183 7.390002,-1.63702 3.788546,-1.59026 5.940065,0.5145 9.588294,-6.96906 z"
       id="tretolya" /><path
       style="opacity:1;fill:#18e3f2;fill-opacity:1;stroke:#000000;stroke-width:0.1;stroke-linecap:round;stroke-linejoin:round;stroke-opacity:0.99187"
       d="m 93.199483,197.63548 -0.07441,0.0496 c -0.02756,0.008 -0.05518,0.0163 -0.08268,0.0248 -0.01086,0.003 -0.02504,2.3e-4 -0.03307,0.008 -0.0058,0.006 0.0018,0.0526 0,0.0579 -0.0031,0.009 -0.01209,0.0159 -0.01654,0.0248 -0.0038,0.008 0.0056,0.0275 0,0.0331 -0.01102,0.008 -0.02205,0.0165 -0.03307,0.0248 0,0.003 0.0019,0.006 0,0.008 -0.01711,0.0171 6.69e-4,-0.0261 -0.01654,0.008 -0.0099,0.0198 -0.0076,0.0407 -0.02481,0.0579 -0.0062,0.006 -0.01755,0.003 -0.02481,0.008 -0.0019,0.001 3.7e-5,0.033 0,0.0331 -0.0012,0.002 -0.0069,-0.002 -0.0083,0 -0.0108,0.018 -0.01971,0.0375 -0.0248,0.0579 -0.002,0.008 0.0026,0.017 0,0.0248 -0.01484,0.0445 -0.04656,0.0849 -0.06615,0.12403 -0.01131,0.0226 -0.0096,0.0515 -0.02481,0.0744 -0.0022,0.003 -0.0055,0.006 -0.0083,0.008 0,0.006 0.002,0.0114 0,0.0165 -0.0037,0.009 -0.01262,0.0157 -0.01654,0.0248 -0.0202,0.0471 -1.67e-4,0.10022 -0.0083,0.14883 -0.0054,0.0324 -0.0083,0.0587 -0.0083,0.091 0,0.0285 -0.0071,0.17013 0,0.1819 0.0071,0.0118 0.01771,0.0213 0.02481,0.0331 0.0028,0.005 0.0049,0.0214 0.0083,0.0248 0.0019,0.002 0.006,-0.002 0.0083,0 0.02401,0.016 0.01777,0.0202 0.02481,0.0413 0.0044,0.0131 0.02531,0.017 0.03307,0.0248 0.0019,0.002 -0.0015,0.006 0,0.008 0.0082,0.0123 0.03165,0.0365 0.04134,0.0413 0.0055,0.003 0.0028,0.0138 0.0083,0.0165 0.107811,0.0539 -0.0093,-0.0258 0.04134,0.0248 0.0039,0.004 0.01113,-0.001 0.01654,0 0.01114,0.002 0.02252,0.004 0.03307,0.008 0.01562,0.006 0.03238,0.0191 0.04961,0.0248 0.05864,0 0.0048,-0.006 0.03307,0.008 0.01855,0.009 0.05387,-0.002 0.07441,0.008 0.03036,0.0152 0.02873,0.009 0.05788,0.0165 0.0026,6.6e-4 0.03623,0.0153 0.04134,0.0165 0.011,0.003 0.04561,0 0.04961,0 0.02944,0 0.06901,0.005 0.09922,0 0.04727,-0.008 0.09326,-0.0201 0.14056,-0.0248 0.01645,-0.002 0.03324,0.002 0.04961,0 0.0039,-5.5e-4 0.0046,-0.007 0.0083,-0.008 0.03956,-0.0132 0.08428,-0.009 0.124024,-0.0248 0.01156,-0.005 0.01161,-0.0199 0.01654,-0.0248 0.02114,-0.0211 0.04729,-0.0327 0.06615,-0.0579 0.0017,-0.002 -0.0015,-0.006 0,-0.008 0.01608,-0.0241 0.0436,-0.041 0.06615,-0.0579 0.0049,-0.004 0.0033,-0.0128 0.0083,-0.0165 0.0208,-0.0156 0.04385,-0.028 0.06615,-0.0413 0.0053,-0.003 0.01312,-0.003 0.01654,-0.008 0.0082,-0.0123 -2.01e-4,-0.0163 0.0083,-0.0248 0.0019,-0.002 0.0058,0.001 0.0083,0 0.01987,-0.01 0.03939,-0.0207 0.05788,-0.0331 0.002,-0.001 0.04903,-0.0405 0.04961,-0.0413 0.0015,-0.002 -0.0019,-0.006 0,-0.008 0.0044,-0.004 0.01269,-0.003 0.01654,-0.008 0.0077,-0.01 0.01,-0.0226 0.01654,-0.0331 0.0094,-0.015 0.02518,-0.0256 0.03307,-0.0413 0.0036,-0.007 0.0022,-0.0128 0.0083,-0.0248 0.0041,-0.008 -0.0031,-0.0248 0,-0.0331 0.01564,-0.0417 0.03546,-0.0816 0.04961,-0.12403 0.0024,-0.007 -0.0015,-0.0172 0,-0.0248 0.01547,-0.0773 7.76e-4,0.005 0.01654,-0.0579 0.0104,-0.0416 -8.14e-4,-0.18597 -0.0083,-0.22324 -0.0026,-0.013 0.0032,-0.0285 0,-0.0413 -0.01,-0.0399 -0.0039,4.1e-4 -0.01654,-0.0248 -0.0015,-0.003 0.0026,-0.0235 0,-0.0248 -0.0049,-0.002 -0.01264,0.004 -0.01654,0 -0.0039,-0.004 0.0017,-0.0113 0,-0.0165 -0.0031,-0.009 -0.0095,-0.0178 -0.01654,-0.0248 -0.0019,-0.002 -0.0063,0.002 -0.0083,0 -0.01405,-0.0141 -0.01755,-0.0372 -0.03307,-0.0496 -0.0068,-0.005 -0.01755,-0.003 -0.0248,-0.008 -0.0023,-0.002 0.0012,-0.006 0,-0.008 -0.0066,-0.0131 -0.02762,-0.0194 -0.03307,-0.0248 -0.0019,-0.002 0.0019,-0.006 0,-0.008 -0.0033,-0.003 -0.04965,-0.0269 -0.05788,-0.0331 -0.0062,-0.005 -0.0099,-0.0125 -0.01654,-0.0165 -0.01495,-0.009 -0.03511,-0.007 -0.04961,-0.0165 -0.0023,-0.002 0.0012,-0.006 0,-0.008 -0.0044,-0.009 -0.0095,-0.0178 -0.01654,-0.0248 -0.02316,-0.0232 -0.06658,-0.0418 -0.09095,-0.0662 -0.0019,-0.002 0.0019,-0.006 0,-0.008 -0.0097,-0.01 -0.02161,-0.0172 -0.03307,-0.0248 -0.0073,-0.005 -0.01864,-0.002 -0.02481,-0.008 -0.01102,-0.011 0.01754,-0.008 -0.0083,-0.0165 -0.01046,-0.003 -0.02261,0.003 -0.03307,0 -0.0037,-0.001 -0.0055,-0.006 -0.0083,-0.008 -0.0083,-0.003 -0.01626,-0.007 -0.02481,-0.008 -0.01148,-0.002 -0.03101,0.003 -0.04134,0 -0.0026,-8.7e-4 0.0025,-0.007 0,-0.008 -0.0099,-0.005 -0.02226,0.002 -0.03307,0 -0.02728,-0.005 -0.06018,-0.0136 -0.08268,-0.0248 -0.01454,-0.007 -0.103469,0 -0.124024,0 -0.03861,0 -0.0885,-0.009 -0.124023,0.008 -0.02811,0.014 -0.04928,0.039 -0.07442,0.0579 z"
       id="baskent" /><path
       style="opacity:1;fill:#e318f2;fill-opacity:1;stroke:#000000;stroke-width:0.1;stroke-linecap:round;stroke-linejoin:round;stroke-opacity:0.99187"
       d="m 86.981774,57.083856 9.061979,0.06615 3.83646,-2.645837 -3.307292,-7.408334 -4.431771,-1.058333 -0.264583,-2.182812 -2.711979,-2.050521 -1.521354,1.785937 -6.019271,1.984375 c 0.386545,0.328657 0.565445,0.579432 0.926042,0.859896 0.125503,0.09761 0.297551,0.140429 0.396875,0.264583 0.08711,0.108891 0.07736,0.268703 0.132291,0.396875 0.103231,0.240873 0.01977,-0.04638 0.132292,0.06615 0.01559,0.01559 -0.0082,0.04568 0,0.06615 0.03662,0.09155 0.07498,0.184346 0.132292,0.264583 0.236456,0.33104 0.177266,0.04761 0.264583,0.396875 0.02336,0.09345 -0.04144,0.785791 -0.06615,0.859896 -0.0531,0.159301 -0.157711,0.300117 -0.198437,0.463021 -0.01788,0.07152 0.08731,0.772588 0,0.859896 -0.01559,0.01559 -0.05056,-0.01559 -0.06615,0 -0.04365,0.04365 -0.09345,0.212088 -0.198438,0.264583 -0.07695,0.03848 -0.273462,-0.05727 -0.330729,0 -0.01559,0.01559 0.009,0.046 0,0.06615 -0.08009,0.180212 -0.155191,0.365079 -0.264583,0.529167 -0.06919,0.103778 -0.192088,0.16309 -0.264584,0.264583 -0.04053,0.05674 -0.02431,0.142659 -0.06614,0.198438 -0.01054,0.01405 -0.230905,0.09982 -0.132292,0.198437 0.0288,0.0288 0.220225,0.03657 0.264583,0.06615 0.147527,0.09835 0.197222,0.262152 0.264584,0.396875 0.05718,0.114366 0.244201,0.156424 0.330729,0.264583 0.244611,0.305764 0.110873,0.270884 0.264583,0.463021 0.193481,0.241851 0.408267,0.425356 0.529167,0.727604 0.04175,0.104385 0.02439,0.226344 0.06615,0.330729 0.0082,0.02047 0.05056,-0.01559 0.06615,0 0.178739,0.178739 0.226999,0.491583 0.396875,0.661459 0.01559,0.01559 0.05056,-0.01559 0.06615,0 0.134117,0.134116 0.212244,0.314914 0.330729,0.463021 0.137007,0.171258 0.176661,0.08833 0.396875,0.198437 0.07937,0.03969 0.119063,0.15875 0.198438,0.198438 0.05916,0.02958 0.134267,-0.01604 0.198437,0 0.09901,0.02475 0.259597,0.162871 0.33073,0.198437 0.03994,0.01997 0.16786,-0.03058 0.198437,0 0.0049,0.0049 0.159193,0.260469 0.264583,0.330729 0.03473,0.02315 0.176772,0.06729 0.198438,0.132292 0.02092,0.06275 -0.03669,0.143401 0,0.198437 0.06918,0.103779 0.195398,0.160806 0.264583,0.264584 0.17097,0.256454 -0.239689,-0.203274 0.330728,0.595312 z"
       id="batak" /></g></svg>
