<?xml version="1.0" encoding="UTF-8" standalone="no"?>
<!-- Created with Inkscape (http://www.inkscape.org/) -->

<svg
   width="1123mm"
   height="794mm"
   viewBox="0 0 1123 793.99999"
   version="1.1"
   id="svg1"
   xml:space="preserve"
   xmlns="http://www.w3.org/2000/svg"
   xmlns:svg="http://www.w3.org/2000/svg"><defs
     id="defs1" /><g
     id="layer1"
     transform="translate(28.97187,-5.8208356)"><path
       style="fill:#e9f218;fill-opacity:1;stroke:#000000;stroke-width:0.378;stroke-linecap:round;stroke-linejoin:round;stroke-opacity:0.99187"
       d="m 210.73792,706.10873 0.25005,18.00225 123.76545,-0.50005 -0.75009,-18.25226 z"
       id="NM" /><path
       style="fill:#e9f218;fill-opacity:1;stroke:#000000;stroke-width:0.378;stroke-linecap:round;stroke-linejoin:round;stroke-opacity:0.99187"
       d="m 637.16621,350.18926 c -8.285,15.55081 -3.14454,24.84458 4.50054,34.12928 4.11574,4.99841 47.20619,5.0906 53.13165,-1.00015 8.87355,-9.12102 6.88236,-18.23615 0.37497,-31.25389 -6.09593,-12.19484 -49.72231,-17.42606 -58.00727,-1.87524 z"
       id="muk" /><path
       style="fill:#e9f218;fill-opacity:1;stroke:#000000;stroke-width:0.378;stroke-linecap:round;stroke-linejoin:round;stroke-opacity:0.99187"
       d="m 349.48416,405.15969 -5.12716,-4.24317 2.65199,-4.59678 -4.77357,-6.01115 5.48076,-9.01673 17.85668,-16.7959 -10.43113,-11.49191 7.60235,-22.80705 21.74625,-22.98384 -12.02232,-4.59677 -9.90073,-0.35358 -9.01674,3.71276 -12.02232,4.95036 -13.2599,10.07754 -3.71278,5.65756 -18.56387,3.88957 -7.95595,-0.70719 -11.49192,-3.35918 -22.09985,-16.97269 -56.39881,-18.21027 -45.43729,0.17679 -102.1897,-23.51423 -33.41498,85.92421 2.29839,21.92304 c 0.1456,1.87613 0.72262,3.67836 1.23759,5.48078 0.23549,0.82415 0.10368,-0.14629 0.5304,0.7072 5.803866,15.07908 21.461945,22.6991 37.12773,28.2877 0.54359,-0.18106 9.858715,1.88226 18.092278,-1.66946 16.276812,8.05709 32.004232,-19.01653 35.124162,-13.71181 0.9121,1.55081 2.92041,-1.99062 4.59677,-2.8288 0.81555,-0.40779 -0.72309,0.11567 0.35358,-0.53041 0.40007,-0.24003 2.31535,-0.75562 2.82878,-0.88399 0.47901,-0.11983 1.00009,-0.32319 1.41439,-0.53037 9.58564,-4.78819 18.56382,10.67117 18.56382,11.31494 l 7.60243,13.79034 7.95594,7.07197 9.54714,5.12715 7.95594,-1.23757 9.37034,6.36476 42.43171,8.66312 27.93421,-6.18793 14.3207,-6.01119 22.45345,1.94481 36.24375,-26.34304 z"
       id="tretolya" /><path
       style="fill:#e9f218;fill-opacity:1;stroke-width:0;stroke-linecap:round;stroke-linejoin:round;stroke-opacity:0.99187"
       d="m 663.6246,314.077 c 1.91254,1.86822 2.06503,5.31228 0.19842,7.22639 -1.50869,1.54708 -5.51347,0.86141 -6.10192,-0.18188 -0.54212,-0.96117 -0.96698,-5.21384 0.67797,-6.77997 1.26314,-1.20261 3.3251,-2.12094 5.22553,-0.26454 z"
       id="didim" /><path
       style="fill:#e9f218;fill-opacity:1;stroke-width:0;stroke-linecap:round;stroke-linejoin:round;stroke-opacity:0.99187"
       d="m 687.3512,270.62221 c 1.74809,-1.69131 4.62584,-2.61689 6.32578,-0.87719 2.11398,2.16342 1.48392,5.62049 -0.65241,7.76184 -1.73995,1.74404 -4.34904,1.95936 -6.08444,0.21081 -2.175,-2.19147 -1.80791,-4.94854 0.41107,-7.09546 z"
       id="su" /><path
       style="fill:#e9f218;fill-opacity:1;stroke-width:0;stroke-linecap:round;stroke-linejoin:round;stroke-opacity:0.99187"
       d="m 618.03052,497.86744 c 0.968,-0.97679 4.08002,-0.87266 5.05876,0.0934 1.09829,1.08401 1.0168,5.79723 -0.0746,6.88814 -0.97702,0.97656 -2.98506,1.32976 -4.81614,-0.16804 -1.03292,-0.8449 -1.24108,-5.73064 -0.16799,-6.81347 z"
       id="prens" /><path
       style="opacity:1;fill:#ecf218;fill-opacity:1;stroke-width:0;stroke-linecap:round;stroke-linejoin:round;stroke-opacity:0.99187"
       d="m 383.72082,157.69652 26.43264,-9.33356 c 0,0 3.11523,-6.70187 6.27215,-7.39218 4.42733,-0.96811 11.93271,4.55428 12.3203,5.74948 1.99296,0.26184 -1.58431,6.21021 0.0747,8.5122 3.63096,5.0382 17.62173,6.04815 17.62173,6.04815 0,0 8.78434,18.43016 10.37892,28.37402 1.46797,9.15433 16.11353,-5.63476 28.82203,4.48011 8.78841,2.08801 23.81925,7.69086 23.81925,7.69086 l 11.93808,6.31943 14.8892,-0.52799 12.98845,3.6959 c 0,0 3.08806,4.24477 9.39815,3.16792 9.14749,1.46188 11.65819,31.33834 9.18696,32.73512 6.89966,3.22615 3.54993,16.09384 2.53433,17.21234 -8.07177,9.81738 -5.70225,25.44892 -5.70225,25.44892 0,0 4.6983,-0.23108 6.86382,0.52799 9.18585,3.21986 5.59665,15.83957 5.59665,15.83957 l 1.47836,23.12579 c 0,0 15.58004,-0.30181 9.82053,11.82688 -2.49644,5.25715 -3.99358,11.13747 2.21755,17.31794 4.51117,4.4889 11.40449,15.31159 11.40449,15.31159 0,0 3.00549,9.49526 13.41084,21.96421 2.86383,6.23413 4.75188,14.67801 4.75188,14.67801 0,0 -0.92041,3.07394 -0.84478,4.64627 0.52273,10.86761 -7.603,16.47316 -7.603,16.47316 l -11.61569,20.69705 0.52799,42.76686 0.95037,50.89784 -0.63358,12.98845 0.2247,8.59094 -3.49821,10.20536 c 0,0 -1.36081,8.42476 -6.65263,9.71494 4.82443,25.83452 -15.10039,44.45641 -15.10039,44.45641 0,0 -14.11441,18.51139 -9.08136,30.51758 7.43773,36.053 -15.20599,45.40679 -15.20599,45.40679 l -6.96942,5.17426 c 0,0 -4.89979,-0.93041 -12.14367,-1.68955 -12.55076,-12.36794 -31.36236,-2.21754 -31.36236,-2.21754 l -32.31274,8.65896 -8.02539,11.72129 c 0,0 -7.0861,-1.34979 -9.39814,7.70859 -2.80956,2.01017 -9.21144,1.6806 -16.15637,3.59031 -5.03777,-6.38229 -7.88179,-0.64974 -8.76457,-0.52799 -5.5263,0.86803 -12.14367,-4.22388 -12.14367,-4.22388 l -5.49106,-7.8142 -9.08135,-24.28735 -2.53434,-8.55337 -7.60299,-16.15637 0.73918,-10.77091 -2.95672,-5.06866 -4.85747,-15.206 -2.74553,-18.26831 -9.82054,-20.80264 c 0,0 -0.48104,-6.55153 -1.47836,-11.2989 -9.621,-8.23001 -5.04265,-14.2793 -4.96307,-17.00114 -6.8857,-15.32569 -4.77789,-32.36176 -4.64627,-43.82283 6.43354,-5.40791 3.16791,-24.49855 3.16791,-24.49855 l 10.24293,-35.58625 -4.22389,-10.24292 -1.90075,-20.59145 1.90075,-0.63359 -0.10559,-20.80264 -2.85113,-9.60934 -5.59665,-7.7086 10.34853,-6.54702 -8.23658,-4.64628 7.3918,-6.33583 9.60934,-0.95037 -0.21119,-5.59665 9.71494,0.10559 -0.73918,-17.63472 -5.49106,-22.91459 c 0,0 18.52589,-11.0198 23.97056,-15.1004 4.36671,-10.29961 -9.77544,-8.55763 2.32314,-22.06981 1.40189,-6.04937 5.17426,-14.15002 5.17426,-14.15002 l -2.53433,-9.82054 4.54068,-6.44143 -1.58396,-6.65262 2.53433,-3.90709 7.28621,-7.28621 3.8015,-5.06866 -10.34853,-24.18176 -8.87016,-1.16157 1.58396,-11.61568 -1.58396,-14.78361 -5.49105,-11.51009 -4.11829,-10.98211 -4.0127,-8.55337 z"
       id="karbo" /><path
       style="opacity:1;fill:#18d7f2;fill-opacity:1;stroke-width:0;stroke-linecap:round;stroke-linejoin:round;stroke-opacity:0.99187"
       d="m 433.86055,730.05908 c -1.60789,-0.19145 -4.17313,1.66782 -4.38227,3.27351 -0.16368,1.25667 1.59039,3.19751 2.85111,3.32631 1.63889,0.16744 4.4441,-1.68568 4.59348,-3.32631 0.10667,-1.17156 -1.89416,-3.13443 -3.06232,-3.27351 z"
       id="baskent" /><path
       style="opacity:1;fill:#f218f0;fill-opacity:1;stroke-width:0;stroke-linecap:round;stroke-linejoin:round;stroke-opacity:0.99187"
       d="m 460.17347,193.13721 -21.72507,6.38484 -30.26581,-1.32672 -4.89228,-12.76968 -3.64848,-2.98512 1.16088,-4.06309 -7.21404,-12.52092 -1.40965,-5.38981 -5.8044,-3.81432 c 0,0 17.50126,-6.09177 24.46141,-7.4628 0.82406,-2.94651 4.54276,-16.10609 16.91569,-1.57548 3.00297,2.67305 0.16584,7.13112 0.16584,7.13112 l 3.39972,4.47768 15.75481,5.47273 9.03829,22.72009 z"
       id="batak" /><path
       style="opacity:1;fill:#eff218;fill-opacity:1;stroke-width:0;stroke-linecap:round;stroke-linejoin:round;stroke-opacity:0.99187"
       d="m 60.250095,268.84321 101.162445,21.89088 45.10851,0.33169 60.36579,19.23745 c 0,0 21.17519,29.30694 59.03907,16.58401 20.28483,-0.45077 57.38067,-18.90577 57.38067,-18.90577 l 11.52322,-21.77608 -7.85687,-8.4432 15.01013,-31.31019 -17.58999,-29.903 5.98059,-17.70726 -17.12093,-21.108 7.97414,-19.11446 c 0,0 -7.77969,5.27462 -11.37487,7.27053 -9.81031,-5.04009 -10.08493,4.80793 -10.08493,4.80793 l -1.0554,8.32594 -2.22807,-0.11727 c 0,0 2.17969,1.15911 -1.28993,3.40073 -7.57395,-13.94117 -21.108,-1.28993 -21.108,-1.28993 l -20.52166,-12.19573 c 0,0 -10.20138,2.6262 -21.69433,3.04893 -8.79581,-3.32981 -9.96767,16.76913 -9.96767,16.76913 l -22.98426,16.65186 -2.4626,9.61587 -4.9252,7.15327 -14.30653,8.09139 -26.85406,-30.25479 c 0,0 -2.45861,-0.97515 -7.15327,-0.58633 -11.26159,-6.17811 -12.07846,-18.87994 -12.07846,-18.87994 l -10.67127,-5.51153 c 0,0 -7.55773,-1.38111 -10.55399,0.46907 -7.35646,4.54259 -9.90397,-8.63754 -14.30654,-0.82087 -4.40257,-0.50926 -12.07846,-2.1108 -12.07846,-2.1108 l -37.17353,22.74973 -8.67773,9.96767 -13.837464,12.313 0.938133,7.50506 -10.202199,5.15973 -6.918732,31.07567 z"
       id="livizerya" /></g></svg>
