<?xml version='1.0' encoding='utf-8'?>
<svg xmlns="http://www.w3.org/2000/svg" width="1e3" height="1e3" version="1.1" viewBox="0 0 264.58 264.58"> <rect width="264.58" height="264.58" fill="#f7f7f7" style="paint-order:stroke markers fill"/> <g transform="matrix(1.6667 0 0 1.6667 -158.22 233.39)" fill="#fc0" stroke-width=".6"> <circle cx="174.31" cy="-60.658" r="20.204" style="paint-order:fill markers stroke"/> <path d="m174.31-100.35c-1.4658 0-2.6458 1.416-2.6458 3.175v6.8792c0 1.759 1.18 3.175 2.6458 3.175s2.6458-1.416 2.6458-3.175v-6.8792c0-1.759-1.18-3.175-2.6458-3.175z" stroke-linecap="round" stroke-width="3.175" style="paint-order:fill markers stroke"/> <path d="m202.37-88.721c-1.0365-1.0365-2.8722-0.86959-4.116 0.37418l-4.8643 4.8643c-1.2438 1.2438-1.4106 3.0795-0.37418 4.1159s2.8722 0.86958 4.116-0.37418l4.8643-4.8643c1.2438-1.2438 1.4106-3.0795 0.37418-4.1159z" stroke-linecap="round" stroke-width="3.175" style="paint-order:fill markers stroke"/> <path d="m214-60.658c0-1.4658-1.416-2.6458-3.175-2.6458l-6.8792-1e-6c-1.759 1e-6 -3.175 1.18-3.175 2.6458s1.416 2.6458 3.175 2.6458h6.8792c1.759 0 3.175-1.18 3.175-2.6458z" stroke-linecap="round" stroke-width="3.175" style="paint-order:fill markers stroke"/> <path d="m202.37-32.594c1.0365-1.0365 0.86959-2.8722-0.37418-4.1159l-4.8643-4.8643c-1.2438-1.2438-3.0795-1.4106-4.116-0.37418s-0.86959 2.8722 0.37418 4.1159l4.8643 4.8643c1.2438 1.2438 3.0795 1.4106 4.116 0.37418z" stroke-linecap="round" stroke-width="3.175" style="paint-order:fill markers stroke"/> <path d="m174.31-20.97c1.4658 0 2.6458-1.416 2.6458-3.175v-6.8792c0-1.759-1.18-3.175-2.6458-3.175s-2.6458 1.416-2.6458 3.175v6.8792c0 1.7589 1.18 3.175 2.6458 3.175z" stroke-linecap="round" stroke-width="3.175" style="paint-order:fill markers stroke"/> <path d="m146.25-32.594c1.0365 1.0365 2.8722 0.86959 4.116-0.37418l4.8643-4.8643c1.2438-1.2438 1.4106-3.0795 0.37418-4.1159s-2.8722-0.86959-4.116 0.37418l-4.8643 4.8643c-1.2438 1.2438-1.4106 3.0795-0.37418 4.1159z" stroke-linecap="round" stroke-width="3.175" style="paint-order:fill markers stroke"/> <path d="m134.62-60.658c0 1.4658 1.416 2.6458 3.175 2.6458l6.8792-3e-6c1.759 3e-6 3.175-1.18 3.175-2.6458s-1.416-2.6458-3.175-2.6458l-6.8792 4e-6c-1.759-4e-6 -3.175 1.18-3.175 2.6458z" stroke-linecap="round" stroke-width="3.175" style="paint-order:fill markers stroke"/> <path d="m146.25-88.721c-1.0365 1.0365-0.86959 2.8722 0.37418 4.1159l4.8643 4.8643c1.2438 1.2438 3.0795 1.4106 4.116 0.37418s0.86958-2.8722-0.37418-4.1159l-4.8643-4.8643c-1.2438-1.2438-3.0795-1.4106-4.116-0.37418z" stroke-linecap="round" stroke-width="3.175" style="paint-order:fill markers stroke"/> </g> </svg>