<?xml version="1.0" encoding="UTF-8" standalone="no"?>
<!-- Created with Inkscape (http://www.inkscape.org/) -->

<svg
   width="209.99997mm"
   height="240.00002mm"
   viewBox="0 0 209.99997 240.00002"
   version="1.1"
   id="svg1"
   xmlns:xlink="http://www.w3.org/1999/xlink"
   xmlns="http://www.w3.org/2000/svg"
   xmlns:svg="http://www.w3.org/2000/svg">
  <defs
     id="defs1">
    <rect
       x="247.14763"
       y="531.57452"
       width="352.08182"
       height="89.746346"
       id="rect1" />
  </defs>
  <g
     id="text1"
     style="font-size:24.4169px;stroke-width:0;stroke-linecap:round;stroke-linejoin:round;stroke-opacity:0.99187"
     transform="scale(0.75212873,1.3295596)"
     aria-label="φUrφÚrεαΣ (furfüreas)" />
  <g
     id="g10">
    <g
       id="g9"
       style="font-size:24.4169px;stroke-width:0;stroke-linecap:round;stroke-linejoin:round;stroke-opacity:0.99187"
       transform="scale(0.75212874,1.3295596)">
      <path
         d="m 17.925232,12.955838 q 0,3.08788 -2.050638,4.971605 -2.038716,1.883726 -5.245818,2.062561 v 4.745081 H 8.3993029 V 19.990004 Q 6.849402,19.91847 5.5260251,19.441577 4.2145704,18.952763 3.2488629,18.130123 2.2354662,17.247872 1.6751174,16.079485 1.1147686,14.911098 1.1147686,13.313508 q 0,-1.895648 0.7034166,-3.5290055 Q 2.5216017,8.1511454 4.1072696,6.5058659 H 6.8374797 V 6.7085453 Q 5.2160449,7.8888544 4.3337936,9.4745223 3.4515423,11.06019 3.4515423,13.051217 q 0,2.253317 1.3352992,3.624383 1.3472216,1.371067 3.6005391,1.4426 V 6.1958857 q 0.3934364,-0.023845 0.834562,-0.023845 0.453048,-0.011922 0.9180184,-0.011922 3.624384,0 5.698866,1.7883472 2.086405,1.7764249 2.086405,5.007372 z m -2.324851,-0.119223 q 0,-2.193706 -1.335299,-3.4932382 Q 12.929783,8.0319222 10.628776,8.0319222 V 18.1182 q 2.455997,-0.119223 3.70784,-1.502211 1.263765,-1.382989 1.263765,-3.779374 z"
         id="path1" />
      <path
         style="font-size:19.8134px"
         d="m 31.945184,14.037733 q 0,1.567271 -0.348282,2.737887 -0.338608,1.160942 -1.122244,1.934903 -0.744937,0.735263 -1.741412,1.07387 -0.996475,0.338608 -2.321883,0.338608 -1.354431,0 -2.360581,-0.357957 -1.006149,-0.357957 -1.693039,-1.054521 -0.783636,-0.79331 -1.131918,-1.915554 -0.338608,-1.122243 -0.338608,-2.757236 V 5.4177434 h 1.915553 v 8.7167356 q 0,1.170615 0.154793,1.847831 0.164466,0.677216 0.541772,1.228663 0.425679,0.628844 1.151267,0.948102 0.735263,0.319259 1.760761,0.319259 1.035173,0 1.760761,-0.309584 0.725589,-0.319259 1.160942,-0.957777 0.377306,-0.551447 0.532098,-1.257686 0.164467,-0.715914 0.164467,-1.770436 V 5.4177434 h 1.915553 z"
         id="path2" />
      <path
         style="font-size:27.0183px;font-family:'ilkokuma ZeD 1';-inkscape-font-specification:'ilkokuma ZeD 1, '"
         d="m 32.478443,16.04053 7.078794,-5.538752 Q 38.233341,10.15054 38.152286,8.3132961 38.989853,5.8005943 41.394482,7.313619 q 0.729494,0.6484392 0.729494,2.0533908 1.864262,0.189128 4.674166,-0.9456405 1.675134,-0.1621098 0.918622,1.8642627 -8.348655,5.214532 -6.727557,7.808288 3.350269,1.837245 8.186545,-3.161141 1.026695,0.540366 0.810549,0.945641 0.432293,0.810549 -4.106782,3.296232 -2.2155,0.945641 -4.59311,0.513348 -1.891281,-0.432293 -1.9183,-2.647793 -0.216146,-2.188483 5.187514,-6.376319 -0.432293,0.135092 -2.080409,0.378256 -0.756513,0.16211 -1.404952,0.108073 L 33.31601,17.445481 Q 32.397388,16.770024 32.478443,16.04053 Z m 7.132831,-8.0514535 q -0.32422,1.7021528 1.053714,1.3238967 0.216146,-0.4863294 -0.02702,-0.810549 -0.297201,-0.8375673 -1.026695,-0.5133477 z"
         id="path3" />
      <path
         d="m 66.766804,12.955838 q 0,3.08788 -2.050638,4.971605 -2.038716,1.883726 -5.245818,2.062561 v 4.745081 h -2.229473 v -4.745081 q -1.549901,-0.07153 -2.873278,-0.548427 -1.311455,-0.488814 -2.277162,-1.311454 -1.013397,-0.882251 -1.573746,-2.050638 -0.560349,-1.168387 -0.560349,-2.765977 0,-1.895648 0.703417,-3.5290055 0.703417,-1.6333571 2.289084,-3.2786366 h 2.73021 v 0.2026794 q -1.621434,1.1803091 -2.503686,2.765977 -0.882251,1.5856677 -0.882251,3.5766947 0,2.253317 1.335299,3.624383 1.347222,1.371067 3.600539,1.4426 V 6.1958857 q 0.393437,-0.023845 0.834562,-0.023845 0.453048,-0.011922 0.918019,-0.011922 3.624383,0 5.698866,1.7883472 2.086405,1.7764249 2.086405,5.007372 z m -2.324851,-0.119223 q 0,-2.193706 -1.335299,-3.4932382 -1.3353,-1.3114546 -3.636306,-1.3114546 V 18.1182 q 2.455996,-0.119223 3.707839,-1.502211 1.263766,-1.382989 1.263766,-3.779374 z"
         id="path4" />
      <path
         style="font-size:19.8134px"
         d="m 80.786752,14.037733 q 0,1.567271 -0.348282,2.737887 -0.338608,1.160942 -1.122244,1.934903 -0.744937,0.735263 -1.741412,1.07387 -0.996475,0.338608 -2.321883,0.338608 -1.354431,0 -2.360581,-0.357957 -1.006149,-0.357957 -1.693039,-1.054521 -0.783636,-0.79331 -1.131918,-1.915554 -0.338608,-1.122243 -0.338608,-2.757236 V 5.4177434 h 1.915553 v 8.7167356 q 0,1.170615 0.154793,1.847831 0.164466,0.677216 0.541772,1.228663 0.425679,0.628844 1.151267,0.948102 0.735263,0.319259 1.760761,0.319259 1.035173,0 1.760761,-0.309584 0.725589,-0.319259 1.160942,-0.957777 0.377306,-0.551447 0.532098,-1.257686 0.164467,-0.715914 0.164467,-1.770436 V 5.4177434 h 1.915553 z M 78.387473,1.6726553e-5 75.746331,3.6182842 H 74.304829 L 76.036567,1.6726553e-5 Z"
         id="path5" />
      <path
         style="font-size:27.0183px;font-family:'ilkokuma ZeD 1';-inkscape-font-specification:'ilkokuma ZeD 1, '"
         d="m 81.320015,16.04053 7.078794,-5.538752 Q 87.074913,10.15054 86.993858,8.3132961 87.831425,5.8005943 90.236054,7.313619 q 0.729494,0.6484392 0.729494,2.0533908 1.864262,0.189128 4.674165,-0.9456405 1.675135,-0.1621098 0.918623,1.8642627 -8.348655,5.214532 -6.727557,7.808288 3.350269,1.837245 8.186545,-3.161141 1.026695,0.540366 0.810549,0.945641 0.432292,0.810549 -4.106782,3.296232 -2.2155,0.945641 -4.593111,0.513348 -1.891281,-0.432293 -1.918299,-2.647793 -0.216146,-2.188483 5.187514,-6.376319 -0.432293,0.135092 -2.080409,0.378256 -0.756513,0.16211 -1.404952,0.108073 l -7.754252,6.295264 Q 81.23896,16.770024 81.320015,16.04053 Z m 7.132831,-8.0514535 q -0.32422,1.7021528 1.053713,1.3238967 0.216147,-0.4863294 -0.02702,-0.810549 Q 89.18234,7.6648569 88.452846,7.9890765 Z"
         id="path6" />
      <path
         d="m 109.55184,19.060063 q -1.27569,0.572271 -2.50369,0.82264 -1.22799,0.250369 -2.59906,0.250369 -0.94186,0 -1.91949,-0.190757 -0.97763,-0.190757 -1.8122,-0.66765 -0.822635,-0.46497 -1.347217,-1.216076 -0.512659,-0.763028 -0.512659,-1.883726 0,-1.144542 0.667649,-2.002949 0.679577,-0.858406 2.122177,-1.311454 v -0.08346 q -1.08494,-0.286135 -1.72874,-1.073008 -0.643805,-0.786873 -0.643805,-1.8837256 0,-1.061086 0.560349,-1.7525802 0.572266,-0.7034166 1.347226,-1.1087753 0.76302,-0.3934364 1.72873,-0.5841934 0.96571,-0.1907571 1.90757,-0.1907571 1.16839,0 2.14602,0.2026794 0.97763,0.190757 2.05064,0.5245818 v 2.4679192 h -0.15499 q -0.78688,-0.6080381 -1.95526,-0.9418629 -1.15647,-0.3338248 -2.3487,-0.3338248 -0.5365,0 -1.00147,0.071534 -0.46497,0.059612 -0.96571,0.2980579 -0.41728,0.1788347 -0.72726,0.5841934 -0.29806,0.3934364 -0.29806,0.9180182 0,0.7272615 0.33382,1.1326195 0.33383,0.405359 0.9061,0.584194 0.5365,0.166912 1.15646,0.190757 0.61996,0.01192 1.25185,0.01192 h 1.32337 v 1.979104 h -1.88372 q -0.73918,0 -1.3353,0.05961 -0.59612,0.04769 -1.09685,0.250369 -0.48882,0.202679 -0.78688,0.643805 -0.28613,0.441125 -0.28613,1.144542 0,0.631883 0.30998,1.073008 0.30998,0.441126 0.79879,0.691494 0.44113,0.226524 1.03724,0.345748 0.60804,0.119223 1.27569,0.119223 1.21608,0 2.59907,-0.429204 1.38299,-0.429203 2.22947,-1.168386 h 0.15499 z m 13.53182,0.763029 h -2.24139 v -1.394911 q -0.96571,0.834562 -2.01487,1.299532 -1.04917,0.46497 -2.27717,0.46497 -2.38446,0 -3.79129,-1.836036 -1.39491,-1.836037 -1.39491,-5.090829 0,-1.692968 0.47689,-3.016345 0.48881,-1.3233772 1.31145,-2.2533177 0.81072,-0.906096 1.88373,-1.3829886 1.08493,-0.4768925 2.24139,-0.4768925 1.04917,0 1.85989,0.2622909 0.81071,0.2622909 1.70489,0.7272612 V 6.5058659 h 2.24139 z m -2.24139,-3.278637 V 8.9618628 q -0.9061,-0.4053587 -1.62144,-0.5841935 -0.71534,-0.190757 -1.56182,-0.190757 -1.88373,0 -2.93289,1.3114546 -1.04916,1.3114551 -1.04916,3.7197621 0,2.372541 0.81071,3.612462 0.81072,1.227998 2.59907,1.227998 0.95378,0 1.93141,-0.417281 0.97763,-0.429203 1.82412,-1.096853 z"
         id="path7" />
      <path
         style="font-size:19.8134px"
         d="m 137.67267,19.823092 h -11.24179 v -1.780111 l 5.9982,-5.804707 -5.80471,-5.088793 V 5.4177434 h 10.60327 v 1.702714 h -8.04919 l 5.66926,4.8953026 v 0.251538 l -6.09494,5.853079 h 8.9199 z"
         id="path8" />
      <path
         d="m 156.53033,24.735085 h -2.73021 q -2.11025,-2.42023 -3.27863,-5.281585 -1.16839,-2.861356 -1.16839,-6.449973 0,-3.5886163 1.16839,-6.4499718 1.16838,-2.8613556 3.27863,-5.2815855 h 2.73021 v 0.1192232 q -0.9657,0.870329 -1.84796,2.0148712 -0.87032,1.1326199 -1.62143,2.6467539 -0.71534,1.4664447 -1.16839,3.2309473 -0.44112,1.7645027 -0.44112,3.7197617 0,2.038716 0.4292,3.731685 0.44113,1.692969 1.18031,3.219025 0.71534,1.466445 1.63336,2.646754 0.91801,1.192231 1.83603,2.014871 z M 167.65385,3.441831 h -0.11922 q -0.36959,-0.1073008 -0.96571,-0.2146016 -0.59611,-0.1192232 -1.04916,-0.1192232 -1.4426,0 -2.09833,0.643805 -0.6438,0.6318827 -0.6438,2.3010068 v 0.4530479 h 4.04166 v 1.8837257 h -3.97013 V 19.823092 h -2.24139 V 8.3895916 h -1.51414 V 6.5058659 h 1.51414 V 6.0647403 q 0,-2.3725407 1.1803,-3.636306 1.18031,-1.2756877 3.40979,-1.2756877 0.7511,0 1.34722,0.071534 0.60804,0.071534 1.10877,0.1669124 z m 12.45882,16.381261 h -2.2414 v -1.478368 q -1.13262,0.894174 -2.16986,1.371067 -1.03724,0.476892 -2.28908,0.476892 -2.09833,0 -3.26672,-1.275687 -1.16839,-1.28761 -1.16839,-3.767452 V 6.5058659 h 2.2414 v 7.5825921 q 0,1.013397 0.0954,1.740658 0.0954,0.715339 0.40536,1.227998 0.3219,0.524582 0.83456,0.763029 0.51266,0.238446 1.49029,0.238446 0.87033,0 1.89565,-0.453048 1.03724,-0.453048 1.93141,-1.156465 V 6.5058659 h 2.2414 z M 192.83378,8.9499404 h -0.11922 q -0.50074,-0.1192231 -0.97763,-0.1669124 -0.46497,-0.059611 -1.10878,-0.059611 -1.03724,0 -2.00295,0.4649702 -0.9657,0.453048 -1.85988,1.1803093 v 9.454396 h -2.24139 V 6.5058659 h 2.24139 v 1.967182 q 1.3353,-1.0730084 2.3487,-1.514134 1.02532,-0.453048 2.0864,-0.453048 0.5842,0 0.84649,0.035767 0.26229,0.023845 0.78687,0.1073008 z m 9.27556,-5.5081094 h -0.11922 q -0.36959,-0.1073008 -0.96571,-0.2146016 -0.59611,-0.1192232 -1.04916,-0.1192232 -1.4426,0 -2.09833,0.643805 -0.6438,0.6318827 -0.6438,2.3010068 v 0.4530479 h 4.04166 v 1.8837257 h -3.97013 V 19.823092 h -2.24139 V 8.3895916 h -1.51414 V 6.5058659 h 1.51414 V 6.0647403 q 0,-2.3725407 1.1803,-3.636306 1.18031,-1.2756877 3.40979,-1.2756877 0.7511,0 1.34722,0.071534 0.60804,0.071534 1.10877,0.1669124 z m 12.45882,16.381261 h -2.2414 v -1.478368 q -1.13262,0.894174 -2.16986,1.371067 -1.03724,0.476892 -2.28908,0.476892 -2.09833,0 -3.26672,-1.275687 -1.16839,-1.28761 -1.16839,-3.767452 V 6.5058659 h 2.2414 v 7.5825921 q 0,1.013397 0.0954,1.740658 0.0954,0.715339 0.40536,1.227998 0.3219,0.524582 0.83456,0.763029 0.51266,0.238446 1.49029,0.238446 0.87033,0 1.89565,-0.453048 1.03724,-0.453048 1.93141,-1.156465 V 6.5058659 h 2.2414 z M 212.70828,4.2763931 h -2.37255 V 1.9515417 h 2.37255 z m -4.92392,0 h -2.37254 V 1.9515417 h 2.37254 z m 19.50491,4.6735473 h -0.11922 q -0.50074,-0.1192231 -0.97763,-0.1669124 -0.46497,-0.059611 -1.10878,-0.059611 -1.03724,0 -2.00295,0.4649702 -0.9657,0.453048 -1.85988,1.1803093 v 9.454396 h -2.24139 V 6.5058659 h 2.24139 v 1.967182 q 1.3353,-1.0730084 2.3487,-1.514134 1.02532,-0.453048 2.0864,-0.453048 0.5842,0 0.84649,0.035767 0.26229,0.023845 0.78687,0.1073008 z m 13.25762,4.4470236 h -9.81207 q 0,1.227998 0.36959,2.146017 0.36959,0.906095 1.0134,1.490289 0.61996,0.572271 1.46644,0.858407 0.85841,0.286135 1.88373,0.286135 1.35914,0 2.73021,-0.536504 1.38299,-0.548427 1.96718,-1.073008 h 0.11923 v 2.444074 q -1.13262,0.476893 -2.31293,0.798795 -1.18031,0.321903 -2.47985,0.321903 -3.3144,0 -5.17428,-1.788348 -1.85988,-1.800269 -1.85988,-5.10275 0,-3.2667145 1.77642,-5.1862072 1.78835,-1.9194926 4.6974,-1.9194926 2.69444,0 4.14896,1.5737455 1.46645,1.5737456 1.46645,4.4708683 z m -2.18179,-1.716813 q -0.0119,-1.7645031 -0.89417,-2.7302106 -0.87033,-0.9657075 -2.65868,-0.9657075 -1.80027,0 -2.87327,1.0610861 -1.06109,1.061086 -1.20416,2.634832 z m 15.92822,8.142941 h -2.22947 v -1.418756 q -0.29806,0.202679 -0.81072,0.572271 -0.50074,0.35767 -0.97763,0.572271 -0.56035,0.274214 -1.28761,0.453048 -0.72726,0.190757 -1.70489,0.190757 -1.80027,0 -3.05212,-1.192231 -1.25184,-1.192232 -1.25184,-3.04019 0,-1.514134 0.64381,-2.444075 0.65572,-0.941863 1.85988,-1.478367 1.21607,-0.536504 2.92096,-0.727261 1.7049,-0.190757 3.66016,-0.286136 v -0.345747 q 0,-0.7630281 -0.27422,-1.2637653 -0.26229,-0.5007372 -0.76303,-0.7868728 -0.47689,-0.2742132 -1.14454,-0.3695917 -0.66765,-0.095379 -1.39491,-0.095379 -0.88225,0 -1.96718,0.2384463 -1.08493,0.2265239 -2.2414,0.6676496 h -0.11922 V 6.7920015 q 0.65573,-0.1788348 1.89565,-0.3934364 1.23992,-0.2146017 2.44407,-0.2146017 1.40684,0 2.44408,0.2384463 1.04916,0.226524 1.81219,0.7868728 0.75111,0.5484265 1.14454,1.4187554 0.39344,0.870329 0.39344,2.1579391 z m -2.22947,-3.278637 v -3.70784 q -1.02532,0.05961 -2.42023,0.178835 -1.38299,0.119223 -2.19371,0.345747 -0.96571,0.274213 -1.56182,0.858407 -0.59612,0.572271 -0.59612,1.585667 0,1.144543 0.69149,1.728736 0.6915,0.572271 2.11025,0.572271 1.18031,0 2.15794,-0.453048 0.97763,-0.46497 1.8122,-1.108775 z m 16.05935,-0.560349 q 0,1.824114 -1.51413,2.992501 -1.50222,1.168387 -4.1132,1.168387 -1.47837,0 -2.71829,-0.345747 -1.228,-0.35767 -2.06256,-0.774951 v -2.515608 h 0.11922 q 1.06109,0.798795 2.36062,1.275688 1.29953,0.46497 2.49176,0.46497 1.47837,0 2.31293,-0.476893 0.83457,-0.476892 0.83457,-1.502211 0,-0.786873 -0.45305,-1.192232 -0.45305,-0.405358 -1.74066,-0.691494 -0.47689,-0.107301 -1.25184,-0.250369 -0.76303,-0.143067 -1.39491,-0.30998 -1.75258,-0.46497 -2.49177,-1.359144 -0.72726,-0.906096 -0.72726,-2.21755 0,-0.82264 0.33383,-1.5499012 0.34574,-0.7272612 1.03724,-1.2995323 0.66765,-0.5603488 1.69297,-0.8822513 1.03724,-0.3338248 2.31293,-0.3338248 1.19223,0 2.4083,0.2980579 1.228,0.2861355 2.03872,0.7034166 v 2.3963852 h -0.11922 q -0.85841,-0.6318827 -2.08641,-1.061086 -1.228,-0.4411256 -2.40831,-0.4411256 -1.228,0 -2.07448,0.4768926 -0.84648,0.4649702 -0.84648,1.3949108 0,0.8226401 0.51266,1.2399211 0.50073,0.417281 1.62143,0.679572 0.61996,0.143067 1.38299,0.286135 0.77495,0.143068 1.28761,0.262291 1.56182,0.357669 2.40831,1.227998 0.84648,0.882252 0.84648,2.336774 z m 9.93128,-2.980579 q 0,3.588617 -1.16839,6.449973 -1.16839,2.861355 -3.27863,5.281585 h -2.73021 v -0.119223 q 0.91801,-0.82264 1.83603,-2.014871 0.92994,-1.180309 1.63336,-2.646754 0.73918,-1.526056 1.16839,-3.219025 0.44112,-1.692969 0.44112,-3.731685 0,-1.955259 -0.44112,-3.7197617 Q 275.0739,7.5192627 274.34664,6.052818 273.59553,4.538684 272.71328,3.4060641 271.84295,2.2615219 270.87725,1.3911929 V 1.2719697 h 2.73021 q 2.11024,2.4202299 3.27863,5.2815855 1.16839,2.8613555 1.16839,6.4499718 z"
         id="path9" />
    </g>
    <g
       id="g16"
       transform="matrix(2.1126402,0,0,2.0077905,-156.6767,-353.79716)"
       style="stroke:#000000;stroke-opacity:1">
      <ellipse
         style="fill:none;fill-opacity:1;stroke:#000000;stroke-width:1.5;stroke-linecap:round;stroke-linejoin:round;stroke-dasharray:none;stroke-opacity:1"
         id="path11"
         cx="123.8624"
         cy="246.30406"
         rx="48.950836"
         ry="48.69252" />
      <path
         style="fill:none;fill-opacity:1;stroke:#000000;stroke-width:1.5;stroke-linecap:round;stroke-linejoin:round;stroke-dasharray:none;stroke-opacity:1"
         d="m 86.53578,214.59582 c 0,0 26.43278,9.81674 39.00568,9.62226 12.5729,-0.19447 35.13094,-9.36395 35.13094,-9.36395"
         id="path12" />
      <path
         style="fill:none;fill-opacity:1;stroke:#000000;stroke-width:1.96371;stroke-linecap:round;stroke-linejoin:round;stroke-dasharray:none;stroke-opacity:1"
         d="m 81.38496,268.39636 c 0,0 30.44895,14.6052 44.93215,14.31586 14.4832,-0.28934 40.46866,-13.93154 40.46866,-13.93154"
         id="path12-1" />
      <path
         style="fill:none;fill-opacity:1;stroke:#000000;stroke-width:1.578;stroke-linecap:round;stroke-linejoin:round;stroke-dasharray:none;stroke-opacity:1"
         d="m 80.953249,268.00837 c 0,0 3.879536,-14.94005 4.976419,-24.08945 1.096886,-9.14939 1.707612,-29.27014 1.707612,-29.27014"
         id="path12-2" />
      <path
         style="fill:none;fill-opacity:1;stroke:#000000;stroke-width:1.578;stroke-linecap:round;stroke-linejoin:round;stroke-dasharray:none;stroke-opacity:1"
         d="m 167.37315,268.74599 c 0,0 -3.87954,-15.06135 -4.97642,-24.24504 -1.09688,-9.18368 -1.70761,-29.32353 -1.70761,-29.32353"
         id="path12-2-8" />
      <path
         style="fill:none;fill-opacity:1;stroke:#000000;stroke-width:1.578;stroke-linecap:round;stroke-linejoin:round;stroke-dasharray:none;stroke-opacity:1"
         d="m 122.9583,198.25735 0.64579,25.83157"
         id="path13" />
      <path
         style="fill:none;fill-opacity:1;stroke:#000000;stroke-width:1.578;stroke-linecap:round;stroke-linejoin:round;stroke-dasharray:none;stroke-opacity:1"
         d="m 126.20167,197.37446 0.64579,25.83157"
         id="path13-8" />
      <path
         style="fill:none;fill-opacity:1;stroke:#000000;stroke-width:1.578;stroke-linecap:round;stroke-linejoin:round;stroke-dasharray:none;stroke-opacity:1"
         d="m 123.60409,282.98492 0.12916,11.88251"
         id="path14" />
      <use
         x="0"
         y="0"
         xlink:href="#path14"
         id="use14"
         transform="translate(3.1750001,-0.52916643)"
         style="stroke:#000000;stroke-opacity:1" />
      <path
         style="fill:none;fill-opacity:1;stroke:#000000;stroke-width:1.578;stroke-linecap:round;stroke-linejoin:round;stroke-dasharray:none;stroke-opacity:1"
         d="m 113.11723,250.8246 23.50673,0.25832 -11.62421,15.49895 z"
         id="path15" />
      <path
         style="fill:none;fill-opacity:1;stroke:#000000;stroke-width:1.578;stroke-linecap:round;stroke-linejoin:round;stroke-dasharray:none;stroke-opacity:1"
         d="m 113.27006,250.69649 5.98202,-7.07795 5.95918,7.23778 6.30165,-7.30627 4.81758,7.37477"
         id="path16" />
    </g>
  </g>
</svg>
