<?xml version="1.0" encoding="UTF-8" standalone="no"?>
<!-- Created with Inkscape (http://www.inkscape.org/) -->

<svg
   width="209.96858mm"
   height="240.0015mm"
   viewBox="0 0 209.96858 240.0015"
   version="1.1"
   id="svg1"
   xmlns="http://www.w3.org/2000/svg"
   xmlns:svg="http://www.w3.org/2000/svg">
  <defs
     id="defs1" />
  <g
     id="layer1"
     transform="translate(0.27880217,-37.309215)">
    <text
       xml:space="preserve"
       style="font-size:27.8694px;text-align:start;writing-mode:lr-tb;direction:ltr;text-anchor:start;fill:none;fill-opacity:1;stroke:#000000;stroke-width:2;stroke-dasharray:none;stroke-opacity:1"
       x="24.023365"
       y="67.807884"
       id="text10"><tspan
         id="tspan10"
         style="stroke-width:2"
         x="24.023365"
         y="67.807884"></tspan></text>
    <g
       id="g31">
      <g
         id="g30"
         transform="matrix(0.99970748,0,0,1.0420117,0.03085373,-11.61785)">
        <ellipse
           style="fill:none;stroke:#000000;stroke-width:2.91349;stroke-dasharray:none;stroke-opacity:1"
           id="path1"
           cx="105.47507"
           cy="184.30856"
           rx="102.78846"
           ry="91.514267" />
        <ellipse
           style="fill:none;stroke:#000000;stroke-width:1.92522;stroke-dasharray:none;stroke-opacity:1"
           id="path2"
           cx="24.517584"
           cy="186.33403"
           rx="20.514114"
           ry="9.6208277" />
        <ellipse
           style="fill:none;stroke:#000000;stroke-width:1.92522;stroke-dasharray:none;stroke-opacity:1"
           id="path2-8"
           cx="186.78105"
           cy="186.01913"
           rx="20.514114"
           ry="9.6208277" />
        <path
           style="fill:none;stroke:#000000;stroke-width:1.92522;stroke-dasharray:none;stroke-opacity:1"
           d="M 45.433643,186.18482 165.62347,186.06548"
           id="path3" />
        <path
           style="fill:none;fill-rule:evenodd;stroke:#000000;stroke-width:2;stroke-dasharray:none"
           id="path4"
           d="m 105.02767,198.54797 c 3.20535,-0.8517 2.72948,3.90054 1.41559,5.3275 -3.56058,3.86695 -9.659948,1.28218 -12.070572,-2.49632 -4.31204,-6.75886 -0.235114,-15.44894 6.408222,-18.81365 9.74937,-4.93785 21.3326,0.79836 25.55673,10.32013 5.6301,12.69101 -1.82338,27.25196 -14.23204,32.2998 -15.615026,6.3522 -33.188862,-2.84346 -39.042878,-18.14394 -7.089998,-18.53092 3.8606,-39.13575 22.055846,-45.78596 21.442462,-7.83704 45.088882,4.87587 52.529042,25.96775 8.58995,24.35142 -5.88989,51.04617 -29.87966,59.27212 -27.258704,9.34684 -57.006384,-6.90304 -66.015195,-33.79156 -10.106525,-30.16486 7.915564,-62.96872 37.703467,-72.75828 33.070218,-10.86825 68.932658,8.92763 79.501348,41.61538"
           transform="matrix(1.0027642,0,0,0.92406309,-0.02608765,2.8631792)" />
        <path
           style="fill:#000000;fill-opacity:1;stroke:#000000;stroke-width:1.92522;stroke-dasharray:none;stroke-opacity:1"
           d="m 108.03933,186.33403 -0.18316,-60.76312"
           id="path5" />
        <path
           style="fill:none;fill-opacity:1;stroke:#000000;stroke-width:1.92522;stroke-dasharray:none;stroke-opacity:1"
           d="M 107.99354,126.07727 107.76459,113.3339"
           id="path8" />
        <path
           style="fill:none;fill-opacity:1;stroke:#000000;stroke-width:1.92522;stroke-dasharray:none;stroke-opacity:1"
           d="m 107.94926,125.35384 c 0,0 4.1323,-1.56012 6.92472,-4.67385 2.65505,-2.69175 3.23789,-6.15838 3.23789,-6.15838"
           id="path9" />
        <path
           style="fill:none;fill-opacity:1;stroke:#000000;stroke-width:1.92522;stroke-dasharray:none;stroke-opacity:1"
           d="m 107.90195,125.14895 c 0,0 -4.29938,-1.37415 -7.1433,-3.92429 -2.569174,-2.21256 -4.075345,-5.61214 -4.075345,-5.61214"
           id="path10" />
      </g>
      <g
         id="g29"
         transform="matrix(1.0027642,0,0,0.92406309,-0.02608765,2.8631792)">
        <g
           id="text11"
           style="font-size:54.2726px;stroke:#000000"
           transform="scale(0.95506967,1.047044)"
           aria-label="وαΣU (su)">
          <path
             style="font-size:75.5695px;font-family:'Times New Roman';-inkscape-font-specification:'Times New Roman, '"
             d="m 31.244507,57.725142 q 0,6.088363 -4.501699,12.102928 -5.018288,6.715649 -11.58634,6.715649 -2.435346,0 -5.018288,-0.553487 Q 8.2563226,75.584341 5.2305905,74.588063 2.8321443,73.739382 0.43369817,72.9276 L 1.0609841,71.636129 q 2.0663536,0.47969 4.3172031,0.996278 2.2877486,0.553488 4.0958081,0.553488 4.5016987,0 8.5237087,-2.287749 3.13643,-1.808059 6.272859,-5.239682 1.586665,-1.734261 4.501699,-5.645574 -4.981388,0 -7.453633,-1.586664 -2.804337,-1.808059 -2.804337,-5.940767 0,-3.800614 1.771161,-7.047742 2.066353,-3.763715 5.239682,-3.763715 3.210228,0 4.612396,3.726816 1.106976,2.915035 1.106976,8.117818 z m -2.324648,-4.02201 q -0.811782,-3.542321 -1.955656,-4.90759 -0.996278,-1.180773 -2.435346,-1.180773 -1.033176,0 -1.808059,0.701084 -0.737984,0.664185 -0.737984,1.697362 0,1.808059 1.623564,2.767438 1.623564,0.922479 5.313481,0.922479 z"
             id="path26" />
          <path
             style="font-size:68.6999px;font-family:'Times New Roman';-inkscape-font-specification:'Times New Roman, '"
             d="m 57.677866,40.023447 h 5.702628 l -3.455122,15.531275 q -1.006346,4.427923 -1.37534,5.43427 1.341795,6.172256 3.891206,6.172256 3.019038,0 3.119673,-4.159564 h 1.207615 q -0.100635,3.891205 -1.442429,6.306436 -1.308251,2.381686 -3.455122,2.381686 -1.777879,0 -2.650045,-1.44243 -0.872167,-1.442429 -1.878513,-5.903897 -3.488667,7.346327 -11.405256,7.346327 -5.400725,0 -8.587488,-4.193109 -3.186763,-4.226654 -3.186763,-12.076154 0,-7.715321 3.488667,-12.009064 3.488667,-4.293744 8.386218,-4.293744 3.455122,0 5.669083,2.448776 2.213962,2.448775 3.924751,7.983679 z m -2.951949,13.149589 q -1.576609,-5.400724 -3.522212,-8.419762 -1.945602,-3.052584 -4.662737,-3.052584 -6.138711,0 -6.138711,14.357205 0,13.619218 5.870352,13.619218 5.098821,0 7.547596,-12.009064 z"
             id="path27" />
          <path
             style="font-size:48.0895px;font-family:'Times New Roman';-inkscape-font-specification:'Times New Roman, '"
             d="m 67.989554,38.91004 h 23.880381 l 0.633993,8.00709 H 91.611642 Q 91.447274,44.545529 90.813281,43.301025 90.179289,42.03304 89.075672,41.469491 87.972056,40.905942 85.576973,40.905942 H 74.705177 l 9.697736,12.445037 -11.036164,13.032067 h 12.092818 q 3.287369,0 5.024977,-1.056654 1.737609,-1.056654 2.606414,-4.414466 l 0.892285,0.211331 -1.361909,9.627292 H 67.989554 V 69.905226 L 80.246741,55.440806 67.989554,39.755363 Z"
             id="path28" />
          <path
             style="font-size:49.4637px;font-family:'Times New Roman';-inkscape-font-specification:'Times New Roman, '"
             d="M 118.82445,38.893802 V 38.00017 h 11.59305 v 0.893632 h -1.23176 q -1.93218,0 -2.97072,1.618197 -0.5072,0.748718 -0.5072,3.477916 v 13.283708 q 0,4.927049 -0.99024,7.656247 -0.96609,2.705046 -3.8402,4.661374 -2.84996,1.932176 -7.77701,1.932176 -5.36178,0 -8.13929,-1.85972 -2.7775,-1.859719 -3.9368,-4.999504 -0.77287,-2.149546 -0.77287,-8.066834 V 43.796698 q 0,-3.019025 -0.845331,-3.960961 -0.821175,-0.941935 -2.680894,-0.941935 H 95.493423 V 38.00017 h 14.153187 v 0.893632 h -1.25591 q -2.02879,0 -2.89827,1.280066 -0.6038,0.869479 -0.6038,3.62283 v 14.273948 q 0,1.908023 0.33813,4.371548 0.36228,2.463524 1.28006,3.840199 0.91779,1.376675 2.63259,2.270306 1.73896,0.893632 4.25079,0.893632 3.21224,0 5.74822,-1.400828 2.53598,-1.400827 3.45377,-3.574525 0.94193,-2.19785 0.94193,-7.414724 V 43.796698 q 0,-3.067329 -0.67626,-3.8402 -0.94193,-1.062696 -2.80165,-1.062696 z m 39.85112,41.541778 v 0.893632 q -3.64698,-1.835567 -6.08636,-4.299091 -3.47791,-3.502069 -5.36178,-8.260052 -1.88388,-4.757983 -1.88388,-9.878248 0,-7.487181 3.69529,-13.645992 3.69529,-6.182962 9.63673,-8.839704 v 1.014393 q -2.97072,1.642349 -4.87875,4.492308 -1.90802,2.849959 -2.84996,7.221507 -0.94193,4.371548 -0.94193,9.12953 0,5.168571 0.79702,9.395205 0.62796,3.333003 1.52159,5.337636 0.89363,2.028784 2.39107,3.888503 1.52158,1.85972 3.96096,3.550373 z m 16.95484,-32.460552 v 7.535485 h -0.79702 q -0.91778,-3.550373 -2.36692,-4.830439 -1.42497,-1.280067 -3.64698,-1.280067 -1.69065,0 -2.7292,0.893632 -1.03854,0.893631 -1.03854,1.98048 0,1.352523 0.77287,2.318611 0.74872,0.99024 3.04318,2.101241 l 3.52622,1.714806 q 4.90289,2.391067 4.90289,6.303723 0,3.019025 -2.29445,4.878744 -2.27031,1.835567 -5.09612,1.835567 -2.02878,0 -4.63722,-0.724566 -0.79702,-0.241522 -1.30422,-0.241522 -0.5555,0 -0.86948,0.627957 h -0.79702 v -7.897768 h 0.79702 q 0.67626,3.381307 2.58429,5.096113 1.90802,1.714806 4.27494,1.714806 1.6665,0 2.70504,-0.966088 1.0627,-0.99024 1.0627,-2.366915 0,-1.666502 -1.18346,-2.801655 -1.1593,-1.135153 -4.66137,-2.874111 -3.50207,-1.738958 -4.58892,-3.139786 -1.08685,-1.376675 -1.08685,-3.477916 0,-2.729198 1.85972,-4.564765 1.88387,-1.835567 4.85459,-1.835567 1.30422,0 3.16394,0.5555 1.23176,0.362283 1.64235,0.362283 0.38643,0 0.6038,-0.169065 0.21737,-0.169066 0.5072,-0.748718 z m 24.34541,0.652109 v 13.404469 q 0,3.8402 0.16907,4.709679 0.19322,0.845327 0.57965,1.183457 0.41059,0.338131 0.94194,0.338131 0.74872,0 1.69065,-0.410587 l 0.33813,0.845327 -6.6177,2.729198 h -1.08685 v -4.685526 q -2.84996,3.091481 -4.34739,3.888503 -1.49744,0.797023 -3.16394,0.797023 -1.85972,0 -3.2364,-1.062697 -1.35252,-1.086849 -1.88387,-2.777502 -0.53135,-1.690654 -0.53135,-4.782135 v -9.878249 q 0,-1.569893 -0.33813,-2.173698 -0.33813,-0.603805 -1.01439,-0.917783 -0.65211,-0.338131 -2.39107,-0.313979 v -0.893631 h 7.75286 v 14.805297 q 0,3.091481 1.0627,4.057569 1.08684,0.966088 2.60843,0.966088 1.03855,0 2.34277,-0.65211 1.32837,-0.652109 3.13978,-2.487676 v -12.53499 q 0,-1.883872 -0.70041,-2.535981 -0.67626,-0.676261 -2.84996,-0.724566 v -0.893631 z m 4.90291,-11.206619 v -1.014393 q 3.67113,1.811415 6.1105,4.274939 3.45377,3.526221 5.33764,8.284204 1.88387,4.73383 1.88387,9.878248 0,7.487181 -3.69529,13.645991 -3.67113,6.182963 -9.63672,8.839705 V 80.43558 q 2.97072,-1.666501 4.87874,-4.516461 1.93218,-2.825807 2.84996,-7.197354 0.94194,-4.3957 0.94194,-9.153683 0,-5.144418 -0.79703,-9.395204 -0.6038,-3.333004 -1.52158,-5.337636 -0.89364,-2.004632 -2.39107,-3.864352 -1.49744,-1.859719 -3.96096,-3.550372 z"
             id="path29" />
        </g>
      </g>
    </g>
  </g>
</svg>
